<?xml version="1.0" encoding="UTF-8" standalone="no"?>
<!-- Created with Inkscape (http://www.inkscape.org/) -->

<svg
   width="65.262222mm"
   height="15.007555mm"
   viewBox="0 0 65.262222 15.007555"
   version="1.1"
   id="svg502"
   inkscape:version="1.1.1 (3bf5ae0d25, 2021-09-20)"
   sodipodi:docname="logo_long.svg"
   xmlns:inkscape="http://www.inkscape.org/namespaces/inkscape"
   xmlns:sodipodi="http://sodipodi.sourceforge.net/DTD/sodipodi-0.dtd"
   xmlns="http://www.w3.org/2000/svg"
   xmlns:svg="http://www.w3.org/2000/svg">
  <sodipodi:namedview
     id="namedview504"
     pagecolor="#ffffff"
     bordercolor="#666666"
     borderopacity="1.0"
     inkscape:pageshadow="2"
     inkscape:pageopacity="0.0"
     inkscape:pagecheckerboard="0"
     inkscape:document-units="mm"
     showgrid="false"
     fit-margin-top="0"
     fit-margin-left="0"
     fit-margin-right="0"
     fit-margin-bottom="0"
     inkscape:zoom="2.2449495"
     inkscape:cx="50.112486"
     inkscape:cy="1.1136108"
     inkscape:window-width="1920"
     inkscape:window-height="1007"
     inkscape:window-x="0"
     inkscape:window-y="0"
     inkscape:window-maximized="1"
     inkscape:current-layer="layer1" />
  <defs
     id="defs499" />
  <g
     inkscape:label="Layer 1"
     inkscape:groupmode="layer"
     id="layer1"
     transform="translate(-9.3260366,-184.36765)">
    <g
       aria-label="T"
       id="text879-7-4-7"
       style="font-size:10.5833px;line-height:1.25;font-family:made;-inkscape-font-specification:made;letter-spacing:0px;word-spacing:0px;fill:#784421;stroke-width:0.264583"
       transform="translate(-113.08806,-70.857583)">
      <path
         d="m 124.80026,263.43856 q 0,0.0953 -0.15875,0.0847 -0.14816,-0.0106 -0.34924,-0.0635 -0.20109,-0.0635 -0.381,-0.14816 -0.17992,-0.0952 -0.22225,-0.16933 -0.0106,-0.70909 0.17991,-1.27 0.20109,-0.56091 0.51859,-0.99483 0.31749,-0.43392 0.73024,-0.75141 0.42333,-0.3175 0.86783,-0.55034 0.4445,-0.23283 0.889,-0.38099 0.4445,-0.15875 0.8255,-0.26459 0.66675,-0.17991 1.37583,-0.254 0.71966,-0.0741 1.43933,-0.0741 0.60324,0 1.24883,0.0317 0.64558,0.0317 1.21707,0.0847 0.508,0.0423 1.016,0.0741 0.508,0.0212 0.96308,0.0212 0.56092,0 1.03717,-0.0635 0.47624,-0.0635 0.87841,-0.24342 0.0741,-0.0317 0.0847,0.0953 0.0106,0.127 -0.0212,0.29633 -0.0318,0.16934 -0.0952,0.33867 -0.0529,0.15875 -0.127,0.21166 -0.42333,0.14817 -0.93133,0.22225 -0.49742,0.0635 -1.016,0.0635 -0.58208,0 -1.20649,-0.0529 -0.61384,-0.0635 -1.24883,-0.127 -0.67733,-0.0741 -1.37583,-0.13759 -0.68792,-0.0635 -1.37583,-0.0635 -0.43392,0 -0.85725,0.0317 -0.41275,0.0317 -0.83608,0.11642 -0.5715,0.10583 -1.11125,0.35983 -0.52916,0.254 -0.95249,0.71967 -0.42333,0.45508 -0.6985,1.16416 -0.26458,0.6985 -0.30692,1.69333 z m 4.9424,-3.69357 q 0.0529,-0.0847 0.254,-0.0212 0.21167,0.0529 0.42334,0.20108 0.22225,0.13759 0.37041,0.34925 0.14817,0.20108 0.0741,0.40217 -0.52916,0.64558 -1.04774,1.40758 -0.51858,0.75141 -0.99483,1.55574 -0.47625,0.79375 -0.889,1.60866 -0.41275,0.81492 -0.73025,1.5875 -0.3175,0.77258 -0.52916,1.47108 -0.21167,0.69849 -0.27517,1.24883 -0.0106,0.0741 -0.13758,-0.0212 -0.127,-0.0847 -0.28575,-0.24342 -0.14817,-0.14816 -0.27517,-0.3175 -0.11641,-0.16933 -0.127,-0.26458 0.0318,-0.56091 0.24342,-1.29116 0.21167,-0.73025 0.53975,-1.53458 0.33866,-0.80433 0.762,-1.65099 0.42333,-0.85725 0.87841,-1.66158 0.45508,-0.80433 0.89958,-1.53458 0.45508,-0.73025 0.84666,-1.29116 z"
         style="font-family:'Ananda Black';-inkscape-font-specification:'Ananda Black, '"
         id="path523" />
    </g>
    <g
       aria-label="errain"
       id="text883-4-8-9"
       style="font-size:8.46667px;line-height:1.25;font-family:made;-inkscape-font-specification:made;letter-spacing:0px;word-spacing:0px;stroke-width:0.264583"
       transform="translate(-113.08806,-70.857583)">
      <path
         d="m 132.00025,263.89708 q -0.381,0.6858 -0.99906,1.143 -0.61807,0.44874 -1.36314,0.65194 -0.008,0.14393 0.0169,0.28786 0.0254,0.14394 0.0847,0.27094 0.0593,0.127 0.16087,0.22013 0.1016,0.0931 0.254,0.127 0.18627,0.0423 0.42333,-0.008 0.24554,-0.0593 0.508,-0.22013 0.27094,-0.16933 0.55034,-0.44027 0.2794,-0.27093 0.55033,-0.6604 0.13547,-0.19473 0.24553,-0.381 0.11007,-0.18626 0.2032,-0.3556 0.0339,-0.0423 0.0762,-0.0423 0.0508,-0.008 0.0847,0.0169 0.0423,0.0254 0.0593,0.0677 0.0169,0.0423 -0.0169,0.1016 -0.11853,0.18626 -0.254,0.4064 -0.13546,0.22013 -0.3048,0.46566 -0.16086,0.23707 -0.36406,0.4826 -0.19474,0.23707 -0.44027,0.4572 -0.24553,0.22014 -0.47413,0.33867 -0.2286,0.11007 -0.4318,0.16087 -0.2032,0.0423 -0.36407,0.0423 -0.16087,0.008 -0.26247,0.008 -0.57573,0 -0.89746,-0.3048 -0.32174,-0.3048 -0.34714,-0.82974 -0.0169,-0.4826 0.16933,-0.95673 0.19474,-0.4826 0.61807,-1.0414 0.13547,-0.1778 0.36407,-0.381 0.2286,-0.21167 0.508,-0.38947 0.2794,-0.1778 0.59267,-0.28786 0.31326,-0.11007 0.62653,-0.1016 0.2032,0 0.34713,0.0931 0.1524,0.0931 0.22014,0.254 0.0677,0.1524 0.0339,0.36407 -0.0254,0.2032 -0.1778,0.44026 z m -2.31986,1.49014 q -0.008,0.0169 -0.008,0.0339 0.6858,-0.19473 1.23613,-0.61806 0.55034,-0.4318 0.889,-1.07527 0.11854,-0.24553 0.0593,-0.41487 -0.0593,-0.1778 -0.29633,-0.13546 -0.3556,0.0677 -0.66887,0.32173 -0.31327,0.254 -0.5588,0.5842 -0.24553,0.3302 -0.41487,0.6858 -0.16933,0.34713 -0.23706,0.61807 z"
         style="font-family:Ananda;-inkscape-font-specification:Ananda"
         id="path510" />
      <path
         d="m 135.59857,265.56502 q -0.1778,0.254 -0.4064,0.51646 -0.2286,0.26247 -0.49106,0.47414 -0.26247,0.21166 -0.5588,0.34713 -0.29634,0.127 -0.6096,0.11007 -0.32174,-0.0169 -0.47414,-0.23707 -0.1524,-0.22013 -0.14393,-0.508 0.008,-0.26247 0.0931,-0.49107 0.0847,-0.2286 0.21167,-0.44026 0.13546,-0.22014 0.28787,-0.4318 0.16086,-0.21167 0.3302,-0.44027 0.11006,-0.1524 0.22013,-0.29633 0.11007,-0.1524 0.18627,-0.26247 0.0762,-0.11853 0.11006,-0.18627 0.0339,-0.0677 0,-0.0593 -0.127,0.0169 -0.22013,0.0423 -0.0847,0.0169 -0.16087,0.0423 -0.0762,0.0169 -0.16086,0.0254 -0.0847,0.008 -0.2032,0.008 -0.0423,0 -0.0847,0 -0.0423,0 -0.0847,-0.008 -0.19473,0.27094 -0.37253,0.54187 -0.1778,0.27093 -0.33867,0.52493 -0.0254,0.0423 -0.0762,0.0508 -0.0423,0 -0.0762,-0.0169 -0.0339,-0.0254 -0.0508,-0.0677 -0.0169,-0.0508 0.0254,-0.11007 0.16933,-0.27093 0.31327,-0.51647 0.1524,-0.254 0.32173,-0.508 -0.1524,-0.127 -0.11007,-0.33866 0.0423,-0.22014 0.16934,-0.4572 0.127,-0.24554 0.27093,-0.46567 0.14394,-0.22013 0.19474,-0.3556 0.1016,0.0423 0.2032,0.11007 0.11006,0.0593 0.1778,0.1524 0.0677,0.0847 0.0847,0.22013 0.0169,0.127 -0.0593,0.31327 l -0.3556,0.51646 q -0.0339,0.0508 0.0593,0.0339 0.0931,-0.0169 0.26247,-0.0677 0.16933,-0.0593 0.37253,-0.13547 0.21167,-0.0847 0.4064,-0.16933 0.19474,-0.0847 0.33867,-0.16087 0.1524,-0.0847 0.19473,-0.13547 0.0254,0 0.0677,0.0339 0.0508,0.0339 0.1016,0.0762 0.0593,0.0423 0.1016,0.0847 0.0423,0.0423 0.0508,0.0508 0.0847,0.127 -0.008,0.33866 -0.0847,0.2032 -0.27093,0.47414 -0.18627,0.27093 -0.44027,0.5842 -0.254,0.3048 -0.49953,0.635 -0.0847,0.1016 -0.18627,0.24553 -0.1016,0.13547 -0.19473,0.28787 -0.0931,0.14393 -0.16087,0.28786 -0.0677,0.14394 -0.0847,0.26247 -0.0169,0.11853 0.0339,0.19473 0.0593,0.0677 0.22013,0.0762 0.11007,0.008 0.26247,-0.0593 0.16087,-0.0762 0.33867,-0.2032 0.1778,-0.13547 0.3556,-0.31327 0.1778,-0.1778 0.32173,-0.381 0.16933,-0.24553 0.3048,-0.47413 0.14393,-0.2286 0.23707,-0.39794 0.0339,-0.0423 0.0762,-0.0423 0.0508,-0.008 0.0847,0.0169 0.0423,0.0254 0.0508,0.0677 0.0169,0.0423 -0.0169,0.1016 -0.14393,0.22013 -0.27093,0.44873 -0.127,0.2286 -0.27094,0.44027 z"
         style="font-family:Ananda;-inkscape-font-specification:Ananda"
         id="path512" />
      <path
         d="m 138.90057,265.56502 q -0.1778,0.254 -0.4064,0.51646 -0.2286,0.26247 -0.49107,0.47414 -0.26247,0.21166 -0.5588,0.34713 -0.29633,0.127 -0.6096,0.11007 -0.32173,-0.0169 -0.47413,-0.23707 -0.1524,-0.22013 -0.14394,-0.508 0.008,-0.26247 0.0931,-0.49107 0.0847,-0.2286 0.21166,-0.44026 0.13547,-0.22014 0.28787,-0.4318 0.16087,-0.21167 0.3302,-0.44027 0.11007,-0.1524 0.22013,-0.29633 0.11007,-0.1524 0.18627,-0.26247 0.0762,-0.11853 0.11007,-0.18627 0.0339,-0.0677 0,-0.0593 -0.127,0.0169 -0.22014,0.0423 -0.0847,0.0169 -0.16086,0.0423 -0.0762,0.0169 -0.16087,0.0254 -0.0847,0.008 -0.2032,0.008 -0.0423,0 -0.0847,0 -0.0423,0 -0.0847,-0.008 -0.19474,0.27094 -0.37254,0.54187 -0.1778,0.27093 -0.33866,0.52493 -0.0254,0.0423 -0.0762,0.0508 -0.0423,0 -0.0762,-0.0169 -0.0339,-0.0254 -0.0508,-0.0677 -0.0169,-0.0508 0.0254,-0.11007 0.16933,-0.27093 0.31326,-0.51647 0.1524,-0.254 0.32174,-0.508 -0.1524,-0.127 -0.11007,-0.33866 0.0423,-0.22014 0.16933,-0.4572 0.127,-0.24554 0.27094,-0.46567 0.14393,-0.22013 0.19473,-0.3556 0.1016,0.0423 0.2032,0.11007 0.11007,0.0593 0.1778,0.1524 0.0677,0.0847 0.0847,0.22013 0.0169,0.127 -0.0593,0.31327 l -0.3556,0.51646 q -0.0339,0.0508 0.0593,0.0339 0.0931,-0.0169 0.26246,-0.0677 0.16934,-0.0593 0.37254,-0.13547 0.21166,-0.0847 0.4064,-0.16933 0.19473,-0.0847 0.33867,-0.16087 0.1524,-0.0847 0.19473,-0.13547 0.0254,0 0.0677,0.0339 0.0508,0.0339 0.1016,0.0762 0.0593,0.0423 0.1016,0.0847 0.0423,0.0423 0.0508,0.0508 0.0847,0.127 -0.008,0.33866 -0.0847,0.2032 -0.27094,0.47414 -0.18626,0.27093 -0.44027,0.5842 -0.254,0.3048 -0.49953,0.635 -0.0847,0.1016 -0.18627,0.24553 -0.1016,0.13547 -0.19473,0.28787 -0.0931,0.14393 -0.16087,0.28786 -0.0677,0.14394 -0.0847,0.26247 -0.0169,0.11853 0.0339,0.19473 0.0593,0.0677 0.22014,0.0762 0.11006,0.008 0.26246,-0.0593 0.16087,-0.0762 0.33867,-0.2032 0.1778,-0.13547 0.3556,-0.31327 0.1778,-0.1778 0.32174,-0.381 0.16933,-0.24553 0.3048,-0.47413 0.14393,-0.2286 0.23706,-0.39794 0.0339,-0.0423 0.0762,-0.0423 0.0508,-0.008 0.0847,0.0169 0.0423,0.0254 0.0508,0.0677 0.0169,0.0423 -0.0169,0.1016 -0.14394,0.22013 -0.27094,0.44873 -0.127,0.2286 -0.27093,0.44027 z"
         style="font-family:Ananda;-inkscape-font-specification:Ananda"
         id="path514" />
      <path
         d="m 142.5243,263.90555 q 0,0.0593 -0.0423,0.0931 -0.0423,0.0339 -0.0931,0.0423 -0.0423,0 -0.0762,-0.0339 -0.0339,-0.0339 -0.0339,-0.1016 -0.0169,-0.0847 -0.0339,-0.21167 -0.008,-0.13546 -0.0593,-0.254 -0.0423,-0.127 -0.14393,-0.22013 -0.1016,-0.0931 -0.29634,-0.1016 -0.23706,-0.008 -0.46566,0.0931 -0.22014,0.1016 -0.42334,0.2794 -0.2032,0.1778 -0.381,0.41487 -0.1778,0.2286 -0.32173,0.4826 -0.14393,0.24553 -0.254,0.49953 -0.1016,0.24554 -0.16087,0.4572 -0.0423,0.14394 -0.0677,0.34714 -0.0254,0.2032 0.0169,0.381 0.0423,0.16933 0.1778,0.26246 0.13547,0.0931 0.42334,0.0254 0.13546,-0.0339 0.3302,-0.19473 0.19473,-0.16087 0.38946,-0.37253 0.2032,-0.22014 0.381,-0.4572 0.1778,-0.23707 0.28787,-0.41487 0.0931,-0.24553 0.1524,-0.47413 0.0677,-0.2286 0.0847,-0.39794 0.0847,-0.0423 0.2286,0.0169 0.14393,0.0593 0.27093,0.16933 0.127,0.11007 0.2032,0.254 0.0762,0.14393 0.0339,0.2794 -0.0508,0.127 -0.127,0.3048 -0.0677,0.1778 -0.14394,0.36407 -0.0677,0.18626 -0.13546,0.37253 -0.0593,0.1778 -0.0847,0.3302 -0.0169,0.14393 0,0.23707 0.0254,0.0931 0.11853,0.1016 h 0.1016 q 0.28787,-0.0847 0.53341,-0.3048 0.254,-0.22014 0.46566,-0.49954 0.22014,-0.2794 0.39794,-0.5842 0.18626,-0.3048 0.33866,-0.5588 0.0254,-0.0423 0.0762,-0.0423 0.0508,-0.008 0.0847,0.0169 0.0423,0.0254 0.0593,0.0677 0.0169,0.0423 -0.0169,0.1016 -0.16933,0.26246 -0.3302,0.5334 -0.16086,0.27093 -0.33866,0.52493 -0.1778,0.254 -0.381,0.49107 -0.19474,0.23706 -0.4318,0.4318 -0.0593,0.0508 -0.15241,0.11853 -0.0847,0.0677 -0.2032,0.127 -0.11006,0.0593 -0.24553,0.1016 -0.127,0.0339 -0.2794,0.0254 -0.23707,-0.0169 -0.38947,-0.11853 -0.14393,-0.1016 -0.22013,-0.26247 -0.0762,-0.16087 -0.0847,-0.36407 0,-0.2032 0.0593,-0.41486 -0.16933,0.21166 -0.36407,0.41486 -0.18626,0.2032 -0.38946,0.36407 -0.2032,0.16087 -0.41487,0.26247 -0.21167,0.0931 -0.41487,0.0762 -0.36406,-0.0169 -0.56726,-0.16934 -0.19474,-0.16086 -0.28787,-0.37253 -0.0931,-0.21167 -0.11007,-0.44027 -0.008,-0.2286 0.0169,-0.381 0.0423,-0.29633 0.18626,-0.65193 0.14394,-0.3556 0.37254,-0.70273 0.2286,-0.3556 0.52493,-0.66887 0.3048,-0.32173 0.64347,-0.5334 0.34713,-0.22013 0.71966,-0.3048 0.37254,-0.0931 0.762,0.008 0.16934,0.0508 0.27094,0.16933 0.11006,0.11007 0.16933,0.27093 0.0593,0.1524 0.0762,0.33867 0.0169,0.1778 0.008,0.3556 z"
         style="font-family:Ananda;-inkscape-font-specification:Ananda"
         id="path516" />
      <path
         d="m 144.87803,262.76255 q 0.0847,-0.0423 0.22013,0.0169 0.14393,0.0508 0.254,0.16087 0.11854,0.11007 0.1778,0.254 0.0677,0.14393 0.008,0.2794 -0.0508,0.11853 -0.21167,0.381 -0.1524,0.26247 -0.33867,0.60113 -0.1778,0.3302 -0.36406,0.6858 -0.18627,0.3556 -0.3048,0.65194 -0.11007,0.29633 -0.13547,0.49106 -0.0169,0.18627 0.13547,0.19474 h 0.0931 q 0.3048,-0.0847 0.56727,-0.28787 0.26246,-0.21167 0.49107,-0.47413 0.23706,-0.26247 0.44026,-0.55034 0.21167,-0.28786 0.38947,-0.54186 0.0339,-0.0423 0.0847,-0.0423 0.0508,-0.008 0.0847,0.0169 0.0339,0.0169 0.0423,0.0677 0.008,0.0423 -0.0423,0.1016 -0.3556,0.55033 -0.72813,1.02447 -0.37254,0.46566 -0.889,0.8636 -0.0677,0.0508 -0.16087,0.11853 -0.0931,0.0677 -0.21167,0.127 -0.11853,0.0508 -0.26246,0.0931 -0.13547,0.0339 -0.2794,0.0339 -0.1778,-0.008 -0.28787,-0.1016 -0.11007,-0.0931 -0.16087,-0.24553 -0.0508,-0.1524 -0.0423,-0.34714 0.008,-0.19473 0.0762,-0.41486 0.0847,-0.3048 0.26247,-0.71967 0.1778,-0.41487 0.381,-0.84667 0.2032,-0.44026 0.39793,-0.85513 0.19473,-0.42333 0.31327,-0.7366 z m 0.8128,-2.3368 q 0.0762,-0.008 0.2032,0.0847 0.127,0.0931 0.24553,0.22014 0.127,0.127 0.21167,0.26246 0.0847,0.12701 0.0847,0.17781 -0.0423,0.16086 -0.127,0.3302 -0.0762,0.16086 -0.16934,0.33866 -0.0847,0.16934 -0.16933,0.33867 -0.0847,0.16933 -0.127,0.33867 -0.0677,-0.008 -0.1524,-0.0762 -0.0762,-0.0677 -0.14393,-0.1524 -0.0677,-0.0931 -0.11854,-0.1778 -0.0423,-0.0931 -0.0423,-0.16087 0.008,-0.14393 0.0508,-0.3302 0.0423,-0.18627 0.0931,-0.38947 0.0593,-0.2032 0.1016,-0.4064 0.0508,-0.21167 0.0593,-0.39793 z"
         style="font-family:Ananda;-inkscape-font-specification:Ananda"
         id="path518" />
      <path
         d="m 150.41522,265.41262 q -0.11854,0.18626 -0.32174,0.46566 -0.2032,0.27094 -0.44873,0.52494 -0.23707,0.254 -0.508,0.44026 -0.27093,0.1778 -0.52493,0.1778 -0.14394,0 -0.28787,-0.0508 -0.13547,-0.0508 -0.23707,-0.1524 -0.1016,-0.1016 -0.16086,-0.26246 -0.0593,-0.16087 -0.0508,-0.381 0.008,-0.22014 0.0593,-0.4318 0.0508,-0.22014 0.127,-0.4572 0.0847,-0.24554 0.2032,-0.52494 0.11854,-0.28786 0.26247,-0.635 0.0931,-0.22013 0.14393,-0.39793 0.0508,-0.18627 0.0169,-0.27093 -0.0339,-0.0847 -0.1778,-0.0254 -0.14394,0.0508 -0.44027,0.3048 -0.3302,0.29633 -0.5842,0.56726 -0.254,0.27094 -0.52493,0.60114 -0.21167,0.49106 -0.3556,0.99906 -0.14394,0.49954 -0.18627,1.05834 0,0.0593 -0.0931,0.0339 -0.0931,-0.0254 -0.21167,-0.0847 -0.11007,-0.0677 -0.2032,-0.1524 -0.0931,-0.0847 -0.1016,-0.1524 0.0254,-0.49954 0.1524,-0.97367 0.13547,-0.4826 0.3048,-0.95673 0.16933,-0.4826 0.3556,-0.95674 0.18627,-0.47413 0.3302,-0.95673 0.0847,-0.0423 0.22013,0.0169 0.14394,0.0508 0.27094,0.16087 0.127,0.11007 0.2032,0.254 0.0762,0.14393 0.0339,0.2794 -0.0254,0.0931 -0.0677,0.1778 -0.0423,0.0847 -0.0931,0.1778 0.1778,-0.19473 0.381,-0.381 0.2032,-0.18627 0.41486,-0.3302 0.21167,-0.1524 0.4318,-0.24553 0.22014,-0.0931 0.44874,-0.11007 0.0931,0 0.19473,0.0762 0.11007,0.0677 0.18627,0.1778 0.0847,0.1016 0.127,0.22013 0.0423,0.11854 0.008,0.21167 -0.21166,0.57573 -0.38946,0.97367 -0.1778,0.38946 -0.31327,0.70273 -0.13547,0.3048 -0.22013,0.59267 -0.0847,0.2794 -0.11007,0.635 0,0.0254 0.008,0.0593 0.008,0.0339 0.0339,0.0593 0.0339,0.0254 0.0931,0.0254 0.0593,0 0.1524,-0.0423 0.24553,-0.11854 0.5842,-0.41487 0.34713,-0.29633 0.67733,-0.7874 0.127,-0.18627 0.2286,-0.36407 0.11007,-0.18626 0.21167,-0.3556 0.0254,-0.0423 0.0677,-0.0423 0.0508,-0.008 0.0847,0.0169 0.0423,0.0254 0.0508,0.0677 0.0169,0.0423 -0.0169,0.1016 l -0.44026,0.7366 z"
         style="font-family:Ananda;-inkscape-font-specification:Ananda"
         id="path520" />
    </g>
    <g
       aria-label="S"
       id="text887-7-4-2"
       style="font-size:9.87777px;line-height:1.25;font-family:made;-inkscape-font-specification:made;letter-spacing:0px;word-spacing:0px;fill:#008000;stroke-width:0.264583"
       transform="translate(-113.08806,-70.857583)">
      <path
         d="m 159.94697,261.96476 q -0.22719,0.14817 -0.45438,0.11854 -0.21731,-0.0296 -0.39511,-0.12841 -0.16792,-0.0988 -0.2667,-0.21731 -0.0889,-0.12842 -0.0593,-0.1778 0.20744,-0.0988 0.45438,-0.28646 0.24694,-0.18768 0.46425,-0.41487 0.21732,-0.22718 0.37536,-0.47413 0.15804,-0.24694 0.18768,-0.45438 0.0395,-0.21731 -0.0889,-0.37535 -0.11854,-0.15805 -0.46426,-0.20743 -0.33584,-0.0395 -0.79022,0 -0.45438,0.0395 -0.93839,0.16792 -0.47413,0.12841 -0.93839,0.34572 -0.46425,0.20743 -0.81985,0.49389 -0.34572,0.28645 -0.54328,0.66181 -0.19755,0.36548 -0.14816,0.8001 0.0395,0.39511 0.24694,0.75071 0.20743,0.3556 0.48401,0.69144 0.28646,0.33585 0.60254,0.67169 0.31609,0.32597 0.57292,0.67169 0.25682,0.34572 0.40498,0.72108 0.15805,0.37535 0.11854,0.8001 -0.0494,0.52352 -0.39511,1.0668 -0.34573,0.54327 -0.90876,0.96802 -0.55315,0.43462 -1.27423,0.69144 -0.72108,0.2667 -1.5113,0.21731 -0.41487,-0.0198 -0.89888,-0.15804 -0.48401,-0.12841 -0.89887,-0.38524 -0.41487,-0.24694 -0.70133,-0.6223 -0.27657,-0.37535 -0.29633,-0.87912 -0.0197,-0.5334 0.24695,-1.01741 0.2667,-0.49389 0.93838,-0.95814 0.0494,-0.0395 0.22719,0.0197 0.18768,0.0494 0.38524,0.14817 0.19755,0.0889 0.34572,0.19756 0.15804,0.10865 0.13829,0.16792 -0.23707,0.12841 -0.49389,0.2667 -0.24695,0.13829 -0.45438,0.31609 -0.20743,0.16792 -0.34572,0.39511 -0.12841,0.22719 -0.12841,0.5334 0,0.42474 0.18767,0.69144 0.18768,0.25682 0.48402,0.40499 0.29633,0.14817 0.65193,0.19756 0.36548,0.0494 0.72108,0.0494 0.60254,0 1.10631,-0.16792 0.51364,-0.15804 0.87912,-0.45438 0.36547,-0.29633 0.56303,-0.72107 0.20743,-0.42475 0.20743,-0.94827 -0.01,-0.37535 -0.19755,-0.7112 -0.18768,-0.34572 -0.46426,-0.66181 -0.2667,-0.31609 -0.58279,-0.61242 -0.30621,-0.30621 -0.56303,-0.6223 -0.25682,-0.32597 -0.41486,-0.66181 -0.14817,-0.34572 -0.10866,-0.74083 0.0494,-0.46426 0.30621,-0.89888 0.25682,-0.43462 0.65193,-0.80998 0.40499,-0.38523 0.91864,-0.69144 0.52352,-0.31609 1.08655,-0.52352 0.57291,-0.21731 1.16558,-0.31609 0.59266,-0.10866 1.14582,-0.079 0.45438,0.0296 0.70132,0.21731 0.24694,0.18767 0.33584,0.47413 0.0988,0.27658 0.0593,0.6223 -0.0395,0.34572 -0.15804,0.69144 -0.11854,0.33585 -0.29634,0.64206 -0.1778,0.30621 -0.36547,0.50376 z"
         style="font-family:Ananda;-inkscape-font-specification:Ananda"
         id="path507" />
    </g>
    <g
       aria-label="U"
       transform="rotate(19.823135,146.21209,-359.02573)"
       id="text914-6-5-9"
       style="font-size:5.64444px;line-height:1.25;font-family:made;-inkscape-font-specification:made;letter-spacing:0px;word-spacing:0px;stroke-width:0.264583">
      <path
         d="m 216.53438,197.03562 q 0.0689,-0.003 0.14056,-0.0248 0.98117,-0.62287 0.82407,-1.78042 -0.14056,-1.03077 -1.05006,-1.95406 0.14331,0.17915 0.0882,0.46027 -0.0413,0.21222 -0.21497,0.55121 -0.45751,0.88746 -0.46854,1.07212 -0.0579,0.48231 0.0854,1.01423 0.18466,0.67248 0.5898,0.66146 z m 0.80478,-1.6564 -0.0992,0.22324 -0.113,0.22049 -0.0386,0.0634 q -0.0165,0.0248 -0.0193,0.022 -0.006,-0.003 0.006,-0.0276 l 0.0303,-0.0689 0.11576,-0.21773 0.11024,-0.21773 0.0358,-0.0661 q 0.011,-0.0248 0.011,-0.022 -0.006,0.0138 -0.008,0.022 z m -0.14056,-0.65044 q -0.006,0.0276 -0.0744,0.20395 -0.0854,0.16537 -0.10473,0.19293 l -0.0358,0.0551 q -0.0138,0.0221 -0.0193,0.0193 -0.003,-0.003 0.008,-0.0276 l 0.0303,-0.0551 q 0.0221,-0.0358 0.0524,-0.0965 0.0386,-0.0717 0.0496,-0.0965 0.0909,-0.20671 0.0882,-0.19844 l 0.0248,-0.0634 q 0.008,-0.0165 0.008,-0.0193 -0.003,0.0138 -0.006,0.0221 z m -0.45475,0.68076 -0.18466,-0.33073 q -0.20671,-0.34727 -0.19293,-0.32522 l -0.0634,-0.0965 q -0.006,-0.011 -0.0193,-0.0358 0.0165,0.0221 0.0248,0.0303 l 0.0689,0.0965 q 0.0386,0.0469 0.21222,0.31143 0.15709,0.27286 0.18465,0.33349 l 0.0496,0.0992 q 0.0165,0.0413 0.011,0.0441 -0.006,0.003 -0.0331,-0.0331 z m -0.0386,1.42213 q 0.0689,-0.12127 0.10473,-0.24805 l 0.0331,-0.17087 q -0.0303,-0.11025 -0.13505,-0.23978 -0.0937,-0.10749 -0.25907,-0.24529 l -0.0854,-0.0717 q -0.0276,-0.0248 -0.0276,-0.0248 0.0221,0.0138 0.0303,0.0221 l 0.0909,0.0661 q 0.17639,0.12953 0.27561,0.23427 0.0827,0.0909 0.12127,0.17914 0.0303,-0.23427 0.0331,-0.66421 -0.003,-0.34176 -0.0469,-0.92604 l -0.0331,-0.28664 q -0.0138,-0.0965 -0.0138,-0.0965 0.0138,0.0634 0.022,0.0937 0.0221,0.11851 0.0469,0.28663 0.0689,0.57602 0.0827,0.9288 0.011,0.55672 -0.0579,0.84611 -0.003,0.0386 -0.0138,0.0661 l -0.003,0.008 -0.003,0.011 q -0.0441,0.1378 -0.13229,0.25356 -0.0882,0.0772 -0.0937,0.0689 -0.006,-0.011 0.0634,-0.0909 z"
         style="font-family:Leafs;-inkscape-font-specification:Leafs;fill:#008000"
         id="path504" />
    </g>
    <g
       aria-label="Y"
       transform="rotate(-11.487459,-408.77437,526.72764)"
       id="text918-3-5-3"
       style="font-size:4.23333px;line-height:1.25;font-family:made;-inkscape-font-specification:made;letter-spacing:0px;word-spacing:0px;stroke-width:0.264583"
       inkscape:transform-center-x="-1.0022607"
       inkscape:transform-center-y="-0.13363477">
      <path
         d="m 68.305557,279.02528 q 0.08888,0.0331 0.126091,0.0372 0.03721,0.004 0.09508,0.008 -0.06201,-0.13436 -0.09508,-0.23151 -0.03101,-0.0971 -0.07648,-0.31213 0.03101,0.0248 0.08475,0.0475 0.05374,0.0207 0.07648,0.0207 -0.04754,-0.14469 -0.07028,-0.23357 -0.02274,-0.0868 -0.05168,-0.23565 0.02894,0.031 0.08061,0.0476 0.05168,0.0145 0.08062,0 -0.04134,-0.13436 -0.04548,-0.22325 -0.0062,-0.0868 0,-0.2005 0.188102,0.0641 0.283186,0.12402 0.09715,0.062 0.223242,0.18604 0.02067,-0.0496 0.02687,-0.0992 0.0062,-0.0475 0,-0.15916 0.142627,0.10748 0.204639,0.16743 0.05994,0.0599 0.140559,0.2067 0.02481,-0.0227 0.03101,-0.0723 0.0062,-0.0496 0.0041,-0.10542 0.181901,0.14469 0.274919,0.22944 0.09302,0.0847 0.200504,0.26665 0.01447,-0.0765 0.02067,-0.12402 0.0062,-0.0476 0.01033,-0.10956 0.101286,0.13023 0.165364,0.22531 0.06201,0.0971 0.136426,0.26252 0.0124,-0.0331 0.03307,-0.0765 0.0186,-0.0414 0.03721,-0.0827 0.08061,0.21291 0.09508,0.29146 0.01447,0.0786 0.03514,0.26251 0.04341,-0.0351 0.07028,-0.0889 0.02687,-0.0517 0.04341,-0.0971 0.0124,0.25218 -0.0248,0.54363 -0.07235,0.57878 -0.31626,0.76895 -0.06408,0.0475 -0.142627,0.0889 -0.01447,-0.0744 -0.03514,-0.15089 0.15503,-0.22945 0.200505,-0.38861 0.08475,-0.29765 0.05994,-0.40721 -0.02067,0.25425 -0.124023,0.45682 -0.09922,0.19224 -0.159163,0.25838 -0.04961,-0.15089 -0.128158,-0.32453 -0.01447,-0.0289 -0.02894,-0.0579 0.138492,-0.23978 0.155029,-0.39894 0.02894,-0.30593 -0.0083,-0.41755 0.02067,0.23151 -0.06408,0.49403 -0.03307,0.10128 -0.124023,0.23771 -0.09508,-0.1881 -0.227377,-0.39894 0.10542,-0.22325 0.10542,-0.36381 0.0041,-0.26044 -0.03514,-0.35346 0.03307,0.19637 -0.02067,0.42581 -0.0186,0.0827 -0.09508,0.22944 -0.297656,-0.40721 -0.651122,-0.77307 0.272851,0.34519 0.500227,0.71106 -0.117822,0.006 -0.181901,-0.0124 -0.173632,-0.0496 -0.283186,-0.15503 0.04134,0.0682 0.210839,0.17157 0.09302,0.0558 0.291455,0.0579 0.04547,0.0765 0.08268,0.14056 0.07441,0.11989 0.136426,0.23358 -0.190169,0.0331 -0.276985,0.0248 -0.24598,-0.0227 -0.423747,-0.1323 0.07441,0.0786 0.330729,0.1695 0.14056,0.0517 0.411344,0.0124 0.06201,0.11575 0.111621,0.2253 0.03927,0.0889 0.07028,0.17157 -0.16123,0.0289 -0.283187,0.0145 -0.28732,-0.0331 -0.454752,-0.10955 0.08061,0.0723 0.355534,0.16329 0.179834,0.06 0.411344,0.0124 0.04961,0.14676 0.07235,0.27905 -0.370003,0.15296 -0.795817,0.12402 0.04548,-0.0248 0.08682,-0.0847 0.04341,-0.0579 0.03307,-0.062 -0.09095,0.0248 -0.254248,-0.006 -0.163298,-0.031 -0.274919,-0.13849 0.04134,-0.002 0.07441,-0.0227 0.03514,-0.0207 0.04341,-0.0434 -0.09095,-0.0331 -0.165365,-0.0806 -0.07441,-0.0476 -0.208773,-0.17364 0.07648,0.006 0.10542,-0.004 0.03101,-0.0103 0.04341,-0.0413 -0.105419,-0.0723 -0.165364,-0.1633 -0.06201,-0.0909 -0.09509,-0.22117 0.02894,0.0145 0.07441,0.0103 0.04341,-0.004 0.04754,-0.0289 -0.08682,-0.10542 -0.130225,-0.19017 -0.04134,-0.0848 -0.07648,-0.25218 z"
         style="font-family:Leafs;-inkscape-font-specification:Leafs;fill:#008000"
         id="path501" />
    </g>
    <g
       aria-label="X"
       id="text952-1-5-1"
       style="font-size:4.5861px;line-height:1.25;font-family:made;-inkscape-font-specification:made;letter-spacing:0px;word-spacing:0px;stroke-width:0.264583"
       transform="translate(-113.08806,-70.857583)">
      <path
         d="m 155.01872,268.70985 q -0.0358,0.0739 -0.20378,0.10525 -0.24856,0.0336 -0.59789,0 -0.007,-0.0179 -0.0134,-0.0313 -0.0448,-0.10077 0.0157,-0.15004 0.0448,-0.0403 0.15003,-0.0582 0.0784,-0.0112 0.35605,-0.0134 0.12092,0 0.18586,-0.007 0.0448,-0.007 0.0582,-0.009 0.0739,0.0963 0.0493,0.16347 z m 0.13884,-0.63372 q -0.0291,-0.10525 -0.11421,-0.27992 -0.0269,-0.0582 -0.0672,-0.13436 -0.10301,-0.19034 -0.11196,-0.20377 0.002,-0.009 0.004,-0.0134 0.056,0.0112 0.10301,-0.0224 0,0 0,0 0.007,-0.004 0.0134,-0.0112 v 0 q 0.007,-0.007 0.0112,-0.0134 0.002,0 0.002,0 0,0 0,0 0.007,-0.009 0.0112,-0.0179 0.0537,-0.0985 0.0515,-0.24184 -0.002,-0.20378 -0.13884,-0.37173 -0.002,-0.002 -0.002,-0.002 -0.002,-0.002 -0.002,-0.004 -0.0179,-0.0202 -0.0358,-0.0381 0,0 -0.0134,-0.0157 -0.0157,-0.0157 -0.0269,-0.0246 -0.002,-0.002 -0.0157,-0.0157 -0.0179,-0.0157 -0.0246,-0.0224 -0.007,-0.004 -0.0179,-0.0157 -0.0134,-0.0112 -0.0246,-0.0179 -0.009,-0.009 -0.0202,-0.0157 -0.0134,-0.009 -0.0246,-0.0179 -0.0112,-0.009 -0.0179,-0.0134 -0.0112,-0.007 -0.0246,-0.0157 -0.0157,-0.0112 -0.0179,-0.0112 -0.0112,-0.009 -0.0269,-0.0179 -0.0112,-0.007 -0.0157,-0.009 -0.0157,-0.009 -0.0314,-0.0179 -0.0157,-0.009 -0.0112,-0.007 -0.0314,-0.0179 -0.14108,-0.0784 l -0.0112,-0.004 q -0.002,-0.002 -0.0202,-0.0112 -0.004,-0.002 -0.0157,-0.009 -0.004,-0.002 -0.0157,-0.009 -0.007,-0.002 -0.0157,-0.009 -0.009,-0.004 -0.0157,-0.009 -0.0291,-0.0179 -0.0493,-0.0336 -0.11421,-0.0941 -0.14556,-0.21721 0,-0.004 0,-0.007 -0.0582,0.28215 -0.0269,0.60237 0.0672,0.64268 0.52624,0.83974 0,0 0,0 h 0.002 q -0.007,-0.002 0.0112,0.004 0.0157,0.004 0.0224,0.004 0.002,0.002 0.0134,0.004 0.0112,0.002 0.0157,0.002 0.009,0 0.0157,0.002 0.007,0 0.0134,0 h 0.0112 q 0.004,0 0.0134,-0.002 0.009,0 0.0112,0 0.009,-0.002 0.0179,-0.004 0,-0.002 0.009,-0.004 0.007,-0.002 0.007,-0.004 0.004,0 0.009,-0.004 0.009,-0.004 0.004,-0.002 v 0 q 0.0134,-0.009 0.0224,-0.0202 0.0314,0.0941 0.0829,0.19034 -0.004,-0.0112 0.0694,0.13212 0.0694,0.13212 0.1142,0.262 0.0694,0.20825 -0.0448,0.34037 -0.0224,0.0336 -0.0739,0.0515 -0.0134,-0.0157 -0.0246,-0.0291 -0.11869,-0.12764 -0.36725,-0.30007 -0.15451,-0.10301 -0.45682,-0.27767 -0.11868,-0.0649 -0.21721,-0.10749 0,-0.009 0,-0.0134 0.0627,-0.007 0.10525,-0.0582 v 0 q 0,0 0,0 0.007,-0.007 0.0112,-0.0157 0,-0.002 0.002,-0.002 0.002,-0.007 0.007,-0.0157 0.002,-0.002 0.002,-0.004 0.004,-0.0112 0.007,-0.0202 0.0314,-0.1254 -0.007,-0.27767 -0.056,-0.21946 -0.24856,-0.35382 -0.002,0 -0.002,-0.002 -0.0246,-0.0157 -0.0515,-0.0336 0.002,0.002 -0.0202,-0.0112 -0.0224,-0.0112 -0.0336,-0.0179 -0.002,-0.002 -0.0224,-0.0112 -0.0224,-0.0112 -0.0336,-0.0157 -0.007,-0.004 -0.0224,-0.0112 -0.0202,-0.007 -0.0314,-0.0134 -0.0112,-0.002 -0.0246,-0.009 -0.0157,-0.004 -0.0314,-0.0112 -0.0157,-0.004 -0.0224,-0.007 -0.0134,-0.004 -0.0336,-0.0112 -0.0202,-0.007 -0.0202,-0.007 -0.0112,-0.002 -0.0336,-0.009 l -0.0202,-0.004 q -0.0179,-0.004 -0.0381,-0.009 -0.002,0 -0.007,-0.002 -0.004,0 -0.007,-0.002 -0.0425,-0.009 -0.16571,-0.0336 -0.0157,-0.002 -0.0224,-0.004 -0.004,0 -0.0202,-0.004 -0.0134,-0.002 -0.0224,-0.004 -0.007,0 -0.0179,-0.004 -0.009,-0.002 -0.0202,-0.004 -0.0112,-0.002 -0.0179,-0.004 -0.0381,-0.009 -0.0627,-0.0202 -0.16123,-0.0672 -0.21721,-0.19034 0.0112,0.32246 0.13212,0.65611 0.24185,0.66956 0.78824,0.72778 h 0.007 q 0.0202,0 0.0314,0 0.004,0 0.0157,-0.002 0.0134,0 0.0202,-0.002 0.007,0 0.0157,-0.002 0.007,-0.002 0.0134,-0.004 0.0112,-0.002 0.0134,-0.004 0.004,0 0.0134,-0.004 0.009,-0.004 0.0112,-0.004 0.002,-0.002 0.0112,-0.009 0.009,-0.004 0.0157,-0.0112 0.007,-0.004 0.007,-0.004 0.004,-0.004 0.009,-0.009 0.007,-0.007 0.004,-0.004 v 0 q 0.0157,-0.0202 0.0246,-0.0426 0.0829,0.0537 0.19706,0.11645 0.45234,0.26199 0.45906,0.26647 0.24632,0.15899 0.36277,0.27992 0,0.002 0.004,0.004 -0.009,0.002 -0.0269,0.004 -0.0627,0.0112 -0.18138,0.0157 -0.27991,0.0134 -0.35829,0.0291 -0.10973,0.0246 -0.15675,0.0672 -0.0336,0.0313 -0.0358,0.0851 0,0.047 0.0202,0.0851 0.002,0.007 0.0112,0.0246 -0.0627,-0.007 -0.15451,-0.0157 -0.11645,-0.0157 -0.13884,-0.0179 -0.40307,-0.056 -0.40307,-0.0537 0,-0.002 0.40083,0.0649 0.0224,0.004 0.14556,0.0224 0.0963,0.0134 0.16123,0.0224 0.0291,0.0515 0.11644,0.15675 0.0605,0.0672 0.0627,0.0649 -0.002,0.002 -0.0605,-0.0694 -0.0806,-0.103 -0.10749,-0.15003 0.34038,0.0426 0.59118,0.0157 0.0761,-0.0112 0.1254,-0.0313 0.0829,-0.0336 0.10973,-0.0941 0.0291,-0.0694 -0.0134,-0.15451 -0.0112,-0.0179 -0.0246,-0.0403 0.047,-0.0179 0.0761,-0.056 0.0739,-0.0829 0.0851,-0.1993 0.009,-0.0918 -0.0202,-0.20153 z"
         style="font-family:Leafs;-inkscape-font-specification:Leafs;fill:#008000"
         id="path498" />
    </g>
    <g
       aria-label="R"
       transform="rotate(2.6869413,1454.1315,-2446.4532)"
       id="text956-7-8-9"
       style="font-size:4.5861px;line-height:1.25;font-family:made;-inkscape-font-specification:made;letter-spacing:0px;word-spacing:0px;stroke-width:0.264583">
      <path
         d="m 169.88573,257.67202 q 0.40979,-0.45681 0.49712,-0.95842 0.14556,-0.0605 0.24185,-0.0784 -0.0179,0.15003 0.0985,0.19034 0.0179,-0.0269 0.0806,-0.0179 0.11868,0.0157 0.10077,0.0157 0.0157,-0.0224 0.0918,-0.0336 0.10301,-0.0134 0.11868,-0.0179 -0.0179,-0.0224 0.0605,-0.056 0.0157,-0.007 0.0649,-0.0246 0.0381,-0.0157 0.0515,-0.0224 -0.0291,-0.0112 0.0269,-0.0717 0.0157,-0.0202 0.047,-0.0493 0.0313,-0.0313 0.0381,-0.0381 -0.0403,0.002 0.0246,-0.14331 0.056,-0.1254 0.0941,-0.17915 -0.0493,0.0112 -0.21497,-0.0269 -0.16571,-0.0381 -0.15004,-0.0605 -0.009,0.002 -0.056,0.009 -0.0448,0.004 -0.0717,0.007 -0.0873,0.007 -0.0829,-0.0202 -0.0134,0.007 -0.0493,0.0269 -0.0425,0.0269 -0.0582,0.0358 -0.0739,0.0403 -0.0851,0.0157 -0.0134,0.009 -0.0829,0.0761 -0.0515,0.0515 -0.0806,0.0515 -0.007,0.0112 -0.0179,0.0381 -0.0157,0.0336 -0.0202,0.0448 -0.0291,0.0538 -0.0649,0.0515 -0.0246,0.10748 0.12316,0.17242 -0.12316,0.0426 -0.22617,0.0851 0.009,-0.0493 0.0134,-0.10301 0.002,0 0.004,0.002 0.004,0.002 0.007,0.002 l 0.0224,-0.004 q -0.004,-0.002 -0.0336,-0.0134 0.0202,-0.26423 -0.0694,-0.50832 0.0202,-0.0157 0.0202,-0.0157 l 0.0515,-0.002 q 0.23064,0.103 0.36276,-0.0202 -0.0336,-0.0403 0.0157,-0.11644 0.009,-0.0134 0.0448,-0.0627 0.0269,-0.0381 0.0358,-0.0582 -0.0291,-0.0314 -0.002,-0.1366 0.0336,-0.13884 0.0336,-0.16123 -0.0448,0.0112 -0.056,-0.10749 0,-0.0269 -0.002,-0.0985 -0.002,-0.0582 -0.007,-0.0806 -0.0358,0.0314 -0.103,-0.0739 -0.0202,-0.0291 -0.0538,-0.0873 -0.0314,-0.056 -0.0403,-0.0694 -0.0179,0.0515 -0.21498,-0.11197 -0.17242,-0.14107 -0.23736,-0.22169 -0.007,0.0717 -0.16123,0.262 -0.15452,0.19258 -0.18139,0.16123 -0.002,0.009 -0.0179,0.0761 -0.0157,0.0605 -0.0269,0.0963 -0.0381,0.11644 -0.0784,0.0941 0,0.0224 0.0157,0.0784 0.0179,0.0717 0.0246,0.0963 0.0224,0.11645 -0.0224,0.11645 0.007,0.0202 0.0224,0.0537 h -0.002 q -0.0538,0.0224 -0.0269,0.0605 l 0.0448,0.0627 0.0717,0.0403 q 0.0157,0.0403 0.004,0.0649 0.0134,0.0134 0.0515,0.0448 0.0448,0.0358 0.0605,0.0515 0.0717,0.0649 0.047,0.10973 0.12764,0.0739 0.28663,-0.0202 0.0784,0.22841 0.0649,0.46802 -0.0627,-0.0269 -0.10301,-0.0537 0.0963,-0.0649 0.0627,-0.13883 -0.0246,0.004 -0.0515,-0.0291 -0.047,-0.0627 -0.0403,-0.0537 -0.0202,0.002 -0.0649,-0.0269 -0.056,-0.0403 -0.0672,-0.0448 -0.004,0.0179 -0.0627,-0.002 -0.10525,-0.0358 -0.0851,-0.0313 0.007,0.0179 -0.056,0.0224 -0.0179,0.002 -0.0515,0.002 -0.0336,0.002 -0.0403,0.002 0.0202,0.0157 -0.0963,0.0582 -0.103,0.0358 -0.15227,0.0448 0.0313,0.0157 0.0918,0.11196 0.0582,0.0985 0.0381,0.10077 0.004,0.002 0.0314,0.0224 0.0269,0.0179 0.0403,0.0291 0.047,0.0381 0.0291,0.0493 -0.0179,-0.007 0.0896,0.0202 0.0605,0.0134 0.0493,0.0313 0.0134,0.002 0.0873,0 0.056,0 0.0694,0.0134 0.009,-0.002 0.0314,-0.0112 0.0269,-0.009 0.0358,-0.0112 0.0448,-0.0134 0.0605,0.004 0.0761,-0.0425 0.0426,-0.14331 0.0493,0.0224 0.11196,0.047 -0.0336,0.55759 -0.51952,1.08383 z m 0.33589,-1.15772 q -0.0179,0 -0.0537,-0.0112 -0.10077,0.0851 -0.262,0.103 -0.004,0.002 -0.007,-0.002 0,-0.002 0.002,-0.004 0.0269,-0.009 0.0717,-0.0224 0.056,-0.0157 0.0717,-0.0224 0.0448,-0.0134 0.0806,-0.0358 0.0291,-0.0202 0.007,-0.0269 -0.0224,-0.007 -0.0381,-0.0112 -0.0246,-0.007 -0.0403,-0.0134 -0.0336,-0.009 -0.0537,0.002 -0.0179,0.0112 -0.0493,0.0202 -0.11421,0.0381 -0.15676,0.0448 -0.004,0 -0.007,-0.002 -0.002,-0.002 0.002,-0.004 0.0224,-0.009 0.10748,-0.0358 0.0672,-0.0202 0.10525,-0.0381 -0.0269,-0.009 -0.0851,-0.0269 -0.0493,-0.0134 -0.0582,-0.0134 0.002,0 -0.0157,0.0112 0.007,-0.004 -0.0605,0.0179 -0.0381,0.0112 -0.0717,0.0134 -0.004,0 -0.007,-0.002 0,-0.002 0.002,-0.004 0.10525,-0.0269 0.1366,-0.0448 -0.17243,-0.0515 -0.23737,-0.0717 -0.004,-0.002 -0.004,-0.004 0.002,-0.002 0.007,-0.002 0.0336,0.002 0.23961,0.0672 -0.0224,-0.0605 -0.0806,-0.10525 -0.002,-0.002 0,-0.004 0.002,0 0.007,0 0.0269,0.0112 0.056,0.047 0.0179,0.0269 0.0246,0.0358 0.0179,0.0336 0.0134,0.0313 0.009,0.007 0.0246,0.0134 0.0202,0.007 0.0157,0.007 0.002,0 0.007,0 0.004,0.002 0.004,0.002 0.004,0.002 0.0134,0.004 0.009,0.002 0.0134,0.002 0.009,0.002 0.0291,0.009 0.0202,0.002 0.0291,0.007 -0.0134,-0.0336 -0.0537,-0.0896 -0.0426,-0.0605 -0.056,-0.0896 l 0.007,-0.002 q 0.0582,0.0582 0.0963,0.1254 0.0358,0.0627 0.0336,0.0627 0.007,0.004 0.0179,0.009 0.0224,0.007 0.0582,0.0179 l 0.009,0.002 q 0.0224,0.004 0.0336,0.007 0.007,0.002 0,-0.0246 -0.007,-0.0291 -0.0336,-0.0694 -0.009,-0.0157 -0.0425,-0.0582 -0.0269,-0.0381 -0.0403,-0.0605 -0.002,-0.002 0.002,-0.004 0.002,-0.002 0.007,0.002 0.0716,0.0649 0.0985,0.1254 0.004,0.009 0.009,0.0313 0.007,0.0224 0.0112,0.0336 0.0179,0.0426 0.0605,0.047 0.004,0 0.004,0.004 0,0.002 -0.004,0.002 z m 0.0381,-1.45331 q 0.0134,0.16571 0.0157,0.18363 0.056,-0.0448 0.0941,-0.10525 l 0.0605,-0.12764 q 0,-0.009 0.009,-0.007 0.007,0.004 0.007,0.0112 0,0.0448 -0.0269,0.0963 l -0.0246,0.0425 q -0.0358,0.056 -0.0537,0.0761 -0.0582,0.0649 -0.0537,0.0537 -0.009,0.0224 -0.009,0.056 l 0.002,0.0314 q 0.002,0.0112 0.004,0.0246 0.002,0.009 0.004,0.0269 0.004,0.0179 0.004,0.0246 0.004,0.0157 0.0112,0.056 0.009,0.0381 0.0134,0.0582 0.056,-0.0538 0.14108,-0.17691 0.0918,-0.12988 0.14107,-0.17914 0.004,-0.004 0.009,0 0.007,0.004 0.004,0.0112 -0.0739,0.15452 -0.18362,0.28216 -0.10301,0.11868 -0.10077,0.1142 -0.007,0.0202 -0.007,0.0426 0.009,0.0448 0.0157,0.11644 0.002,0.004 0.004,0.0157 0.009,0.0403 0.0134,0.0627 0.004,0.0202 0.0246,0.007 0.007,-0.004 0.0179,-0.0157 0.0112,-0.009 0.0157,-0.0112 0.0515,-0.0403 0.11421,-0.12092 0.0269,-0.0336 0.0896,-0.12764 0.056,-0.0829 0.0941,-0.1254 0.004,-0.007 0.0112,-0.002 0.007,0.004 0.002,0.0112 -0.0761,0.1881 -0.18139,0.28887 -0.0134,0.0157 -0.0582,0.047 -0.0448,0.0314 -0.0649,0.0515 -0.0717,0.0672 -0.0448,0.14331 0.002,0.009 -0.004,0.0134 -0.007,0.002 -0.0112,-0.004 v -0.002 q -0.0157,-0.0291 -0.0246,-0.10301 -0.27768,-0.0941 -0.47026,-0.35605 -0.004,-0.007 0,-0.0134 0.007,-0.004 0.0134,0 0.0448,0.0358 0.11644,0.10301 0.0829,0.0761 0.11421,0.103 0.0717,0.0627 0.15451,0.10301 0.0358,0.0179 0.0426,0.0202 0.0246,0.004 0.0202,-0.0291 -0.002,-0.009 -0.007,-0.0381 -0.002,-0.0246 -0.004,-0.0403 -0.009,-0.047 -0.0112,-0.0829 -0.0112,-0.0672 -0.0493,-0.0896 -0.0426,-0.0246 -0.0941,-0.0672 -0.18586,-0.16123 -0.24184,-0.23065 -0.007,-0.007 0,-0.0134 0.004,-0.004 0.0112,0 0.0403,0.0314 0.17691,0.15451 0.10748,0.0985 0.18362,0.14332 -0.0269,-0.18363 -0.0246,-0.17019 -0.0134,-0.0985 -0.0246,-0.11197 0.004,0.004 -0.0358,-0.0179 -0.0202,-0.0112 -0.0493,-0.0426 -0.0403,-0.0425 -0.047,-0.047 -0.0605,-0.0537 -0.0963,-0.10973 -0.004,-0.007 0,-0.0112 0.004,-0.007 0.0112,-0.002 0.15451,0.159 0.22169,0.19259 -0.004,-0.0336 -0.0627,-0.47698 -0.002,-0.007 0.004,-0.009 0.007,-0.002 0.0112,0.007 0.0448,0.0985 0.0582,0.27768 z m 0.3874,1.54289 q 0.0157,-0.0157 0.0627,-0.0381 0,-0.17243 0.13212,-0.3359 0.002,-0.004 0.009,-0.002 0.004,0 0.002,0.004 -0.0134,0.0336 -0.0425,0.0873 -0.0314,0.0627 -0.0426,0.0873 -0.0246,0.0515 -0.0336,0.10524 -0.009,0.047 0.0202,0.0336 0.0157,-0.009 0.0515,-0.0246 0.0291,-0.0179 0.0537,-0.0246 0.0425,-0.0224 0.047,-0.0493 0.007,-0.0269 0.0246,-0.0672 0.0649,-0.13659 0.0985,-0.18362 0.004,-0.004 0.009,-0.002 0.004,0.002 0.004,0.004 -0.0134,0.0291 -0.0649,0.13212 -0.0403,0.0806 -0.0538,0.13212 0.0202,-0.009 0.056,-0.0246 0.0403,-0.0202 0.0537,-0.0269 0.0649,-0.0314 0.0694,-0.0403 -0.002,0.004 0.004,-0.0246 -0.002,0.0112 0.0381,-0.0716 0.0224,-0.047 0.0515,-0.0784 0.004,-0.004 0.009,-0.002 0.004,0.002 0.002,0.007 -0.0717,0.12092 -0.0784,0.16347 0.13212,-0.0605 0.30902,-0.14556 0.004,-0.002 0.007,0.002 0.004,0.002 0,0.007 -0.0358,0.0291 -0.30678,0.15227 0.0896,0.0403 0.19482,0.0291 0.004,-0.002 0.004,0.002 0,0.004 -0.004,0.007 -0.0403,0.0134 -0.10749,0.004 -0.0448,-0.004 -0.0627,-0.0112 -0.0582,-0.0157 -0.0493,-0.0157 -0.0157,0 -0.0403,0.009 -0.0179,0.007 -0.0202,0.009 -0.002,0 -0.007,0.002 -0.007,0.002 -0.009,0.004 -0.0134,0.007 -0.0314,0.0179 -0.0112,0.004 -0.0381,0.0179 -0.0224,0.0134 -0.0358,0.0202 0.0493,0.0202 0.15227,0.0358 0.10973,0.0202 0.15676,0.0336 0.004,0.002 0.002,0.007 -0.002,0.004 -0.009,0.004 -0.12093,-0.004 -0.23289,-0.0336 -0.10301,-0.0291 -0.10077,-0.0291 -0.0134,0.002 -0.0314,0.007 -0.0269,0.0157 -0.0739,0.0358 l -0.009,0.007 q -0.0515,0.0291 -0.0403,0.0224 -0.0134,0.007 0.002,0.0134 0.004,0.004 0.0134,0.007 0.009,0.004 0.0112,0.004 0.0381,0.0202 0.10973,0.0358 0.0291,0.007 0.10748,0.0179 0.0694,0.0112 0.10749,0.0202 0.004,0.002 0.002,0.007 0,0.004 -0.007,0.004 -0.14555,0.002 -0.23737,-0.0313 -0.0134,-0.004 -0.0448,-0.0202 -0.0336,-0.0179 -0.0515,-0.0224 -0.0627,-0.0246 -0.10748,0.009 -0.004,0.002 -0.009,0 -0.004,-0.002 0,-0.007 z"
         style="font-family:Leafs;-inkscape-font-specification:Leafs;fill:#008000"
         id="path495" />
    </g>
    <g
       aria-label="ympa"
       id="text887-7-9-0-1"
       style="font-size:8.46667px;line-height:1.25;font-family:made;-inkscape-font-specification:made;letter-spacing:0px;word-spacing:0px;stroke-width:0.264583"
       transform="translate(-113.08806,-70.857583)">
      <path
         d="m 160.87176,262.69752 q 0.0847,-0.0423 0.22013,0.0169 0.14393,0.0508 0.27093,0.16087 0.127,0.11006 0.2032,0.254 0.0762,0.14393 0.0339,0.2794 -0.0423,0.11853 -0.16933,0.381 -0.11854,0.26246 -0.27094,0.60113 -0.1524,0.3302 -0.29633,0.6858 -0.14393,0.3556 -0.2286,0.65193 -0.0847,0.29634 -0.0847,0.49107 0,0.18627 0.1524,0.19473 h 0.1016 q 0.2794,-0.0847 0.52494,-0.29633 0.24553,-0.21167 0.44873,-0.4826 0.21167,-0.27093 0.38947,-0.56727 0.18626,-0.29633 0.33866,-0.55033 0.16087,-0.42333 0.31327,-0.88053 0.1524,-0.4572 0.29633,-0.9398 0.0847,-0.0423 0.22014,0.0169 0.14393,0.0508 0.27093,0.16087 0.127,0.11006 0.2032,0.254 0.0762,0.14393 0.0339,0.2794 l -1.25307,3.03106 q -0.19473,0.47414 -0.38947,0.889 -0.18626,0.42334 -0.38946,0.79587 0.3556,0.19473 0.69426,0.41487 0.33867,0.2286 0.66887,0.4572 0.0931,0.0677 0.0169,0.14393 -0.0677,0.0847 -0.2032,0.14394 -0.13546,0.0677 -0.28786,0.1016 -0.14394,0.0339 -0.2032,0 -0.29634,-0.2032 -0.54187,-0.381 -0.24553,-0.1778 -0.47413,-0.3302 -0.24554,0.37253 -0.52494,0.6604 -0.2794,0.28786 -0.6096,0.4826 -0.3302,0.2032 -0.71966,0.3048 -0.39794,0.11006 -0.87207,0.11006 -0.27093,0 -0.5334,-0.0593 -0.26247,-0.0508 -0.46567,-0.16934 -0.21166,-0.11853 -0.33866,-0.31326 -0.13547,-0.18627 -0.13547,-0.46567 0,-0.37253 0.18627,-0.69427 0.1778,-0.31327 0.4826,-0.55033 0.3048,-0.2286 0.70273,-0.36407 0.39793,-0.127 0.8382,-0.127 0.2794,0 0.49107,0.0169 0.22013,0.0254 0.4064,0.0593 0.18626,0.0423 0.3556,0.0931 0.1778,0.0593 0.37253,0.13547 0.2032,-0.381 0.38947,-0.7874 0.18626,-0.4064 0.3556,-0.8382 l 0.18626,-0.47413 q -0.16933,0.24553 -0.36406,0.47413 -0.19474,0.2286 -0.42334,0.42333 -0.0593,0.0508 -0.1524,0.11854 -0.0931,0.0677 -0.21166,0.127 -0.11007,0.0508 -0.24554,0.0931 -0.127,0.0339 -0.2794,0.0339 -0.1778,-0.008 -0.3048,-0.1016 -0.11853,-0.0931 -0.18626,-0.24554 -0.0677,-0.1524 -0.0762,-0.34713 -0.008,-0.19473 0.0339,-0.41487 0.0593,-0.3048 0.19474,-0.71966 0.13546,-0.41487 0.29633,-0.84667 0.16087,-0.44027 0.3048,-0.85513 0.1524,-0.42334 0.23707,-0.7366 z m -2.25214,7.25593 q 0.33867,0 0.64347,-0.127 0.29633,-0.11853 0.56727,-0.33866 0.2794,-0.21167 0.52493,-0.51647 0.24553,-0.29633 0.47413,-0.6604 -0.28786,-0.11854 -0.6096,-0.18627 -0.31326,-0.0677 -0.71966,-0.0762 -0.31327,0 -0.6604,0.0677 -0.34714,0.0677 -0.635,0.2032 -0.28787,0.14394 -0.47414,0.36407 -0.18626,0.22014 -0.16933,0.51647 0,0.2286 0.1016,0.37253 0.1016,0.14394 0.26247,0.2286 0.1524,0.0847 0.33866,0.11854 0.18627,0.0339 0.3556,0.0339 z"
         style="font-family:Ananda;-inkscape-font-specification:Ananda"
         id="path486" />
      <path
         d="m 170.13428,265.34758 q -0.11853,0.18627 -0.32173,0.46567 -0.19474,0.27093 -0.44027,0.52493 -0.24553,0.254 -0.51647,0.44027 -0.26246,0.1778 -0.52493,0.1778 -0.14393,0 -0.28787,-0.0508 -0.13546,-0.0508 -0.23706,-0.1524 -0.1016,-0.1016 -0.16087,-0.26247 -0.0593,-0.16086 -0.0508,-0.381 0.008,-0.22013 0.0593,-0.4318 0.0508,-0.22013 0.127,-0.4572 0.0847,-0.24553 0.2032,-0.52493 0.11853,-0.28787 0.26246,-0.635 0.0931,-0.22013 0.14394,-0.39793 0.0508,-0.18627 0.0169,-0.27094 -0.0339,-0.0847 -0.1778,-0.0254 -0.13547,0.0508 -0.4318,0.3048 -0.3302,0.28787 -0.5842,0.5588 -0.254,0.26247 -0.49954,0.5842 -0.0677,0.14394 -0.127,0.29634 -0.0593,0.14393 -0.11853,0.3048 -0.11853,0.3556 -0.2032,0.72813 -0.0847,0.36407 -0.11007,0.75353 0,0.0593 -0.0931,0.0339 -0.0931,-0.0254 -0.21167,-0.0847 -0.11006,-0.0677 -0.2032,-0.1524 -0.0931,-0.0847 -0.1016,-0.1524 0.0254,-0.6096 0.21167,-1.20226 0.18627,-0.60114 0.4318,-1.21074 0.127,-0.3302 0.1778,-0.54186 0.0508,-0.22014 -0.0508,-0.24554 -0.0677,-0.008 -0.2032,0.0677 -0.13547,0.0677 -0.36407,0.26246 -0.3302,0.29634 -0.5842,0.56727 -0.254,0.27093 -0.52493,0.60113 -0.21167,0.49107 -0.3556,0.99907 -0.14393,0.49953 -0.18627,1.05833 0,0.0593 -0.0931,0.0339 -0.0931,-0.0254 -0.21167,-0.0847 -0.11006,-0.0677 -0.2032,-0.1524 -0.0931,-0.0847 -0.1016,-0.1524 0.0254,-0.49953 0.1524,-0.97366 0.13547,-0.4826 0.3048,-0.95674 0.16934,-0.4826 0.3556,-0.95673 0.18627,-0.47413 0.3302,-0.95673 0.0847,-0.0423 0.22014,0.0169 0.14393,0.0508 0.27093,0.16087 0.127,0.11006 0.2032,0.254 0.0762,0.14393 0.0339,0.2794 -0.0254,0.0931 -0.0677,0.1778 -0.0423,0.0847 -0.0931,0.1778 0.1778,-0.19474 0.381,-0.381 0.2032,-0.18627 0.41487,-0.3302 0.21166,-0.1524 0.4318,-0.24554 0.22013,-0.0931 0.44873,-0.11006 0.0931,0 0.19474,0.0762 0.11006,0.0677 0.18626,0.1778 0.0847,0.1016 0.127,0.22013 0.0423,0.11853 0.008,0.21167 -0.0423,0.11006 -0.0931,0.21166 -0.0508,0.1016 -0.1016,0.21167 0.1778,-0.2032 0.381,-0.39793 0.2032,-0.19474 0.42333,-0.34714 0.22013,-0.1524 0.44873,-0.24553 0.23707,-0.1016 0.47414,-0.11853 0.0847,0 0.18626,0.0762 0.11007,0.0677 0.18627,0.1778 0.0847,0.1016 0.127,0.22013 0.0423,0.11853 0,0.21167 -0.21167,0.57573 -0.38947,0.97366 -0.16933,0.38947 -0.3048,0.70274 -0.13546,0.3048 -0.22013,0.59266 -0.0847,0.2794 -0.11007,0.635 0,0.0254 0.008,0.0593 0.008,0.0339 0.0339,0.0593 0.0339,0.0254 0.0847,0.0254 0.0593,0 0.1524,-0.0423 0.26247,-0.11853 0.60114,-0.41486 0.33866,-0.29634 0.66886,-0.7874 0.127,-0.18627 0.2286,-0.36407 0.11007,-0.18627 0.2032,-0.3556 0.0339,-0.0423 0.0762,-0.0423 0.0508,-0.008 0.0847,0.0169 0.0423,0.0254 0.0593,0.0677 0.0169,0.0423 -0.0169,0.1016 l -0.44873,0.7366 z"
         style="font-family:Ananda;-inkscape-font-specification:Ananda"
         id="path488" />
      <path
         d="m 171.68367,263.53572 q 0.19473,-0.1778 0.41486,-0.3302 0.22014,-0.16087 0.44874,-0.27094 0.23706,-0.11853 0.46566,-0.1778 0.23707,-0.0593 0.44874,-0.0339 0.33866,0.0423 0.51646,0.22013 0.1778,0.1778 0.24554,0.42333 0.0677,0.23707 0.0423,0.508 -0.0254,0.27094 -0.0931,0.508 -0.14394,0.47414 -0.4064,0.93134 -0.26247,0.44873 -0.6096,0.80433 -0.33867,0.3556 -0.75354,0.57573 -0.41486,0.22014 -0.85513,0.2286 -0.4572,0.008 -0.67733,-0.16933 -0.22014,-0.18627 -0.28787,-0.4572 -0.0169,-0.0423 -0.0254,-0.0847 -0.008,-0.0508 -0.0169,-0.1016 -0.2032,0.4064 -0.42334,0.8128 -0.21166,0.4064 -0.38946,0.8128 -0.1778,0.41487 -0.3048,0.84667 -0.13547,0.44027 -0.16934,0.9144 0,0.0677 -0.0847,0.0423 -0.0931,-0.0254 -0.2032,-0.0931 -0.11007,-0.0593 -0.20321,-0.1524 -0.1016,-0.0847 -0.11006,-0.1524 0.0254,-0.508 0.18627,-1.03293 0.16086,-0.51647 0.39793,-1.04987 0.2286,-0.52493 0.49107,-1.05833 0.254,-0.5334 0.47413,-1.07527 v 0.008 q 0.1016,-0.28787 0.21167,-0.5842 0.11853,-0.3048 0.2286,-0.59267 0.11853,-0.29633 0.21166,-0.56727 0.0931,-0.27093 0.1524,-0.49106 0.0847,-0.0423 0.22014,0.0169 0.14393,0.0508 0.27093,0.16087 0.127,0.11006 0.2032,0.254 0.0762,0.14393 0.0339,0.2794 z m -0.77894,1.778 -0.0508,0.127 q -0.0254,0.13546 -0.0254,0.2794 0.008,0.14393 0.0593,0.27093 0.0508,0.127 0.1524,0.21167 0.11007,0.0847 0.28787,0.0931 0.26246,0.0254 0.5842,-0.19473 0.32173,-0.22014 0.62653,-0.5588 0.3048,-0.33867 0.55033,-0.7366 0.24554,-0.4064 0.36407,-0.75354 0.11853,-0.3556 0.0593,-0.59266 -0.0508,-0.24554 -0.34714,-0.26247 -0.2032,-0.008 -0.44026,0.0593 -0.2286,0.0677 -0.46567,0.19473 -0.2286,0.127 -0.4572,0.3048 -0.22013,0.1778 -0.39793,0.38947 -0.127,0.2794 -0.26247,0.60113 -0.13547,0.31327 -0.24553,0.6096 z"
         style="font-family:Ananda;-inkscape-font-specification:Ananda"
         id="path490" />
      <path
         d="m 177.99979,263.84052 q 0,0.0593 -0.0423,0.0931 -0.0423,0.0339 -0.0931,0.0423 -0.0423,0 -0.0762,-0.0339 -0.0339,-0.0339 -0.0339,-0.1016 -0.0169,-0.0847 -0.0339,-0.21167 -0.008,-0.13547 -0.0593,-0.254 -0.0423,-0.127 -0.14394,-0.22013 -0.1016,-0.0931 -0.29633,-0.1016 -0.23707,-0.008 -0.46567,0.0931 -0.22013,0.1016 -0.42333,0.2794 -0.2032,0.1778 -0.381,0.41487 -0.1778,0.2286 -0.32173,0.4826 -0.14394,0.24553 -0.254,0.49953 -0.1016,0.24553 -0.16087,0.4572 -0.0423,0.14393 -0.0677,0.34713 -0.0254,0.2032 0.0169,0.381 0.0423,0.16934 0.1778,0.26247 0.13547,0.0931 0.42333,0.0254 0.13547,-0.0339 0.3302,-0.19473 0.19474,-0.16087 0.38947,-0.37254 0.2032,-0.22013 0.381,-0.4572 0.1778,-0.23706 0.28787,-0.41486 0.0931,-0.24554 0.1524,-0.47414 0.0677,-0.2286 0.0847,-0.39793 0.0847,-0.0423 0.2286,0.0169 0.14394,0.0593 0.27094,0.16934 0.127,0.11006 0.2032,0.254 0.0762,0.14393 0.0339,0.2794 -0.0508,0.127 -0.127,0.3048 -0.0677,0.1778 -0.14393,0.36406 -0.0677,0.18627 -0.13547,0.37254 -0.0593,0.1778 -0.0847,0.3302 -0.0169,0.14393 0,0.23706 0.0254,0.0931 0.11853,0.1016 h 0.1016 q 0.28787,-0.0847 0.5334,-0.3048 0.254,-0.22013 0.46567,-0.49953 0.22013,-0.2794 0.39793,-0.5842 0.18627,-0.3048 0.33867,-0.5588 0.0254,-0.0423 0.0762,-0.0423 0.0508,-0.008 0.0847,0.0169 0.0423,0.0254 0.0593,0.0677 0.0169,0.0423 -0.0169,0.1016 -0.16933,0.26247 -0.3302,0.5334 -0.16087,0.27094 -0.33867,0.52494 -0.1778,0.254 -0.381,0.49106 -0.19473,0.23707 -0.4318,0.4318 -0.0593,0.0508 -0.1524,0.11854 -0.0847,0.0677 -0.2032,0.127 -0.11007,0.0593 -0.24553,0.1016 -0.127,0.0339 -0.2794,0.0254 -0.23707,-0.0169 -0.38947,-0.11854 -0.14393,-0.1016 -0.22013,-0.26246 -0.0762,-0.16087 -0.0847,-0.36407 0,-0.2032 0.0593,-0.41487 -0.16934,0.21167 -0.36407,0.41487 -0.18627,0.2032 -0.38947,0.36407 -0.2032,0.16086 -0.41486,0.26246 -0.21167,0.0931 -0.41487,0.0762 -0.36407,-0.0169 -0.56727,-0.16933 -0.19473,-0.16087 -0.28786,-0.37253 -0.0931,-0.21167 -0.11007,-0.44027 -0.008,-0.2286 0.0169,-0.381 0.0423,-0.29633 0.18627,-0.65193 0.14393,-0.3556 0.37253,-0.70274 0.2286,-0.3556 0.52494,-0.66886 0.3048,-0.32174 0.64346,-0.5334 0.34714,-0.22014 0.71967,-0.3048 0.37253,-0.0931 0.762,0.008 0.16933,0.0508 0.27093,0.16934 0.11007,0.11006 0.16934,0.27093 0.0593,0.1524 0.0762,0.33867 0.0169,0.1778 0.008,0.3556 z"
         style="font-family:Ananda;-inkscape-font-specification:Ananda"
         id="path492" />
    </g>
    <g
       transform="matrix(0.78282702,0,0,0.78282702,-64.238315,48.118247)"
       style="font-style:normal;font-variant:normal;font-weight:normal;font-stretch:normal;font-size:10.5833px;line-height:1.25;font-family:made;-inkscape-font-specification:made;letter-spacing:0px;word-spacing:0px;fill:#000000;fill-opacity:1;stroke:none;stroke-width:0.264583"
       id="text979-0-8-8-8"
       aria-label="r">
      <path
         id="path1041-9-4"
         style="font-style:normal;font-variant:normal;font-weight:normal;font-stretch:normal;font-family:Ananda;-inkscape-font-specification:Ananda;fill:#000000;stroke-width:0.264583"
         d="m 176.6345,187.33769 q -0.22225,0.3175 -0.508,0.64558 -0.28574,0.32808 -0.61383,0.59266 -0.32808,0.26458 -0.69849,0.43392 -0.37042,0.15875 -0.762,0.13758 -0.40217,-0.0212 -0.59267,-0.29633 -0.1905,-0.27517 -0.17991,-0.635 0.0106,-0.32808 0.11641,-0.61383 0.10584,-0.28575 0.26459,-0.55033 0.16933,-0.27517 0.35983,-0.53975 0.20108,-0.26458 0.41275,-0.55033 0.13758,-0.1905 0.27516,-0.37042 0.13759,-0.1905 0.23284,-0.32808 0.0952,-0.14817 0.13758,-0.23283 0.0423,-0.0847 0,-0.0741 -0.15875,0.0212 -0.27517,0.0529 -0.10583,0.0212 -0.20108,0.0529 -0.0952,0.0212 -0.20108,0.0318 -0.10584,0.0106 -0.254,0.0106 -0.0529,0 -0.10584,0 -0.0529,0 -0.10583,-0.0106 -0.24341,0.33866 -0.46566,0.67733 -0.22225,0.33866 -0.42334,0.65616 -0.0318,0.0529 -0.0952,0.0635 -0.0529,0 -0.0953,-0.0212 -0.0423,-0.0318 -0.0635,-0.0847 -0.0212,-0.0635 0.0318,-0.13758 0.21166,-0.33867 0.39158,-0.64558 0.1905,-0.3175 0.40216,-0.635 -0.1905,-0.15875 -0.13758,-0.42333 0.0529,-0.27517 0.21167,-0.5715 0.15875,-0.30692 0.33866,-0.58208 0.17992,-0.27517 0.24342,-0.4445 0.127,0.0529 0.254,0.13758 0.13758,0.0741 0.22225,0.1905 0.0847,0.10583 0.10583,0.27516 0.0212,0.15875 -0.0741,0.39159 l -0.4445,0.64558 q -0.0423,0.0635 0.0741,0.0423 0.11642,-0.0212 0.32808,-0.0847 0.21167,-0.0741 0.46567,-0.16934 0.26458,-0.10583 0.508,-0.21166 0.24341,-0.10584 0.42333,-0.20109 0.1905,-0.10583 0.24341,-0.16933 0.0317,0 0.0847,0.0423 0.0635,0.0423 0.127,0.0952 0.0741,0.0529 0.127,0.10584 0.0529,0.0529 0.0635,0.0635 0.10583,0.15875 -0.0106,0.42333 -0.10584,0.254 -0.33867,0.59266 -0.23283,0.33867 -0.55033,0.73025 -0.3175,0.381 -0.62442,0.79375 -0.10583,0.127 -0.23283,0.30691 -0.127,0.16934 -0.24341,0.35984 -0.11642,0.17991 -0.20109,0.35983 -0.0847,0.17991 -0.10583,0.32808 -0.0212,0.14817 0.0423,0.24342 0.0741,0.0847 0.27517,0.0952 0.13758,0.0106 0.32808,-0.0741 0.20108,-0.0952 0.42333,-0.254 0.22225,-0.16933 0.4445,-0.39158 0.22225,-0.22225 0.40217,-0.47625 0.21166,-0.30691 0.381,-0.59266 0.17991,-0.28575 0.29633,-0.49742 0.0423,-0.0529 0.0952,-0.0529 0.0635,-0.0106 0.10583,0.0212 0.0529,0.0317 0.0635,0.0847 0.0212,0.0529 -0.0212,0.127 -0.17991,0.27517 -0.33866,0.56091 -0.15875,0.28575 -0.33867,0.55034 z" />
    </g>
    <g
       transform="matrix(0.76991911,0.1415723,-0.1415723,0.76991911,-35.726657,26.145524)"
       style="font-style:normal;font-variant:normal;font-weight:normal;font-stretch:normal;font-size:10.5833px;line-height:1.25;font-family:made;-inkscape-font-specification:made;letter-spacing:0px;word-spacing:0px;fill:#000000;fill-opacity:1;stroke:none;stroke-width:0.264583"
       id="text979-8-3-0-5"
       aria-label=".f">
      <path
         id="path1044-6-0"
         style="font-style:normal;font-variant:normal;font-weight:normal;font-stretch:normal;font-family:'Best Valentina';-inkscape-font-specification:'Best Valentina';fill:#000000;stroke-width:0.264583"
         d="m 168.63649,187.037 c -0.26458,-0.0212 -0.508,0.17991 -0.52917,0.44449 -0.0212,0.26459 0.17992,0.508 0.4445,0.52917 0.27517,0.0212 0.508,-0.17992 0.52917,-0.4445 0.0212,-0.27516 -0.17992,-0.508 -0.4445,-0.52916 z" />
      <path
         sodipodi:nodetypes="scssccccccsccscccc"
         id="path1046-1-3"
         style="font-style:normal;font-variant:normal;font-weight:normal;font-stretch:normal;font-family:'Best Valentina';-inkscape-font-specification:'Best Valentina';fill:#000000;stroke-width:0.264583"
         d="m 170.61689,187.73549 c 0.0423,-0.45508 0.0635,-1.49224 0.127,-2.60349 0.77258,-0.96308 1.56633,-2.10607 1.56633,-3.38665 0,-0.46567 -0.16934,-0.97367 -0.73025,-0.97367 -1.16416,0 -1.57691,2.13783 -1.74625,3.77824 -0.17991,1.78858 -0.94191,8.05389 1.2065,8.05389 1.83091,0.0106 0.29633,-3.84174 -0.16933,-4.61432 1.25941,-0.0952 2.14629,-1.19915 2.41659,-2.03686 -0.008,-0.13906 -0.22068,-0.1038 -0.32347,0.0351 -0.34312,0.74905 -0.99671,1.61958 -2.34712,1.74775 z m 1.05833,-6.44523 c 0.29633,0 0.37041,0.20109 0.37041,0.45509 0.0106,1.06891 -0.64558,2.10607 -1.26999,2.92099 0.0317,-0.52917 0.0952,-3.37608 0.89958,-3.37608 z m -0.60325,10.84789 c -0.77258,0.0212 -0.49742,-3.59833 -0.47625,-4.07457 0.381,0.56091 1.79916,4.04282 0.47625,4.07457 z" />
    </g>
  </g>
</svg>
