<?xml version="1.0" encoding="UTF-8" standalone="no"?>
<!-- Created with Inkscape (http://www.inkscape.org/) -->

<svg
   width="16.052845mm"
   height="14.85979mm"
   viewBox="0 0 16.052845 14.85979"
   version="1.1"
   id="svg1203"
   inkscape:version="1.1.1 (3bf5ae0d25, 2021-09-20)"
   sodipodi:docname="logo_square.svg"
   xmlns:inkscape="http://www.inkscape.org/namespaces/inkscape"
   xmlns:sodipodi="http://sodipodi.sourceforge.net/DTD/sodipodi-0.dtd"
   xmlns="http://www.w3.org/2000/svg"
   xmlns:svg="http://www.w3.org/2000/svg">
  <sodipodi:namedview
     id="namedview1205"
     pagecolor="#ffffff"
     bordercolor="#666666"
     borderopacity="1.0"
     inkscape:pageshadow="2"
     inkscape:pageopacity="0.0"
     inkscape:pagecheckerboard="0"
     inkscape:document-units="mm"
     showgrid="false"
     fit-margin-top="0"
     fit-margin-left="0"
     fit-margin-right="0"
     fit-margin-bottom="0"
     inkscape:zoom="0.56123737"
     inkscape:cx="-446.33521"
     inkscape:cy="220.04949"
     inkscape:window-width="1920"
     inkscape:window-height="1007"
     inkscape:window-x="0"
     inkscape:window-y="0"
     inkscape:window-maximized="1"
     inkscape:current-layer="layer1" />
  <defs
     id="defs1200" />
  <g
     inkscape:label="Layer 1"
     inkscape:groupmode="layer"
     id="layer1"
     transform="translate(-71.645006,-90.155818)">
    <g
       aria-label="T"
       id="text879-8-9-0"
       style="font-size:10.5833px;line-height:1.25;font-family:made;-inkscape-font-specification:made;letter-spacing:0px;word-spacing:0px;fill:#784421;stroke-width:0.264583"
       transform="translate(-94.845855,-144.51312)">
      <path
         d="m 168.87704,242.88225 q 0,0.0952 -0.15875,0.0847 -0.14817,-0.0106 -0.34925,-0.0635 -0.20108,-0.0635 -0.381,-0.14817 -0.17991,-0.0952 -0.22225,-0.16933 -0.0106,-0.70908 0.17992,-1.27 0.20108,-0.56091 0.51858,-0.99483 0.3175,-0.43391 0.73025,-0.75141 0.42333,-0.3175 0.86783,-0.55033 0.4445,-0.23283 0.889,-0.381 0.44449,-0.15875 0.82549,-0.26458 0.66675,-0.17992 1.37583,-0.254 0.71967,-0.0741 1.43933,-0.0741 0.60325,0 1.24883,0.0317 0.64558,0.0318 1.21708,0.0847 0.508,0.0423 1.016,0.0741 0.50799,0.0212 0.96308,0.0212 0.56091,0 1.03716,-0.0635 0.47625,-0.0635 0.87841,-0.24341 0.0741,-0.0317 0.0847,0.0953 0.0106,0.12699 -0.0212,0.29633 -0.0317,0.16933 -0.0952,0.33866 -0.0529,0.15875 -0.127,0.21167 -0.42333,0.14817 -0.93133,0.22225 -0.49741,0.0635 -1.01599,0.0635 -0.58208,0 -1.2065,-0.0529 -0.61383,-0.0635 -1.24883,-0.127 -0.67733,-0.0741 -1.37583,-0.13758 -0.68791,-0.0635 -1.37583,-0.0635 -0.43391,0 -0.85724,0.0317 -0.41275,0.0318 -0.83608,0.11642 -0.5715,0.10583 -1.11125,0.35983 -0.52917,0.254 -0.9525,0.71966 -0.42333,0.45508 -0.6985,1.16417 -0.26458,0.69849 -0.30691,1.69332 z m 4.9424,-3.69357 q 0.0529,-0.0847 0.254,-0.0212 0.21166,0.0529 0.42333,0.20108 0.22225,0.13758 0.37042,0.34925 0.14816,0.20108 0.0741,0.40216 -0.52917,0.64558 -1.04775,1.40758 -0.51858,0.75142 -0.99483,1.55575 -0.47625,0.79374 -0.88899,1.60866 -0.41275,0.81491 -0.73025,1.58749 -0.3175,0.77258 -0.52917,1.47108 -0.21166,0.6985 -0.27516,1.24883 -0.0106,0.0741 -0.13759,-0.0212 -0.127,-0.0847 -0.28575,-0.24341 -0.14816,-0.14817 -0.27516,-0.3175 -0.11642,-0.16933 -0.127,-0.26458 0.0317,-0.56092 0.24342,-1.29117 0.21166,-0.73024 0.53974,-1.53457 0.33867,-0.80434 0.762,-1.651 0.42333,-0.85725 0.87842,-1.66158 0.45508,-0.80433 0.89958,-1.53458 0.45508,-0.73024 0.84666,-1.29116 z"
         style="font-family:'Ananda Black';-inkscape-font-specification:'Ananda Black, '"
         id="path547" />
    </g>
    <g
       aria-label="U"
       transform="rotate(19.823135,366.09555,-343.65416)"
       id="text914-2-6-3"
       style="font-size:5.64444px;line-height:1.25;font-family:made;-inkscape-font-specification:made;letter-spacing:0px;word-spacing:0px;stroke-width:0.264583">
      <path
         d="m 251.02834,162.75019 q 0.0689,-0.003 0.14056,-0.0248 0.98116,-0.62287 0.82407,-1.78042 -0.14056,-1.03077 -1.05007,-1.95406 0.14332,0.17915 0.0882,0.46027 -0.0413,0.21222 -0.21498,0.55121 -0.4575,0.88746 -0.46853,1.07212 -0.0579,0.48231 0.0854,1.01423 0.18466,0.67248 0.5898,0.66146 z m 0.80478,-1.6564 -0.0992,0.22324 -0.113,0.22049 -0.0386,0.0634 q -0.0165,0.0248 -0.0193,0.022 -0.006,-0.003 0.006,-0.0276 l 0.0303,-0.0689 0.11575,-0.21773 0.11025,-0.21773 0.0358,-0.0661 q 0.011,-0.0248 0.011,-0.0221 -0.006,0.0138 -0.008,0.0221 z m -0.14056,-0.65044 q -0.006,0.0276 -0.0744,0.20395 -0.0854,0.16537 -0.10473,0.19293 l -0.0358,0.0551 q -0.0138,0.022 -0.0193,0.0193 -0.003,-0.003 0.008,-0.0276 l 0.0303,-0.0551 q 0.022,-0.0358 0.0524,-0.0965 0.0386,-0.0717 0.0496,-0.0965 0.0909,-0.20671 0.0882,-0.19844 l 0.0248,-0.0634 q 0.008,-0.0165 0.008,-0.0193 -0.003,0.0138 -0.006,0.022 z m -0.45476,0.68075 -0.18465,-0.33072 q -0.20671,-0.34727 -0.19293,-0.32522 l -0.0634,-0.0965 q -0.006,-0.011 -0.0193,-0.0358 0.0165,0.0221 0.0248,0.0303 l 0.0689,0.0965 q 0.0386,0.0469 0.21221,0.31143 0.1571,0.27285 0.18466,0.33349 l 0.0496,0.0992 q 0.0165,0.0413 0.011,0.0441 -0.006,0.003 -0.0331,-0.0331 z m -0.0386,1.42214 q 0.0689,-0.12127 0.10473,-0.24805 l 0.0331,-0.17087 q -0.0303,-0.11025 -0.13504,-0.23978 -0.0937,-0.10749 -0.25908,-0.24529 l -0.0854,-0.0717 q -0.0276,-0.0248 -0.0276,-0.0248 0.022,0.0138 0.0303,0.022 l 0.0909,0.0662 q 0.17639,0.12953 0.27561,0.23426 0.0827,0.091 0.12127,0.17915 0.0303,-0.23427 0.0331,-0.66421 -0.003,-0.34176 -0.0469,-0.92605 l -0.0331,-0.28663 q -0.0138,-0.0965 -0.0138,-0.0965 0.0138,0.0634 0.0221,0.0937 0.0221,0.11851 0.0469,0.28663 0.0689,0.57602 0.0827,0.9288 0.011,0.55672 -0.0579,0.84611 -0.003,0.0386 -0.0138,0.0662 l -0.003,0.008 -0.003,0.011 q -0.0441,0.1378 -0.13229,0.25356 -0.0882,0.0772 -0.0937,0.0689 -0.006,-0.011 0.0634,-0.0909 z"
         style="font-family:Leafs;-inkscape-font-specification:Leafs;fill:#008000"
         id="path544" />
    </g>
    <g
       aria-label="Y"
       transform="rotate(-11.487459,-765.79213,399.21857)"
       id="text918-9-6-0"
       style="font-size:4.23333px;line-height:1.25;font-family:made;-inkscape-font-specification:made;letter-spacing:0px;word-spacing:0px;stroke-width:0.264583"
       inkscape:transform-center-x="-1.0022607"
       inkscape:transform-center-y="-0.13363477">
      <path
         d="m 115.59333,267.65883 q 0.0889,0.0331 0.12609,0.0372 0.0372,0.004 0.0951,0.008 -0.062,-0.13436 -0.0951,-0.23151 -0.031,-0.0971 -0.0765,-0.31212 0.031,0.0248 0.0847,0.0475 0.0537,0.0207 0.0765,0.0207 -0.0475,-0.14469 -0.0703,-0.23358 -0.0227,-0.0868 -0.0517,-0.23564 0.0289,0.031 0.0806,0.0475 0.0517,0.0145 0.0806,0 -0.0413,-0.13436 -0.0455,-0.22324 -0.006,-0.0868 0,-0.20051 0.1881,0.0641 0.28319,0.12403 0.0971,0.062 0.22324,0.18603 0.0207,-0.0496 0.0269,-0.0992 0.006,-0.0475 0,-0.15916 0.14263,0.10749 0.20464,0.16743 0.0599,0.06 0.14056,0.20671 0.0248,-0.0227 0.031,-0.0724 0.006,-0.0496 0.004,-0.10542 0.1819,0.14469 0.27492,0.22944 0.093,0.0847 0.2005,0.26665 0.0145,-0.0765 0.0207,-0.12402 0.006,-0.0475 0.0103,-0.10955 0.10128,0.13022 0.16536,0.22531 0.062,0.0971 0.13643,0.26251 0.0124,-0.0331 0.0331,-0.0765 0.0186,-0.0413 0.0372,-0.0827 0.0806,0.21291 0.0951,0.29145 0.0145,0.0785 0.0351,0.26252 0.0434,-0.0351 0.0703,-0.0889 0.0269,-0.0517 0.0434,-0.0972 0.0124,0.25218 -0.0248,0.54364 -0.0723,0.57878 -0.31626,0.76894 -0.0641,0.0476 -0.14262,0.0889 -0.0145,-0.0744 -0.0351,-0.1509 0.15503,-0.22944 0.2005,-0.3886 0.0847,-0.29766 0.06,-0.40721 -0.0207,0.25424 -0.12403,0.45682 -0.0992,0.19223 -0.15916,0.25838 -0.0496,-0.1509 -0.12816,-0.32453 -0.0145,-0.0289 -0.0289,-0.0579 0.1385,-0.23978 0.15503,-0.39894 0.0289,-0.30592 -0.008,-0.41754 0.0207,0.23151 -0.0641,0.49402 -0.0331,0.10129 -0.12403,0.23771 -0.0951,-0.1881 -0.22737,-0.39894 0.10542,-0.22324 0.10542,-0.3638 0.004,-0.26045 -0.0351,-0.35347 0.0331,0.19637 -0.0207,0.42582 -0.0186,0.0827 -0.0951,0.22944 -0.29765,-0.40721 -0.65112,-0.77308 0.27285,0.3452 0.50023,0.71107 -0.11783,0.006 -0.1819,-0.0124 -0.17364,-0.0496 -0.28319,-0.15503 0.0413,0.0682 0.21084,0.17156 0.093,0.0558 0.29145,0.0579 0.0455,0.0765 0.0827,0.14056 0.0744,0.11989 0.13642,0.23358 -0.19017,0.0331 -0.27698,0.0248 -0.24598,-0.0227 -0.42375,-0.13229 0.0744,0.0786 0.33073,0.1695 0.14056,0.0517 0.41134,0.0124 0.062,0.11576 0.11162,0.22531 0.0393,0.0889 0.0703,0.17157 -0.16123,0.0289 -0.28318,0.0145 -0.28732,-0.0331 -0.45476,-0.10955 0.0806,0.0723 0.35554,0.1633 0.17983,0.0599 0.41134,0.0124 0.0496,0.14676 0.0724,0.27905 -0.37,0.15297 -0.79582,0.12403 0.0455,-0.0248 0.0868,-0.0848 0.0434,-0.0579 0.0331,-0.062 -0.091,0.0248 -0.25425,-0.006 -0.16329,-0.031 -0.27491,-0.13849 0.0413,-0.002 0.0744,-0.0227 0.0351,-0.0207 0.0434,-0.0434 -0.0909,-0.0331 -0.16537,-0.0806 -0.0744,-0.0475 -0.20877,-0.17363 0.0765,0.006 0.10542,-0.004 0.031,-0.0103 0.0434,-0.0413 -0.10542,-0.0723 -0.16537,-0.16329 -0.062,-0.091 -0.0951,-0.22118 0.0289,0.0145 0.0744,0.0103 0.0434,-0.004 0.0476,-0.0289 -0.0868,-0.10542 -0.13023,-0.19017 -0.0413,-0.0847 -0.0765,-0.25218 z"
         style="font-family:Leafs;-inkscape-font-specification:Leafs;fill:#008000"
         id="path541" />
    </g>
    <g
       aria-label="S"
       id="text960-2-7"
       style="font-size:9.87777px;line-height:1.25;font-family:made;-inkscape-font-specification:made;letter-spacing:0px;word-spacing:0px;stroke-width:0.264583"
       transform="translate(-94.845855,-144.51312)">
      <path
         d="m 180.57004,242.4189 q -0.22718,0.14816 -0.45437,0.11853 -0.21731,-0.0296 -0.39511,-0.12841 -0.16793,-0.0988 -0.2667,-0.21731 -0.0889,-0.12841 -0.0593,-0.1778 0.20743,-0.0988 0.45438,-0.28646 0.24694,-0.18767 0.46425,-0.41486 0.21731,-0.22719 0.37536,-0.47414 0.15804,-0.24694 0.18767,-0.45437 0.0395,-0.21731 -0.0889,-0.37536 -0.11853,-0.15804 -0.46425,-0.20743 -0.33584,-0.0395 -0.79022,0 -0.45438,0.0395 -0.93839,0.16792 -0.47413,0.12841 -0.93839,0.34572 -0.46425,0.20743 -0.81985,0.49389 -0.34573,0.28646 -0.54328,0.66181 -0.19756,0.36548 -0.14817,0.8001 0.0395,0.39511 0.24695,0.75071 0.20743,0.3556 0.48401,0.69144 0.28645,0.33585 0.60254,0.67169 0.31609,0.32597 0.57291,0.67169 0.25682,0.34572 0.40499,0.72108 0.15805,0.37535 0.11853,0.8001 -0.0494,0.52352 -0.39511,1.0668 -0.34572,0.54327 -0.90875,0.96802 -0.55316,0.43462 -1.27423,0.69144 -0.72108,0.2667 -1.5113,0.21731 -0.41487,-0.0197 -0.89888,-0.15804 -0.48401,-0.12841 -0.89888,-0.38523 -0.41486,-0.24695 -0.70132,-0.6223 -0.27658,-0.37536 -0.29633,-0.87912 -0.0198,-0.5334 0.24694,-1.01742 0.2667,-0.49388 0.93839,-0.95814 0.0494,-0.0395 0.22719,0.0198 0.18768,0.0494 0.38523,0.14816 0.19756,0.0889 0.34572,0.19756 0.15805,0.10865 0.13829,0.16792 -0.23706,0.12841 -0.49389,0.2667 -0.24694,0.13829 -0.45437,0.31609 -0.20744,0.16792 -0.34572,0.39511 -0.12842,0.22719 -0.12842,0.5334 0,0.42474 0.18768,0.69144 0.18768,0.25683 0.48401,0.40499 0.29634,0.14817 0.65194,0.19756 0.36547,0.0494 0.72107,0.0494 0.60255,0 1.10631,-0.16793 0.51365,-0.15804 0.87912,-0.45437 0.36548,-0.29634 0.56304,-0.72108 0.20743,-0.42474 0.20743,-0.94827 -0.01,-0.37535 -0.19755,-0.7112 -0.18768,-0.34572 -0.46426,-0.66181 -0.2667,-0.31609 -0.58279,-0.61242 -0.30621,-0.30621 -0.56303,-0.6223 -0.25682,-0.32596 -0.41487,-0.66181 -0.14816,-0.34572 -0.10865,-0.74083 0.0494,-0.46426 0.30621,-0.89888 0.25682,-0.43462 0.65193,-0.80998 0.40499,-0.38523 0.91863,-0.69144 0.52353,-0.31609 1.08656,-0.52352 0.57291,-0.21731 1.16558,-0.31609 0.59266,-0.10866 1.14582,-0.079 0.45437,0.0296 0.70132,0.21731 0.24694,0.18768 0.33584,0.47413 0.0988,0.27658 0.0593,0.6223 -0.0395,0.34572 -0.15805,0.69145 -0.11853,0.33584 -0.29633,0.64205 -0.1778,0.30621 -0.36548,0.50377 z"
         style="font-family:Ananda;-inkscape-font-specification:Ananda;fill:#008000"
         id="path532" />
    </g>
    <g
       aria-label="X"
       id="text952-3-1-2"
       style="font-size:4.23333px;line-height:1.25;font-family:made;-inkscape-font-specification:made;letter-spacing:0px;word-spacing:0px;stroke-width:0.264583"
       transform="translate(-94.845855,-144.51312)">
      <path
         d="m 175.37232,249.07021 q -0.0331,0.0682 -0.1881,0.0971 -0.22945,0.031 -0.55191,0 -0.006,-0.0165 -0.0124,-0.0289 -0.0413,-0.093 0.0145,-0.13849 0.0413,-0.0372 0.13849,-0.0538 0.0724,-0.0103 0.32867,-0.0124 0.11162,0 0.17156,-0.006 0.0413,-0.006 0.0537,-0.008 0.0682,0.0889 0.0455,0.1509 z m 0.12816,-0.58498 q -0.0269,-0.0971 -0.10542,-0.25838 -0.0248,-0.0538 -0.062,-0.12403 -0.0951,-0.1757 -0.10336,-0.1881 0.002,-0.008 0.004,-0.0124 0.0517,0.0103 0.0951,-0.0207 0,0 0,0 0.006,-0.004 0.0124,-0.0103 v 0 q 0.006,-0.006 0.0103,-0.0124 0.002,0 0.002,0 0,0 0,0 0.006,-0.008 0.0103,-0.0165 0.0496,-0.091 0.0475,-0.22325 -0.002,-0.1881 -0.12815,-0.34313 -0.002,-0.002 -0.002,-0.002 -0.002,-0.002 -0.002,-0.004 -0.0165,-0.0186 -0.0331,-0.0351 0,0 -0.0124,-0.0145 -0.0145,-0.0145 -0.0248,-0.0227 -0.002,-0.002 -0.0145,-0.0145 -0.0165,-0.0145 -0.0227,-0.0207 -0.006,-0.004 -0.0165,-0.0145 -0.0124,-0.0103 -0.0227,-0.0165 -0.008,-0.008 -0.0186,-0.0145 -0.0124,-0.008 -0.0227,-0.0165 -0.0103,-0.008 -0.0165,-0.0124 -0.0103,-0.006 -0.0227,-0.0145 -0.0145,-0.0103 -0.0165,-0.0103 -0.0103,-0.008 -0.0248,-0.0165 -0.0103,-0.006 -0.0145,-0.008 -0.0145,-0.008 -0.0289,-0.0165 -0.0145,-0.008 -0.0103,-0.006 -0.0289,-0.0165 -0.13022,-0.0723 l -0.0103,-0.004 q -0.002,-0.002 -0.0186,-0.0103 -0.004,-0.002 -0.0145,-0.008 -0.004,-0.002 -0.0145,-0.008 -0.006,-0.002 -0.0145,-0.008 -0.008,-0.004 -0.0145,-0.008 -0.0269,-0.0165 -0.0455,-0.031 -0.10542,-0.0868 -0.13436,-0.20051 0,-0.004 0,-0.006 -0.0537,0.26045 -0.0248,0.55604 0.062,0.59325 0.48576,0.77515 0,0 0,0 h 0.002 q -0.006,-0.002 0.0103,0.004 0.0145,0.004 0.0207,0.004 0.002,0.002 0.0124,0.004 0.0103,0.002 0.0145,0.002 0.008,0 0.0145,0.002 0.006,0 0.0124,0 h 0.0103 q 0.004,0 0.0124,-0.002 0.008,0 0.0103,0 0.008,-0.002 0.0165,-0.004 0,-0.002 0.008,-0.004 0.006,-0.002 0.006,-0.004 0.004,0 0.008,-0.004 0.008,-0.004 0.004,-0.002 v 0 q 0.0124,-0.008 0.0207,-0.0186 0.0289,0.0868 0.0765,0.1757 -0.004,-0.0103 0.0641,0.12195 0.0641,0.12196 0.10542,0.24185 0.0641,0.19224 -0.0413,0.31419 -0.0207,0.031 -0.0682,0.0475 -0.0124,-0.0145 -0.0227,-0.0269 -0.10956,-0.11782 -0.339,-0.27698 -0.14263,-0.0951 -0.42168,-0.25632 -0.10955,-0.0599 -0.2005,-0.0992 0,-0.008 0,-0.0124 0.0579,-0.006 0.0971,-0.0537 v 0 q 0,0 0,0 0.006,-0.006 0.0103,-0.0145 0,-0.002 0.002,-0.002 0.002,-0.006 0.006,-0.0145 0.002,-0.002 0.002,-0.004 0.004,-0.0103 0.006,-0.0186 0.0289,-0.11575 -0.006,-0.25631 -0.0517,-0.20257 -0.22945,-0.3266 -0.002,0 -0.002,-0.002 -0.0227,-0.0145 -0.0475,-0.031 0.002,0.002 -0.0186,-0.0103 -0.0207,-0.0103 -0.031,-0.0165 -0.002,-0.002 -0.0207,-0.0103 -0.0207,-0.0103 -0.031,-0.0145 -0.006,-0.004 -0.0207,-0.0103 -0.0186,-0.006 -0.0289,-0.0124 -0.0103,-0.002 -0.0227,-0.008 -0.0145,-0.004 -0.0289,-0.0103 -0.0145,-0.004 -0.0207,-0.006 -0.0124,-0.004 -0.031,-0.0103 -0.0186,-0.006 -0.0186,-0.006 -0.0103,-0.002 -0.031,-0.008 l -0.0186,-0.004 q -0.0165,-0.004 -0.0351,-0.008 -0.002,0 -0.006,-0.002 -0.004,0 -0.006,-0.002 -0.0393,-0.008 -0.15296,-0.031 -0.0145,-0.002 -0.0207,-0.004 -0.004,0 -0.0186,-0.004 -0.0124,-0.002 -0.0207,-0.004 -0.006,0 -0.0165,-0.004 -0.008,-0.002 -0.0186,-0.004 -0.0103,-0.002 -0.0165,-0.004 -0.0351,-0.008 -0.0579,-0.0186 -0.14883,-0.062 -0.2005,-0.1757 0.0103,0.29765 0.12195,0.60565 0.22325,0.61805 0.72761,0.67179 h 0.006 q 0.0186,0 0.0289,0 0.004,0 0.0145,-0.002 0.0124,0 0.0186,-0.002 0.006,0 0.0145,-0.002 0.006,-0.002 0.0124,-0.004 0.0103,-0.002 0.0124,-0.004 0.004,0 0.0124,-0.004 0.008,-0.004 0.0103,-0.004 0.002,-0.002 0.0103,-0.008 0.008,-0.004 0.0145,-0.0103 0.006,-0.004 0.006,-0.004 0.004,-0.004 0.008,-0.008 0.006,-0.006 0.004,-0.004 v 0 q 0.0145,-0.0186 0.0227,-0.0393 0.0765,0.0496 0.1819,0.10748 0.41754,0.24185 0.42374,0.24598 0.22738,0.14676 0.33487,0.25839 0,0.002 0.004,0.004 -0.008,0.002 -0.0248,0.004 -0.0579,0.0103 -0.16743,0.0145 -0.25839,0.0124 -0.33073,0.0269 -0.10129,0.0227 -0.1447,0.062 -0.031,0.0289 -0.0331,0.0785 0,0.0434 0.0186,0.0786 0.002,0.006 0.0103,0.0227 -0.0579,-0.006 -0.14263,-0.0145 -0.10749,-0.0145 -0.12816,-0.0165 -0.37207,-0.0517 -0.37207,-0.0496 0,-0.002 0.37001,0.0599 0.0207,0.004 0.13436,0.0207 0.0889,0.0124 0.14882,0.0207 0.0269,0.0475 0.10749,0.1447 0.0558,0.062 0.0579,0.0599 -0.002,0.002 -0.0558,-0.0641 -0.0744,-0.0951 -0.0992,-0.13849 0.31419,0.0393 0.5457,0.0145 0.0703,-0.0103 0.11576,-0.0289 0.0765,-0.031 0.10128,-0.0868 0.0269,-0.0641 -0.0124,-0.14262 -0.0103,-0.0165 -0.0227,-0.0372 0.0434,-0.0165 0.0703,-0.0517 0.0682,-0.0765 0.0786,-0.18397 0.008,-0.0847 -0.0186,-0.18603 z"
         style="font-family:Leafs;-inkscape-font-specification:Leafs;fill:#008000"
         id="path529" />
    </g>
    <g
       aria-label="R"
       transform="rotate(2.6869413,3033.5801,-2094.3592)"
       id="text956-9-2-2"
       style="font-size:4.23333px;line-height:1.25;font-family:made;-inkscape-font-specification:made;letter-spacing:0px;word-spacing:0px;stroke-width:0.264583">
      <path
         d="m 189.12309,236.79213 q 0.37827,-0.42167 0.45889,-0.8847 0.13436,-0.0558 0.22324,-0.0723 -0.0165,0.13849 0.091,0.1757 0.0165,-0.0248 0.0744,-0.0165 0.10956,0.0145 0.093,0.0145 0.0145,-0.0207 0.0847,-0.031 0.0951,-0.0124 0.10955,-0.0165 -0.0165,-0.0207 0.0558,-0.0517 0.0145,-0.006 0.06,-0.0227 0.0351,-0.0145 0.0475,-0.0207 -0.0269,-0.0103 0.0248,-0.0661 0.0145,-0.0186 0.0434,-0.0455 0.0289,-0.0289 0.0351,-0.0351 -0.0372,0.002 0.0227,-0.13229 0.0517,-0.11575 0.0868,-0.16536 -0.0455,0.0103 -0.19844,-0.0248 -0.15296,-0.0351 -0.13849,-0.0558 -0.008,0.002 -0.0517,0.008 -0.0413,0.004 -0.0661,0.006 -0.0806,0.006 -0.0765,-0.0186 -0.0124,0.006 -0.0455,0.0248 -0.0393,0.0248 -0.0537,0.0331 -0.0682,0.0372 -0.0786,0.0145 -0.0124,0.008 -0.0765,0.0703 -0.0476,0.0476 -0.0744,0.0476 -0.006,0.0103 -0.0165,0.0351 -0.0145,0.031 -0.0186,0.0413 -0.0269,0.0496 -0.0599,0.0475 -0.0227,0.0992 0.11369,0.15916 -0.11369,0.0393 -0.20878,0.0786 0.008,-0.0455 0.0124,-0.0951 0.002,0 0.004,0.002 0.004,0.002 0.006,0.002 l 0.0207,-0.004 q -0.004,-0.002 -0.031,-0.0124 0.0186,-0.24391 -0.0641,-0.46922 0.0186,-0.0145 0.0186,-0.0145 l 0.0475,-0.002 q 0.21291,0.0951 0.33487,-0.0186 -0.031,-0.0372 0.0145,-0.10748 0.008,-0.0124 0.0413,-0.0579 0.0248,-0.0351 0.0331,-0.0537 -0.0269,-0.0289 -0.002,-0.1261 0.031,-0.12815 0.031,-0.14882 -0.0413,0.0103 -0.0517,-0.0992 0,-0.0248 -0.002,-0.0909 -0.002,-0.0538 -0.006,-0.0744 -0.0331,0.0289 -0.0951,-0.0682 -0.0186,-0.0269 -0.0496,-0.0806 -0.0289,-0.0517 -0.0372,-0.0641 -0.0165,0.0475 -0.19843,-0.10336 -0.15917,-0.13022 -0.21911,-0.20463 -0.006,0.0661 -0.14883,0.24184 -0.14263,0.17777 -0.16743,0.14883 -0.002,0.008 -0.0165,0.0703 -0.0145,0.0558 -0.0248,0.0889 -0.0351,0.10749 -0.0724,0.0868 0,0.0207 0.0145,0.0724 0.0165,0.0661 0.0227,0.0889 0.0207,0.10749 -0.0207,0.10749 0.006,0.0186 0.0207,0.0496 h -0.002 q -0.0496,0.0207 -0.0248,0.0558 l 0.0413,0.0579 0.0661,0.0372 q 0.0145,0.0372 0.004,0.0599 0.0124,0.0124 0.0475,0.0414 0.0413,0.0331 0.0558,0.0475 0.0661,0.0599 0.0434,0.10128 0.11782,0.0682 0.26458,-0.0186 0.0724,0.21084 0.0599,0.43202 -0.0579,-0.0248 -0.0951,-0.0496 0.0889,-0.06 0.0579,-0.12816 -0.0227,0.004 -0.0475,-0.0269 -0.0434,-0.0579 -0.0372,-0.0496 -0.0186,0.002 -0.06,-0.0248 -0.0517,-0.0372 -0.062,-0.0413 -0.004,0.0165 -0.0579,-0.002 -0.0971,-0.0331 -0.0785,-0.0289 0.006,0.0165 -0.0517,0.0207 -0.0165,0.002 -0.0475,0.002 -0.031,0.002 -0.0372,0.002 0.0186,0.0145 -0.0889,0.0537 -0.0951,0.0331 -0.14056,0.0413 0.0289,0.0145 0.0848,0.10336 0.0537,0.0909 0.0351,0.093 0.004,0.002 0.0289,0.0207 0.0248,0.0165 0.0372,0.0269 0.0434,0.0351 0.0269,0.0455 -0.0165,-0.006 0.0827,0.0186 0.0558,0.0124 0.0455,0.0289 0.0124,0.002 0.0806,0 0.0517,0 0.0641,0.0124 0.008,-0.002 0.0289,-0.0103 0.0248,-0.008 0.0331,-0.0103 0.0413,-0.0124 0.0558,0.004 0.0703,-0.0393 0.0393,-0.13229 0.0455,0.0207 0.10335,0.0434 -0.031,0.51469 -0.47955,1.00045 z m 0.31006,-1.06866 q -0.0165,0 -0.0496,-0.0103 -0.093,0.0786 -0.24185,0.0951 -0.004,0.002 -0.006,-0.002 0,-0.002 0.002,-0.004 0.0248,-0.008 0.0661,-0.0207 0.0517,-0.0145 0.0661,-0.0207 0.0413,-0.0124 0.0744,-0.0331 0.0269,-0.0186 0.006,-0.0248 -0.0207,-0.006 -0.0351,-0.0103 -0.0227,-0.006 -0.0372,-0.0124 -0.031,-0.008 -0.0496,0.002 -0.0165,0.0103 -0.0455,0.0186 -0.10542,0.0351 -0.14469,0.0413 -0.004,0 -0.006,-0.002 -0.002,-0.002 0.002,-0.004 0.0207,-0.008 0.0992,-0.0331 0.062,-0.0186 0.0971,-0.0351 -0.0248,-0.008 -0.0786,-0.0248 -0.0455,-0.0124 -0.0537,-0.0124 0.002,0 -0.0145,0.0103 0.006,-0.004 -0.0558,0.0165 -0.0351,0.0103 -0.0661,0.0124 -0.004,0 -0.006,-0.002 0,-0.002 0.002,-0.004 0.0971,-0.0248 0.12609,-0.0413 -0.15917,-0.0475 -0.21911,-0.0661 -0.004,-0.002 -0.004,-0.004 0.002,-0.002 0.006,-0.002 0.031,0.002 0.22117,0.062 -0.0207,-0.0558 -0.0744,-0.0972 -0.002,-0.002 0,-0.004 0.002,0 0.006,0 0.0248,0.0103 0.0517,0.0434 0.0165,0.0248 0.0227,0.0331 0.0165,0.031 0.0124,0.0289 0.008,0.006 0.0227,0.0124 0.0186,0.006 0.0145,0.006 0.002,0 0.006,0 0.004,0.002 0.004,0.002 0.004,0.002 0.0124,0.004 0.008,0.002 0.0124,0.002 0.008,0.002 0.0269,0.008 0.0186,0.002 0.0269,0.006 -0.0124,-0.031 -0.0496,-0.0827 -0.0393,-0.0558 -0.0517,-0.0827 l 0.006,-0.002 q 0.0537,0.0537 0.0889,0.11575 0.0331,0.0579 0.031,0.0579 0.006,0.004 0.0165,0.008 0.0207,0.006 0.0537,0.0165 l 0.008,0.002 q 0.0207,0.004 0.031,0.006 0.006,0.002 0,-0.0227 -0.006,-0.0269 -0.031,-0.0641 -0.008,-0.0145 -0.0393,-0.0537 -0.0248,-0.0351 -0.0372,-0.0558 -0.002,-0.002 0.002,-0.004 0.002,-0.002 0.006,0.002 0.0662,0.0599 0.091,0.11575 0.004,0.008 0.008,0.0289 0.006,0.0207 0.0103,0.031 0.0165,0.0393 0.0558,0.0434 0.004,0 0.004,0.004 0,0.002 -0.004,0.002 z m 0.0351,-1.34152 q 0.0124,0.15296 0.0145,0.1695 0.0517,-0.0413 0.0868,-0.0972 l 0.0558,-0.11782 q 0,-0.008 0.008,-0.006 0.006,0.004 0.006,0.0103 0,0.0413 -0.0248,0.0889 l -0.0227,0.0393 q -0.0331,0.0517 -0.0496,0.0703 -0.0537,0.0599 -0.0496,0.0496 -0.008,0.0207 -0.008,0.0517 l 0.002,0.0289 q 0.002,0.0103 0.004,0.0227 0.002,0.008 0.004,0.0248 0.004,0.0165 0.004,0.0227 0.004,0.0145 0.0103,0.0517 0.008,0.0351 0.0124,0.0537 0.0517,-0.0496 0.13023,-0.1633 0.0847,-0.11989 0.13022,-0.16536 0.004,-0.004 0.008,0 0.006,0.004 0.004,0.0103 -0.0682,0.14263 -0.1695,0.26045 -0.0951,0.10955 -0.093,0.10542 -0.006,0.0186 -0.006,0.0393 0.008,0.0413 0.0145,0.10749 0.002,0.004 0.004,0.0145 0.008,0.0372 0.0124,0.0579 0.004,0.0186 0.0227,0.006 0.006,-0.004 0.0165,-0.0145 0.0103,-0.008 0.0145,-0.0103 0.0475,-0.0372 0.10542,-0.11163 0.0248,-0.031 0.0827,-0.11782 0.0517,-0.0765 0.0868,-0.11575 0.004,-0.006 0.0103,-0.002 0.006,0.004 0.002,0.0103 -0.0703,0.17364 -0.16744,0.26666 -0.0124,0.0145 -0.0537,0.0434 -0.0413,0.0289 -0.0599,0.0476 -0.0661,0.062 -0.0413,0.13229 0.002,0.008 -0.004,0.0124 -0.006,0.002 -0.0103,-0.004 v -0.002 q -0.0145,-0.0269 -0.0227,-0.0951 -0.25632,-0.0868 -0.43408,-0.32866 -0.004,-0.006 0,-0.0124 0.006,-0.004 0.0124,0 0.0413,0.0331 0.10749,0.0951 0.0765,0.0703 0.10542,0.0951 0.0661,0.0579 0.14262,0.0951 0.0331,0.0165 0.0393,0.0186 0.0227,0.004 0.0186,-0.0269 -0.002,-0.008 -0.006,-0.0351 -0.002,-0.0227 -0.004,-0.0372 -0.008,-0.0434 -0.0103,-0.0765 -0.0103,-0.062 -0.0455,-0.0827 -0.0393,-0.0227 -0.0868,-0.062 -0.17157,-0.14882 -0.22324,-0.2129 -0.006,-0.006 0,-0.0124 0.004,-0.004 0.0103,0 0.0372,0.0289 0.1633,0.14263 0.0992,0.0909 0.1695,0.13229 -0.0248,-0.1695 -0.0227,-0.15709 -0.0124,-0.091 -0.0227,-0.10336 0.004,0.004 -0.0331,-0.0165 -0.0186,-0.0103 -0.0455,-0.0393 -0.0372,-0.0393 -0.0434,-0.0434 -0.0558,-0.0496 -0.0889,-0.10128 -0.004,-0.006 0,-0.0103 0.004,-0.006 0.0103,-0.002 0.14262,0.14676 0.20464,0.17776 -0.004,-0.031 -0.0579,-0.44028 -0.002,-0.006 0.004,-0.008 0.006,-0.002 0.0103,0.006 0.0413,0.0909 0.0537,0.25632 z m 0.3576,1.4242 q 0.0145,-0.0145 0.0579,-0.0351 0,-0.15916 0.12195,-0.31006 0.002,-0.004 0.008,-0.002 0.004,0 0.002,0.004 -0.0124,0.031 -0.0393,0.0806 -0.0289,0.0579 -0.0393,0.0806 -0.0227,0.0475 -0.031,0.0971 -0.008,0.0434 0.0186,0.031 0.0145,-0.008 0.0475,-0.0227 0.0269,-0.0165 0.0496,-0.0227 0.0393,-0.0207 0.0434,-0.0455 0.006,-0.0248 0.0227,-0.062 0.0599,-0.12609 0.0909,-0.16949 0.004,-0.004 0.008,-0.002 0.004,0.002 0.004,0.004 -0.0124,0.0269 -0.0599,0.12196 -0.0372,0.0744 -0.0496,0.12195 0.0186,-0.008 0.0517,-0.0227 0.0372,-0.0186 0.0496,-0.0248 0.0599,-0.0289 0.0641,-0.0372 -0.002,0.004 0.004,-0.0227 -0.002,0.0103 0.0351,-0.0662 0.0207,-0.0434 0.0475,-0.0723 0.004,-0.004 0.008,-0.002 0.004,0.002 0.002,0.006 -0.0661,0.11162 -0.0724,0.15089 0.12196,-0.0558 0.28526,-0.13435 0.004,-0.002 0.006,0.002 0.004,0.002 0,0.006 -0.0331,0.0269 -0.28319,0.14056 0.0827,0.0372 0.17984,0.0269 0.004,-0.002 0.004,0.002 0,0.004 -0.004,0.006 -0.0372,0.0124 -0.0992,0.004 -0.0413,-0.004 -0.0579,-0.0103 -0.0537,-0.0145 -0.0455,-0.0145 -0.0145,0 -0.0372,0.008 -0.0165,0.006 -0.0186,0.008 -0.002,0 -0.006,0.002 -0.006,0.002 -0.008,0.004 -0.0124,0.006 -0.0289,0.0165 -0.0103,0.004 -0.0351,0.0165 -0.0207,0.0124 -0.0331,0.0186 0.0455,0.0186 0.14056,0.0331 0.10129,0.0186 0.1447,0.031 0.004,0.002 0.002,0.006 -0.002,0.004 -0.008,0.004 -0.11162,-0.004 -0.21497,-0.031 -0.0951,-0.0269 -0.093,-0.0269 -0.0124,0.002 -0.0289,0.006 -0.0248,0.0145 -0.0682,0.0331 l -0.008,0.006 q -0.0475,0.0269 -0.0372,0.0207 -0.0124,0.006 0.002,0.0124 0.004,0.004 0.0124,0.006 0.008,0.004 0.0103,0.004 0.0351,0.0186 0.10129,0.0331 0.0269,0.006 0.0992,0.0165 0.0641,0.0103 0.0992,0.0186 0.004,0.002 0.002,0.006 0,0.004 -0.006,0.004 -0.13436,0.002 -0.21911,-0.0289 -0.0124,-0.004 -0.0413,-0.0186 -0.031,-0.0165 -0.0475,-0.0207 -0.0579,-0.0227 -0.0992,0.008 -0.004,0.002 -0.008,0 -0.004,-0.002 0,-0.006 z"
         style="font-family:Leafs;-inkscape-font-specification:Leafs;fill:#008000"
         id="path526" />
    </g>
  </g>
</svg>
