<?xml version="1.0" encoding="UTF-8" standalone="no"?>
<!-- Created with Inkscape (http://www.inkscape.org/) -->

<svg
   width="26.383799mm"
   height="14.77988mm"
   viewBox="0 0 26.383799 14.77988"
   version="1.1"
   id="svg769"
   inkscape:version="1.1.1 (3bf5ae0d25, 2021-09-20)"
   sodipodi:docname="logo_short.svg"
   xmlns:inkscape="http://www.inkscape.org/namespaces/inkscape"
   xmlns:sodipodi="http://sodipodi.sourceforge.net/DTD/sodipodi-0.dtd"
   xmlns="http://www.w3.org/2000/svg"
   xmlns:svg="http://www.w3.org/2000/svg">
  <sodipodi:namedview
     id="namedview771"
     pagecolor="#ffffff"
     bordercolor="#666666"
     borderopacity="1.0"
     inkscape:pageshadow="2"
     inkscape:pageopacity="0.0"
     inkscape:pagecheckerboard="0"
     inkscape:document-units="mm"
     showgrid="false"
     fit-margin-top="0"
     fit-margin-left="0"
     fit-margin-right="0"
     fit-margin-bottom="0"
     inkscape:zoom="3.174838"
     inkscape:cx="-48.978877"
     inkscape:cy="-3.3072553"
     inkscape:window-width="1920"
     inkscape:window-height="1007"
     inkscape:window-x="0"
     inkscape:window-y="0"
     inkscape:window-maximized="1"
     inkscape:current-layer="layer1" />
  <defs
     id="defs766" />
  <g
     inkscape:label="Layer 1"
     inkscape:groupmode="layer"
     id="layer1"
     transform="translate(-88.165243,-200.03863)">
    <g
       aria-label="T"
       id="text879-5-6"
       style="font-size:10.5833px;line-height:1.25;font-family:made;-inkscape-font-specification:made;letter-spacing:0px;word-spacing:0px;fill:#784421;stroke-width:0.264583"
       transform="translate(-42.015934,-34.275858)">
      <path
         d="m 132.5673,242.52781 q 0,0.0953 -0.15875,0.0847 -0.14817,-0.0106 -0.34925,-0.0635 -0.20108,-0.0635 -0.381,-0.14816 -0.17991,-0.0952 -0.22225,-0.16934 -0.0106,-0.70908 0.17992,-1.26999 0.20108,-0.56092 0.51858,-0.99483 0.3175,-0.43392 0.73025,-0.75142 0.42333,-0.31749 0.86783,-0.55033 0.4445,-0.23283 0.889,-0.381 0.4445,-0.15875 0.82549,-0.26458 0.66675,-0.17991 1.37583,-0.254 0.71967,-0.0741 1.43933,-0.0741 0.60325,0 1.24883,0.0318 0.64558,0.0317 1.21708,0.0847 0.508,0.0423 1.016,0.0741 0.508,0.0212 0.96308,0.0212 0.56091,0 1.03716,-0.0635 0.47625,-0.0635 0.87842,-0.24342 0.0741,-0.0317 0.0847,0.0952 0.0106,0.127 -0.0212,0.29633 -0.0317,0.16933 -0.0952,0.33867 -0.0529,0.15875 -0.127,0.21166 -0.42334,0.14817 -0.93133,0.22225 -0.49742,0.0635 -1.016,0.0635 -0.58208,0 -1.2065,-0.0529 -0.61383,-0.0635 -1.24883,-0.127 -0.67733,-0.0741 -1.37583,-0.13759 -0.68791,-0.0635 -1.37582,-0.0635 -0.43392,0 -0.85725,0.0318 -0.41275,0.0317 -0.83608,0.11642 -0.5715,0.10583 -1.11125,0.35983 -0.52916,0.254 -0.9525,0.71967 -0.42333,0.45508 -0.69849,1.16416 -0.26459,0.6985 -0.30692,1.69333 z m 4.9424,-3.69357 q 0.0529,-0.0847 0.254,-0.0212 0.21167,0.0529 0.42333,0.20108 0.22225,0.13758 0.37042,0.34925 0.14816,0.20108 0.0741,0.40217 -0.52916,0.64558 -1.04775,1.40757 -0.51858,0.75142 -0.99483,1.55575 -0.47624,0.79375 -0.88899,1.60866 -0.41275,0.81492 -0.73025,1.5875 -0.3175,0.77258 -0.52917,1.47107 -0.21166,0.6985 -0.27516,1.24883 -0.0106,0.0741 -0.13758,-0.0212 -0.127,-0.0847 -0.28575,-0.24342 -0.14817,-0.14816 -0.27517,-0.3175 -0.11642,-0.16933 -0.127,-0.26458 0.0318,-0.56091 0.24342,-1.29116 0.21166,-0.73025 0.53975,-1.53458 0.33866,-0.80433 0.76199,-1.651 0.42334,-0.85724 0.87842,-1.66157 0.45508,-0.80433 0.89958,-1.53458 0.45508,-0.73025 0.84666,-1.29116 z"
         style="font-family:'Ananda Black';-inkscape-font-specification:'Ananda Black, '"
         id="path572" />
    </g>
    <g
       aria-label="errain"
       id="text883-7-5"
       style="font-size:4.9389px;line-height:1.25;font-family:made;-inkscape-font-specification:made;letter-spacing:0px;word-spacing:0px;stroke-width:0.264583"
       transform="translate(-42.015934,-34.275858)">
      <path
         d="m 140.55424,241.35523 q -0.22225,0.40005 -0.58279,0.66675 -0.36054,0.26176 -0.79516,0.3803 -0.005,0.084 0.01,0.16792 0.0148,0.084 0.0494,0.15804 0.0346,0.0741 0.0938,0.12842 0.0593,0.0543 0.14817,0.0741 0.10865,0.0247 0.24694,-0.005 0.14323,-0.0346 0.29634,-0.12841 0.15804,-0.0988 0.32103,-0.25682 0.16298,-0.15805 0.32102,-0.38524 0.079,-0.11359 0.14323,-0.22225 0.0642,-0.10865 0.11854,-0.20743 0.0198,-0.0247 0.0445,-0.0247 0.0296,-0.005 0.0494,0.01 0.0247,0.0148 0.0346,0.0395 0.01,0.0247 -0.01,0.0593 -0.0692,0.10865 -0.14817,0.23707 -0.079,0.12841 -0.1778,0.27164 -0.0938,0.13828 -0.21237,0.28151 -0.1136,0.13829 -0.25682,0.2667 -0.14323,0.12841 -0.27658,0.19756 -0.13335,0.0642 -0.25189,0.0938 -0.11853,0.0247 -0.21237,0.0247 -0.0938,0.005 -0.1531,0.005 -0.33585,0 -0.52353,-0.1778 -0.18768,-0.1778 -0.20249,-0.48401 -0.01,-0.28152 0.0988,-0.5581 0.11359,-0.28151 0.36054,-0.60748 0.079,-0.10372 0.21237,-0.22225 0.13335,-0.12347 0.29633,-0.22719 0.16299,-0.10372 0.34572,-0.16792 0.18274,-0.0642 0.36548,-0.0593 0.11854,0 0.2025,0.0543 0.0889,0.0543 0.12841,0.14816 0.0395,0.0889 0.0198,0.21238 -0.0148,0.11853 -0.10372,0.25682 z m -1.35326,0.86925 q -0.005,0.01 -0.005,0.0197 0.40005,-0.11359 0.72108,-0.36054 0.32103,-0.25188 0.51858,-0.62724 0.0692,-0.14323 0.0346,-0.242 -0.0346,-0.10372 -0.17286,-0.079 -0.20744,0.0395 -0.39018,0.18768 -0.18274,0.14817 -0.32596,0.34079 -0.14323,0.19261 -0.24201,0.40005 -0.0988,0.20249 -0.13829,0.36054 z"
         style="font-family:Ananda;-inkscape-font-specification:Ananda"
         id="path559" />
      <path
         d="m 142.65326,242.32819 q -0.10371,0.14817 -0.23707,0.30128 -0.13335,0.1531 -0.28645,0.27657 -0.15311,0.12348 -0.32597,0.2025 -0.17286,0.0741 -0.3556,0.0642 -0.18768,-0.01 -0.27658,-0.13828 -0.0889,-0.12842 -0.084,-0.29634 0.005,-0.1531 0.0543,-0.28645 0.0494,-0.13335 0.12347,-0.25683 0.079,-0.12841 0.16792,-0.25188 0.0938,-0.12347 0.19262,-0.25682 0.0642,-0.0889 0.12841,-0.17287 0.0642,-0.0889 0.10866,-0.1531 0.0444,-0.0692 0.0642,-0.10866 0.0198,-0.0395 0,-0.0346 -0.0741,0.01 -0.12841,0.0247 -0.0494,0.01 -0.0938,0.0247 -0.0445,0.01 -0.0938,0.0148 -0.0494,0.005 -0.11853,0.005 -0.0247,0 -0.0494,0 -0.0247,0 -0.0494,-0.005 -0.11359,0.15804 -0.21731,0.31609 -0.10372,0.15804 -0.19756,0.30621 -0.0148,0.0247 -0.0445,0.0296 -0.0247,0 -0.0444,-0.01 -0.0198,-0.0148 -0.0296,-0.0395 -0.01,-0.0296 0.0148,-0.0642 0.0988,-0.15805 0.18274,-0.30128 0.0889,-0.14816 0.18768,-0.29633 -0.0889,-0.0741 -0.0642,-0.19756 0.0247,-0.12841 0.0988,-0.2667 0.0741,-0.14323 0.15804,-0.27164 0.084,-0.12841 0.1136,-0.20743 0.0593,0.0247 0.11853,0.0642 0.0642,0.0346 0.10372,0.0889 0.0395,0.0494 0.0494,0.12841 0.01,0.0741 -0.0346,0.18274 l -0.20743,0.30127 q -0.0198,0.0296 0.0346,0.0197 0.0543,-0.01 0.15311,-0.0395 0.0988,-0.0346 0.21731,-0.079 0.12347,-0.0494 0.23707,-0.0988 0.11359,-0.0494 0.19755,-0.0938 0.0889,-0.0494 0.1136,-0.079 0.0148,0 0.0395,0.0198 0.0296,0.0197 0.0593,0.0444 0.0346,0.0247 0.0593,0.0494 0.0247,0.0247 0.0296,0.0296 0.0494,0.0741 -0.005,0.19756 -0.0494,0.11853 -0.15805,0.27657 -0.10865,0.15805 -0.25682,0.34079 -0.14817,0.1778 -0.29139,0.37042 -0.0494,0.0593 -0.10866,0.14322 -0.0593,0.079 -0.1136,0.16793 -0.0543,0.084 -0.0938,0.16792 -0.0395,0.084 -0.0494,0.1531 -0.01,0.0692 0.0198,0.1136 0.0346,0.0395 0.12841,0.0445 0.0642,0.005 0.15311,-0.0346 0.0938,-0.0445 0.19756,-0.11854 0.10371,-0.079 0.20743,-0.18274 0.10372,-0.10371 0.18768,-0.22225 0.0988,-0.14322 0.1778,-0.27657 0.084,-0.13335 0.13829,-0.23213 0.0197,-0.0247 0.0444,-0.0247 0.0296,-0.005 0.0494,0.01 0.0247,0.0148 0.0296,0.0395 0.01,0.0247 -0.01,0.0593 -0.084,0.12841 -0.15804,0.26176 -0.0741,0.13335 -0.15805,0.25682 z"
         style="font-family:Ananda;-inkscape-font-specification:Ananda"
         id="path561" />
      <path
         d="m 144.57943,242.32819 q -0.10372,0.14817 -0.23707,0.30128 -0.13335,0.1531 -0.28645,0.27657 -0.15311,0.12348 -0.32597,0.2025 -0.17286,0.0741 -0.3556,0.0642 -0.18768,-0.01 -0.27658,-0.13828 -0.0889,-0.12842 -0.084,-0.29634 0.005,-0.1531 0.0543,-0.28645 0.0494,-0.13335 0.12347,-0.25683 0.079,-0.12841 0.16792,-0.25188 0.0938,-0.12347 0.19262,-0.25682 0.0642,-0.0889 0.12841,-0.17287 0.0642,-0.0889 0.10866,-0.1531 0.0445,-0.0692 0.0642,-0.10866 0.0198,-0.0395 0,-0.0346 -0.0741,0.01 -0.12841,0.0247 -0.0494,0.01 -0.0938,0.0247 -0.0444,0.01 -0.0938,0.0148 -0.0494,0.005 -0.11853,0.005 -0.0247,0 -0.0494,0 -0.0247,0 -0.0494,-0.005 -0.11359,0.15804 -0.21731,0.31609 -0.10372,0.15804 -0.19756,0.30621 -0.0148,0.0247 -0.0444,0.0296 -0.0247,0 -0.0445,-0.01 -0.0197,-0.0148 -0.0296,-0.0395 -0.01,-0.0296 0.0148,-0.0642 0.0988,-0.15805 0.18274,-0.30128 0.0889,-0.14816 0.18767,-0.29633 -0.0889,-0.0741 -0.0642,-0.19756 0.0247,-0.12841 0.0988,-0.2667 0.0741,-0.14323 0.15804,-0.27164 0.084,-0.12841 0.1136,-0.20743 0.0593,0.0247 0.11853,0.0642 0.0642,0.0346 0.10372,0.0889 0.0395,0.0494 0.0494,0.12841 0.01,0.0741 -0.0346,0.18274 l -0.20743,0.30127 q -0.0198,0.0296 0.0346,0.0197 0.0543,-0.01 0.15311,-0.0395 0.0988,-0.0346 0.21731,-0.079 0.12347,-0.0494 0.23707,-0.0988 0.11359,-0.0494 0.19755,-0.0938 0.0889,-0.0494 0.1136,-0.079 0.0148,0 0.0395,0.0198 0.0296,0.0197 0.0593,0.0444 0.0346,0.0247 0.0593,0.0494 0.0247,0.0247 0.0296,0.0296 0.0494,0.0741 -0.005,0.19756 -0.0494,0.11853 -0.15805,0.27657 -0.10865,0.15805 -0.25682,0.34079 -0.14817,0.1778 -0.2914,0.37042 -0.0494,0.0593 -0.10865,0.14322 -0.0593,0.079 -0.1136,0.16793 -0.0543,0.084 -0.0938,0.16792 -0.0395,0.084 -0.0494,0.1531 -0.01,0.0692 0.0198,0.1136 0.0346,0.0395 0.12841,0.0445 0.0642,0.005 0.15311,-0.0346 0.0938,-0.0445 0.19755,-0.11854 0.10372,-0.079 0.20744,-0.18274 0.10371,-0.10371 0.18768,-0.22225 0.0988,-0.14322 0.1778,-0.27657 0.084,-0.13335 0.13828,-0.23213 0.0198,-0.0247 0.0444,-0.0247 0.0296,-0.005 0.0494,0.01 0.0247,0.0148 0.0296,0.0395 0.01,0.0247 -0.01,0.0593 -0.084,0.12841 -0.15805,0.26176 -0.0741,0.13335 -0.15804,0.25682 z"
         style="font-family:Ananda;-inkscape-font-specification:Ananda"
         id="path563" />
      <path
         d="m 146.69328,241.36017 q 0,0.0346 -0.0247,0.0543 -0.0247,0.0197 -0.0543,0.0247 -0.0247,0 -0.0445,-0.0197 -0.0197,-0.0198 -0.0197,-0.0593 -0.01,-0.0494 -0.0198,-0.12347 -0.005,-0.079 -0.0346,-0.14817 -0.0247,-0.0741 -0.084,-0.12841 -0.0593,-0.0543 -0.17286,-0.0593 -0.13829,-0.005 -0.27164,0.0543 -0.12841,0.0593 -0.24695,0.16298 -0.11853,0.10372 -0.22225,0.24201 -0.10371,0.13335 -0.18768,0.28152 -0.084,0.14322 -0.14816,0.29139 -0.0593,0.14323 -0.0938,0.2667 -0.0247,0.084 -0.0395,0.2025 -0.0148,0.11853 0.01,0.22225 0.0247,0.0988 0.10372,0.1531 0.079,0.0543 0.24695,0.0148 0.079,-0.0198 0.19261,-0.1136 0.1136,-0.0938 0.22719,-0.21731 0.11854,-0.12841 0.22225,-0.2667 0.10372,-0.13829 0.16793,-0.242 0.0543,-0.14323 0.0889,-0.27658 0.0395,-0.13335 0.0494,-0.23213 0.0494,-0.0247 0.13335,0.01 0.084,0.0346 0.15804,0.0988 0.0741,0.0642 0.11853,0.14816 0.0444,0.084 0.0198,0.16299 -0.0296,0.0741 -0.0741,0.1778 -0.0395,0.10371 -0.084,0.21237 -0.0395,0.10866 -0.079,0.21731 -0.0346,0.10372 -0.0494,0.19262 -0.01,0.084 0,0.13829 0.0148,0.0543 0.0692,0.0593 h 0.0593 q 0.16793,-0.0494 0.31116,-0.1778 0.14816,-0.12841 0.27164,-0.29139 0.12841,-0.16299 0.23212,-0.34079 0.10866,-0.1778 0.19756,-0.32596 0.0148,-0.0247 0.0444,-0.0247 0.0296,-0.005 0.0494,0.01 0.0247,0.0148 0.0346,0.0395 0.01,0.0247 -0.01,0.0593 -0.0988,0.1531 -0.19261,0.31115 -0.0938,0.15804 -0.19756,0.30621 -0.10372,0.14817 -0.22225,0.28646 -0.1136,0.13829 -0.25188,0.25188 -0.0346,0.0296 -0.0889,0.0692 -0.0494,0.0395 -0.11854,0.0741 -0.0642,0.0346 -0.14323,0.0593 -0.0741,0.0197 -0.16298,0.0148 -0.13829,-0.01 -0.22719,-0.0691 -0.084,-0.0593 -0.12841,-0.15311 -0.0444,-0.0938 -0.0494,-0.21237 0,-0.11853 0.0346,-0.24201 -0.0988,0.12348 -0.21237,0.24201 -0.10866,0.11853 -0.22719,0.21237 -0.11853,0.0938 -0.24201,0.15311 -0.12347,0.0543 -0.242,0.0444 -0.21237,-0.01 -0.33091,-0.0988 -0.11359,-0.0938 -0.16792,-0.21731 -0.0543,-0.12347 -0.0642,-0.25682 -0.005,-0.13335 0.01,-0.22225 0.0247,-0.17287 0.10866,-0.3803 0.084,-0.20743 0.21731,-0.40993 0.13335,-0.20743 0.30621,-0.39017 0.1778,-0.18768 0.37536,-0.31115 0.20249,-0.12841 0.4198,-0.1778 0.21731,-0.0543 0.4445,0.005 0.0988,0.0296 0.15805,0.0988 0.0642,0.0642 0.0988,0.15805 0.0346,0.0889 0.0445,0.19755 0.01,0.10372 0.005,0.20744 z"
         style="font-family:Ananda;-inkscape-font-specification:Ananda"
         id="path565" />
      <path
         d="m 148.06629,240.69342 q 0.0494,-0.0247 0.12841,0.01 0.084,0.0296 0.14817,0.0938 0.0691,0.0642 0.10371,0.14817 0.0395,0.084 0.005,0.16298 -0.0296,0.0691 -0.12347,0.22226 -0.0889,0.1531 -0.19756,0.35066 -0.10371,0.19261 -0.21237,0.40005 -0.10866,0.20743 -0.1778,0.38029 -0.0642,0.17286 -0.079,0.28646 -0.01,0.10866 0.079,0.11359 h 0.0543 q 0.1778,-0.0494 0.3309,-0.16792 0.15311,-0.12347 0.28646,-0.27658 0.13829,-0.1531 0.25682,-0.32103 0.12348,-0.16792 0.22719,-0.31609 0.0198,-0.0247 0.0494,-0.0247 0.0296,-0.005 0.0494,0.01 0.0198,0.01 0.0247,0.0395 0.005,0.0247 -0.0247,0.0593 -0.20743,0.32102 -0.42474,0.5976 -0.21732,0.27164 -0.51859,0.50377 -0.0395,0.0296 -0.0938,0.0692 -0.0543,0.0395 -0.12347,0.0741 -0.0692,0.0296 -0.15311,0.0543 -0.079,0.0197 -0.16298,0.0197 -0.10372,-0.005 -0.16792,-0.0593 -0.0642,-0.0543 -0.0938,-0.14323 -0.0296,-0.0889 -0.0247,-0.2025 0.005,-0.11359 0.0445,-0.242 0.0494,-0.1778 0.15311,-0.41981 0.10372,-0.24201 0.22225,-0.49389 0.11853,-0.25682 0.23213,-0.49883 0.11359,-0.24694 0.18274,-0.42968 z m 0.47413,-1.36314 q 0.0444,-0.005 0.11854,0.0494 0.0741,0.0543 0.14322,0.12841 0.0741,0.0741 0.12348,0.15311 0.0494,0.0741 0.0494,0.10371 -0.0247,0.0938 -0.0741,0.19262 -0.0445,0.0938 -0.0988,0.19756 -0.0494,0.0988 -0.0988,0.19755 -0.0494,0.0988 -0.0741,0.19756 -0.0395,-0.005 -0.0889,-0.0444 -0.0445,-0.0395 -0.084,-0.0889 -0.0395,-0.0543 -0.0691,-0.10372 -0.0247,-0.0543 -0.0247,-0.0938 0.005,-0.084 0.0296,-0.19261 0.0247,-0.10866 0.0543,-0.22719 0.0346,-0.11854 0.0593,-0.23707 0.0296,-0.12347 0.0346,-0.23213 z"
         style="font-family:Ananda;-inkscape-font-specification:Ananda"
         id="path567" />
      <path
         d="m 151.29632,242.23929 q -0.0691,0.10866 -0.18768,0.27164 -0.11853,0.15805 -0.26176,0.30621 -0.13829,0.14817 -0.29633,0.25683 -0.15805,0.10371 -0.30621,0.10371 -0.084,0 -0.16793,-0.0296 -0.079,-0.0296 -0.13829,-0.0889 -0.0593,-0.0593 -0.0938,-0.15311 -0.0346,-0.0938 -0.0296,-0.22225 0.005,-0.12841 0.0346,-0.25188 0.0296,-0.12841 0.0741,-0.2667 0.0494,-0.14323 0.11853,-0.30621 0.0691,-0.16793 0.15311,-0.37042 0.0543,-0.12841 0.084,-0.23213 0.0296,-0.10865 0.01,-0.15804 -0.0198,-0.0494 -0.10372,-0.0148 -0.084,0.0296 -0.25682,0.1778 -0.19262,0.17286 -0.34079,0.33091 -0.14817,0.15804 -0.30621,0.35066 -0.12347,0.28645 -0.20743,0.58279 -0.084,0.29139 -0.10866,0.61736 0,0.0346 -0.0543,0.0198 -0.0543,-0.0148 -0.12347,-0.0494 -0.0642,-0.0395 -0.11853,-0.0889 -0.0543,-0.0494 -0.0593,-0.0889 0.0148,-0.2914 0.0889,-0.56798 0.079,-0.28151 0.1778,-0.55809 0.0988,-0.28152 0.20743,-0.5581 0.10866,-0.27658 0.19262,-0.55809 0.0494,-0.0247 0.12841,0.01 0.084,0.0296 0.15805,0.0938 0.0741,0.0642 0.11853,0.14817 0.0445,0.084 0.0198,0.16298 -0.0148,0.0543 -0.0395,0.10372 -0.0247,0.0494 -0.0543,0.10372 0.10371,-0.1136 0.22225,-0.22225 0.11853,-0.10866 0.242,-0.19262 0.12348,-0.0889 0.25189,-0.14323 0.12841,-0.0543 0.26176,-0.0642 0.0543,0 0.11359,0.0444 0.0642,0.0395 0.10866,0.10371 0.0494,0.0593 0.0741,0.12842 0.0247,0.0691 0.005,0.12347 -0.12347,0.33584 -0.22719,0.56797 -0.10371,0.22719 -0.18274,0.40993 -0.079,0.1778 -0.12841,0.34572 -0.0494,0.16299 -0.0642,0.37042 0,0.0148 0.005,0.0346 0.005,0.0198 0.0197,0.0346 0.0198,0.0148 0.0543,0.0148 0.0346,0 0.0889,-0.0247 0.14323,-0.0692 0.34078,-0.24201 0.2025,-0.17286 0.39511,-0.45932 0.0741,-0.10865 0.13336,-0.21237 0.0642,-0.10865 0.12347,-0.20743 0.0148,-0.0247 0.0395,-0.0247 0.0296,-0.005 0.0494,0.01 0.0247,0.0148 0.0296,0.0395 0.01,0.0247 -0.01,0.0593 l -0.25682,0.42968 z"
         style="font-family:Ananda;-inkscape-font-specification:Ananda"
         id="path569" />
    </g>
    <g
       aria-label="S"
       id="text887-3-5"
       style="font-size:4.9389px;line-height:1.25;font-family:made;-inkscape-font-specification:made;letter-spacing:0px;word-spacing:0px;stroke-width:0.264583"
       transform="translate(-42.015934,-34.275858)">
      <path
         d="m 139.92587,245.04077 q -0.1136,0.0741 -0.22719,0.0593 -0.10866,-0.0148 -0.19756,-0.0642 -0.084,-0.0494 -0.13335,-0.10866 -0.0445,-0.0642 -0.0296,-0.0889 0.10371,-0.0494 0.22719,-0.14322 0.12347,-0.0938 0.23213,-0.20744 0.10865,-0.11359 0.18767,-0.23707 0.079,-0.12347 0.0938,-0.22718 0.0198,-0.10866 -0.0445,-0.18768 -0.0593,-0.079 -0.23213,-0.10372 -0.16792,-0.0198 -0.39511,0 -0.22719,0.0198 -0.46919,0.084 -0.23707,0.0642 -0.4692,0.17286 -0.23213,0.10372 -0.40993,0.24695 -0.17286,0.14323 -0.27164,0.3309 -0.0988,0.18274 -0.0741,0.40006 0.0197,0.19755 0.12347,0.37535 0.10372,0.1778 0.24201,0.34572 0.14323,0.16793 0.30127,0.33585 0.15805,0.16298 0.28646,0.33585 0.12841,0.17286 0.20249,0.36053 0.079,0.18768 0.0593,0.40006 -0.0247,0.26176 -0.19756,0.5334 -0.17286,0.27164 -0.45438,0.48401 -0.27657,0.21731 -0.63711,0.34572 -0.36054,0.13335 -0.75566,0.10866 -0.20743,-0.01 -0.44944,-0.079 -0.242,-0.0642 -0.44944,-0.19262 -0.20743,-0.12347 -0.35066,-0.31115 -0.13829,-0.18768 -0.14816,-0.43956 -0.01,-0.26671 0.12347,-0.50871 0.13335,-0.24695 0.46919,-0.47907 0.0247,-0.0198 0.1136,0.01 0.0938,0.0247 0.19262,0.0741 0.0988,0.0444 0.17286,0.0988 0.079,0.0543 0.0691,0.084 -0.11853,0.0642 -0.24694,0.13335 -0.12348,0.0691 -0.22719,0.15804 -0.10372,0.084 -0.17286,0.19756 -0.0642,0.11359 -0.0642,0.2667 0,0.21237 0.0938,0.34572 0.0938,0.12841 0.242,0.2025 0.14817,0.0741 0.32597,0.0988 0.18274,0.0247 0.36054,0.0247 0.30127,0 0.55316,-0.084 0.25682,-0.079 0.43956,-0.22719 0.18274,-0.14817 0.28152,-0.36054 0.10372,-0.21237 0.10372,-0.47414 -0.005,-0.18767 -0.0988,-0.3556 -0.0938,-0.17286 -0.23213,-0.3309 -0.13335,-0.15805 -0.2914,-0.30622 -0.1531,-0.1531 -0.28151,-0.31115 -0.12842,-0.16298 -0.20744,-0.3309 -0.0741,-0.17286 -0.0543,-0.37042 0.0247,-0.23213 0.15311,-0.44944 0.12841,-0.21731 0.32597,-0.40499 0.20249,-0.19262 0.45932,-0.34572 0.26176,-0.15805 0.54327,-0.26176 0.28646,-0.10866 0.58279,-0.15805 0.29634,-0.0543 0.57292,-0.0395 0.22719,0.0148 0.35066,0.10866 0.12347,0.0938 0.16792,0.23706 0.0494,0.13829 0.0296,0.31115 -0.0198,0.17286 -0.079,0.34573 -0.0593,0.16792 -0.14816,0.32102 -0.0889,0.15311 -0.18274,0.25189 z"
         style="fill:#008000"
         id="path556" />
    </g>
    <g
       aria-label="U"
       transform="rotate(19.823135,77.071022,-137.36483)"
       id="text914-8-9"
       style="font-size:5.64444px;line-height:1.25;font-family:made;-inkscape-font-specification:made;letter-spacing:0px;word-spacing:0px;stroke-width:0.264583">
      <path
         d="m 216.74999,174.73002 q 0.0689,-0.003 0.14056,-0.0248 0.98116,-0.62287 0.82407,-1.78042 -0.14056,-1.03077 -1.05007,-1.95406 0.14332,0.17915 0.0882,0.46027 -0.0413,0.21221 -0.21498,0.55121 -0.4575,0.88746 -0.46853,1.07211 -0.0579,0.48232 0.0854,1.01424 0.18466,0.67248 0.5898,0.66146 z m 0.80478,-1.6564 -0.0992,0.22324 -0.113,0.22048 -0.0386,0.0634 q -0.0165,0.0248 -0.0193,0.0221 -0.006,-0.003 0.006,-0.0276 l 0.0303,-0.0689 0.11575,-0.21773 0.11025,-0.21773 0.0358,-0.0662 q 0.011,-0.0248 0.011,-0.022 -0.006,0.0138 -0.008,0.022 z m -0.14056,-0.65044 q -0.006,0.0276 -0.0744,0.20395 -0.0854,0.16537 -0.10473,0.19293 l -0.0358,0.0551 q -0.0138,0.0221 -0.0193,0.0193 -0.003,-0.003 0.008,-0.0276 l 0.0303,-0.0551 q 0.022,-0.0358 0.0524,-0.0965 0.0386,-0.0717 0.0496,-0.0965 0.0909,-0.2067 0.0882,-0.19843 l 0.0248,-0.0634 q 0.008,-0.0165 0.008,-0.0193 -0.003,0.0138 -0.006,0.0221 z m -0.45476,0.68075 -0.18465,-0.33073 q -0.20671,-0.34726 -0.19293,-0.32521 l -0.0634,-0.0965 q -0.006,-0.011 -0.0193,-0.0358 0.0165,0.022 0.0248,0.0303 l 0.0689,0.0965 q 0.0386,0.0469 0.21221,0.31144 0.1571,0.27285 0.18466,0.33349 l 0.0496,0.0992 q 0.0165,0.0413 0.011,0.0441 -0.006,0.003 -0.0331,-0.0331 z m -0.0386,1.42214 q 0.0689,-0.12127 0.10473,-0.24805 l 0.0331,-0.17088 q -0.0303,-0.11024 -0.13505,-0.23978 -0.0937,-0.10748 -0.25907,-0.24529 l -0.0854,-0.0717 q -0.0276,-0.0248 -0.0276,-0.0248 0.0221,0.0138 0.0303,0.0221 l 0.0909,0.0661 q 0.17639,0.12953 0.27561,0.23426 0.0827,0.0909 0.12127,0.17915 0.0303,-0.23427 0.0331,-0.66422 -0.003,-0.34175 -0.0469,-0.92604 l -0.0331,-0.28663 q -0.0138,-0.0965 -0.0138,-0.0965 0.0138,0.0634 0.0221,0.0937 0.022,0.11852 0.0468,0.28664 0.0689,0.57602 0.0827,0.92879 0.011,0.55673 -0.0579,0.84612 -0.003,0.0386 -0.0138,0.0661 l -0.003,0.008 -0.003,0.011 q -0.0441,0.1378 -0.13229,0.25356 -0.0882,0.0772 -0.0937,0.0689 -0.006,-0.011 0.0634,-0.0909 z"
         style="font-family:Leafs;-inkscape-font-specification:Leafs;fill:#008000"
         id="path553" />
    </g>
    <g
       aria-label="Y"
       transform="rotate(-11.487459,-191.39195,191.72168)"
       id="text918-38-2"
       style="font-size:4.23333px;line-height:1.25;font-family:made;-inkscape-font-specification:made;letter-spacing:0px;word-spacing:0px;stroke-width:0.264583"
       inkscape:transform-center-x="-1.0022607"
       inkscape:transform-center-y="-0.13363477">
      <path
         d="m 80.081474,260.08027 q 0.08888,0.0331 0.126091,0.0372 0.03721,0.004 0.09508,0.008 -0.06201,-0.13436 -0.09508,-0.23151 -0.03101,-0.0971 -0.07648,-0.31213 0.031,0.0248 0.08475,0.0476 0.05374,0.0207 0.07648,0.0207 -0.04754,-0.1447 -0.07028,-0.23358 -0.02274,-0.0868 -0.05168,-0.23564 0.02894,0.031 0.08062,0.0475 0.05168,0.0145 0.08061,0 -0.04134,-0.13436 -0.04547,-0.22324 -0.0062,-0.0868 0,-0.20051 0.188102,0.0641 0.283186,0.12402 0.09715,0.062 0.223242,0.18604 0.02067,-0.0496 0.02687,-0.0992 0.0062,-0.0475 0,-0.15916 0.142627,0.10748 0.204639,0.16743 0.05994,0.0599 0.140559,0.2067 0.02481,-0.0227 0.03101,-0.0723 0.0062,-0.0496 0.0041,-0.10542 0.181901,0.14469 0.274919,0.22944 0.09302,0.0847 0.200504,0.26665 0.01447,-0.0765 0.02067,-0.12402 0.0062,-0.0475 0.01033,-0.10956 0.101286,0.13023 0.165364,0.22531 0.06201,0.0971 0.136426,0.26252 0.0124,-0.0331 0.03307,-0.0765 0.0186,-0.0413 0.03721,-0.0827 0.08062,0.2129 0.09508,0.29145 0.01447,0.0786 0.03514,0.26252 0.04341,-0.0351 0.07028,-0.0889 0.02687,-0.0517 0.04341,-0.0971 0.0124,0.25218 -0.0248,0.54364 -0.07235,0.57877 -0.31626,0.76894 -0.06408,0.0475 -0.142627,0.0889 -0.01447,-0.0744 -0.03514,-0.1509 0.155029,-0.22944 0.200504,-0.38861 0.08475,-0.29765 0.05994,-0.40721 -0.02067,0.25425 -0.124024,0.45682 -0.09922,0.19224 -0.159163,0.25839 -0.04961,-0.1509 -0.128158,-0.32453 -0.01447,-0.0289 -0.02894,-0.0579 0.138492,-0.23978 0.155029,-0.39894 0.02894,-0.30593 -0.0083,-0.41755 0.02067,0.23151 -0.06408,0.49403 -0.03307,0.10129 -0.124023,0.23771 -0.09508,-0.1881 -0.227377,-0.39894 0.10542,-0.22324 0.10542,-0.3638 0.0041,-0.26045 -0.03514,-0.35347 0.03307,0.19637 -0.02067,0.42581 -0.0186,0.0827 -0.09509,0.22945 -0.297656,-0.40721 -0.651122,-0.77308 0.272851,0.3452 0.500227,0.71107 -0.117822,0.006 -0.181901,-0.0124 -0.173632,-0.0496 -0.283186,-0.15503 0.04134,0.0682 0.210839,0.17157 0.09302,0.0558 0.291455,0.0579 0.04547,0.0765 0.08268,0.14056 0.07441,0.11989 0.136426,0.23357 -0.190169,0.0331 -0.276985,0.0248 -0.24598,-0.0227 -0.423747,-0.13229 0.07441,0.0786 0.330729,0.1695 0.14056,0.0517 0.411344,0.0124 0.06201,0.11575 0.111621,0.22531 0.03927,0.0889 0.07028,0.17156 -0.16123,0.0289 -0.283187,0.0145 -0.28732,-0.0331 -0.454752,-0.10955 0.08061,0.0723 0.355534,0.1633 0.179834,0.0599 0.411344,0.0124 0.04961,0.14676 0.07235,0.27905 -0.370003,0.15296 -0.795817,0.12402 0.04548,-0.0248 0.08682,-0.0847 0.04341,-0.0579 0.03307,-0.062 -0.09095,0.0248 -0.254248,-0.006 -0.163298,-0.031 -0.274919,-0.13849 0.04134,-0.002 0.07441,-0.0227 0.03514,-0.0207 0.04341,-0.0434 -0.09095,-0.0331 -0.165365,-0.0806 -0.07441,-0.0475 -0.208772,-0.17363 0.07648,0.006 0.105419,-0.004 0.03101,-0.0103 0.04341,-0.0413 -0.10542,-0.0724 -0.165365,-0.1633 -0.06201,-0.091 -0.09508,-0.22117 0.02894,0.0145 0.07441,0.0103 0.04341,-0.004 0.04754,-0.0289 -0.08682,-0.10542 -0.130225,-0.19016 -0.04134,-0.0848 -0.07648,-0.25219 z"
         style="font-family:Leafs;-inkscape-font-specification:Leafs;fill:#008000"
         id="path550" />
    </g>
    <g
       aria-label="X"
       id="text952-12-2"
       style="font-size:2.11667px;line-height:1.25;font-family:made;-inkscape-font-specification:made;letter-spacing:0px;word-spacing:0px;stroke-width:0.264583"
       transform="translate(-42.015934,-34.275858)">
      <path
         d="m 137.37181,248.43654 q -0.0165,0.0341 -0.0941,0.0486 -0.11472,0.0155 -0.27596,0 -0.003,-0.008 -0.006,-0.0145 -0.0207,-0.0465 0.007,-0.0692 0.0207,-0.0186 0.0692,-0.0269 0.0362,-0.005 0.16434,-0.006 0.0558,0 0.0858,-0.003 0.0207,-0.003 0.0269,-0.004 0.0341,0.0444 0.0227,0.0755 z m 0.0641,-0.29249 q -0.0134,-0.0486 -0.0527,-0.12919 -0.0124,-0.0269 -0.031,-0.062 -0.0475,-0.0879 -0.0517,-0.0941 0.001,-0.004 0.002,-0.006 0.0258,0.005 0.0475,-0.0103 0,0 0,0 0.003,-0.002 0.006,-0.005 v 0 q 0.003,-0.003 0.005,-0.006 0.001,0 0.001,0 0,0 0,0 0.003,-0.004 0.005,-0.008 0.0248,-0.0455 0.0238,-0.11162 -10e-4,-0.0941 -0.0641,-0.17157 -0.001,-0.001 -0.001,-0.001 -10e-4,-10e-4 -10e-4,-0.002 -0.008,-0.009 -0.0165,-0.0176 0,0 -0.006,-0.007 -0.007,-0.007 -0.0124,-0.0114 -10e-4,-0.001 -0.007,-0.007 -0.008,-0.007 -0.0114,-0.0103 -0.003,-0.002 -0.008,-0.007 -0.006,-0.005 -0.0114,-0.008 -0.004,-0.004 -0.009,-0.007 -0.006,-0.004 -0.0114,-0.008 -0.005,-0.004 -0.008,-0.006 -0.005,-0.003 -0.0114,-0.007 -0.007,-0.005 -0.008,-0.005 -0.005,-0.004 -0.0124,-0.008 -0.005,-0.003 -0.007,-0.004 -0.007,-0.004 -0.0145,-0.008 -0.007,-0.004 -0.005,-0.003 -0.0145,-0.008 -0.0651,-0.0362 l -0.005,-0.002 q -0.001,-0.001 -0.009,-0.005 -0.002,-10e-4 -0.007,-0.004 -0.002,-0.001 -0.007,-0.004 -0.003,-0.001 -0.007,-0.004 -0.004,-0.002 -0.007,-0.004 -0.0134,-0.008 -0.0227,-0.0155 -0.0527,-0.0434 -0.0672,-0.10025 0,-0.002 0,-0.003 -0.0269,0.13022 -0.0124,0.27802 0.031,0.29662 0.24288,0.38757 0,0 0,0 h 0.001 q -0.003,-0.001 0.005,0.002 0.007,0.002 0.0103,0.002 0.001,0.001 0.006,0.002 0.005,0.001 0.007,0.001 0.004,0 0.007,0.001 0.003,0 0.006,0 h 0.005 q 0.002,0 0.006,-0.001 0.004,0 0.005,0 0.004,-0.001 0.008,-0.002 0,-0.001 0.004,-0.002 0.003,-10e-4 0.003,-0.002 0.002,0 0.004,-0.002 0.004,-0.002 0.002,-0.001 v 0 q 0.006,-0.004 0.0103,-0.009 0.0145,0.0434 0.0382,0.0879 -0.002,-0.005 0.032,0.061 0.032,0.061 0.0527,0.12092 0.032,0.0961 -0.0207,0.1571 -0.0103,0.0155 -0.0341,0.0238 -0.006,-0.007 -0.0114,-0.0134 -0.0548,-0.0589 -0.1695,-0.1385 -0.0713,-0.0475 -0.21084,-0.12815 -0.0548,-0.03 -0.10025,-0.0496 0,-0.004 0,-0.006 0.0289,-0.003 0.0486,-0.0269 v 0 q 0,0 0,0 0.003,-0.003 0.005,-0.007 0,-0.001 10e-4,-0.001 0.001,-0.003 0.003,-0.007 0.001,-0.001 0.001,-0.002 0.002,-0.005 0.003,-0.009 0.0145,-0.0579 -0.003,-0.12816 -0.0258,-0.10128 -0.11473,-0.16329 -0.001,0 -0.001,-10e-4 -0.0114,-0.007 -0.0238,-0.0155 0.001,0.001 -0.009,-0.005 -0.0103,-0.005 -0.0155,-0.008 -0.001,-0.001 -0.0103,-0.005 -0.0103,-0.005 -0.0155,-0.007 -0.003,-0.002 -0.0103,-0.005 -0.009,-0.003 -0.0145,-0.006 -0.005,-0.001 -0.0114,-0.004 -0.007,-0.002 -0.0145,-0.005 -0.007,-0.002 -0.0103,-0.003 -0.006,-0.002 -0.0155,-0.005 -0.009,-0.003 -0.009,-0.003 -0.005,-0.001 -0.0155,-0.004 l -0.009,-0.002 q -0.008,-0.002 -0.0176,-0.004 -0.001,0 -0.003,-0.001 -0.002,0 -0.003,-0.001 -0.0196,-0.004 -0.0765,-0.0155 -0.007,-0.001 -0.0103,-0.002 -0.002,0 -0.009,-0.002 -0.006,-0.001 -0.0103,-0.002 -0.003,0 -0.008,-0.002 -0.004,-0.001 -0.009,-0.002 -0.005,-0.001 -0.008,-0.002 -0.0176,-0.004 -0.0289,-0.009 -0.0744,-0.031 -0.10026,-0.0879 0.005,0.14883 0.061,0.30283 0.11162,0.30902 0.36381,0.33589 h 0.003 q 0.009,0 0.0145,0 0.002,0 0.007,-0.001 0.006,0 0.009,-10e-4 0.003,0 0.007,-0.001 0.003,-0.001 0.006,-0.002 0.005,-0.001 0.006,-0.002 0.002,0 0.006,-0.002 0.004,-0.002 0.005,-0.002 0.001,-0.001 0.005,-0.004 0.004,-0.002 0.007,-0.005 0.003,-0.002 0.003,-0.002 0.002,-0.002 0.004,-0.004 0.003,-0.003 0.002,-0.002 v 0 q 0.007,-0.009 0.0114,-0.0196 0.0382,0.0248 0.0909,0.0537 0.20877,0.12092 0.21188,0.12299 0.11368,0.0734 0.16743,0.12919 0,0.001 0.002,0.002 -0.004,0.001 -0.0124,0.002 -0.0289,0.005 -0.0837,0.007 -0.1292,0.006 -0.16537,0.0134 -0.0506,0.0114 -0.0724,0.031 -0.0155,0.0145 -0.0165,0.0393 0,0.0217 0.009,0.0393 0.001,0.003 0.005,0.0114 -0.0289,-0.003 -0.0713,-0.007 -0.0537,-0.007 -0.0641,-0.008 -0.18603,-0.0258 -0.18603,-0.0248 0,-10e-4 0.185,0.03 0.0103,0.002 0.0672,0.0103 0.0444,0.006 0.0744,0.0103 0.0134,0.0238 0.0538,0.0723 0.0279,0.031 0.0289,0.03 -0.001,0.001 -0.0279,-0.032 -0.0372,-0.0476 -0.0496,-0.0692 0.1571,0.0196 0.27285,0.007 0.0351,-0.005 0.0579,-0.0145 0.0382,-0.0155 0.0506,-0.0434 0.0134,-0.032 -0.006,-0.0713 -0.005,-0.008 -0.0114,-0.0186 0.0217,-0.008 0.0351,-0.0258 0.0341,-0.0382 0.0393,-0.092 0.004,-0.0424 -0.009,-0.093 z"
         style="font-family:Leafs;-inkscape-font-specification:Leafs;fill:#008000"
         id="path538" />
    </g>
    <g
       aria-label="R"
       transform="rotate(2.6869413,709.74937,-912.9128)"
       id="text956-1-1"
       style="font-size:2.11667px;line-height:1.25;font-family:made;-inkscape-font-specification:made;letter-spacing:0px;word-spacing:0px;stroke-width:0.264583">
      <path
         d="m 149.82561,239.72749 q 0.18913,-0.21084 0.22944,-0.44235 0.0672,-0.0279 0.11162,-0.0362 -0.008,0.0692 0.0455,0.0879 0.008,-0.0124 0.0372,-0.008 0.0548,0.007 0.0465,0.007 0.007,-0.0103 0.0424,-0.0155 0.0475,-0.006 0.0548,-0.008 -0.008,-0.0103 0.0279,-0.0258 0.007,-0.003 0.03,-0.0114 0.0176,-0.007 0.0238,-0.0103 -0.0134,-0.005 0.0124,-0.0331 0.007,-0.009 0.0217,-0.0227 0.0145,-0.0145 0.0176,-0.0176 -0.0186,0.001 0.0114,-0.0661 0.0258,-0.0579 0.0434,-0.0827 -0.0227,0.005 -0.0992,-0.0124 -0.0765,-0.0176 -0.0692,-0.0279 -0.004,0.001 -0.0258,0.004 -0.0207,0.002 -0.0331,0.003 -0.0403,0.003 -0.0382,-0.009 -0.006,0.003 -0.0227,0.0124 -0.0196,0.0124 -0.0269,0.0165 -0.0341,0.0186 -0.0393,0.007 -0.006,0.004 -0.0382,0.0351 -0.0238,0.0238 -0.0372,0.0238 -0.003,0.005 -0.008,0.0176 -0.007,0.0155 -0.009,0.0207 -0.0134,0.0248 -0.03,0.0238 -0.0114,0.0496 0.0568,0.0796 -0.0568,0.0196 -0.10439,0.0393 0.004,-0.0227 0.006,-0.0476 0.001,0 0.002,10e-4 0.002,0.001 0.003,0.001 l 0.0103,-0.002 q -0.002,-0.001 -0.0155,-0.006 0.009,-0.12195 -0.032,-0.23461 0.009,-0.007 0.009,-0.007 l 0.0238,-0.001 q 0.10645,0.0475 0.16743,-0.009 -0.0155,-0.0186 0.007,-0.0537 0.004,-0.006 0.0207,-0.0289 0.0124,-0.0176 0.0165,-0.0269 -0.0134,-0.0145 -0.001,-0.063 0.0155,-0.0641 0.0155,-0.0744 -0.0207,0.005 -0.0258,-0.0496 0,-0.0124 -0.001,-0.0455 -0.001,-0.0269 -0.003,-0.0372 -0.0165,0.0145 -0.0475,-0.0341 -0.009,-0.0134 -0.0248,-0.0403 -0.0145,-0.0258 -0.0186,-0.032 -0.008,0.0238 -0.0992,-0.0517 -0.0796,-0.0651 -0.10955,-0.10231 -0.003,0.0331 -0.0744,0.12092 -0.0713,0.0889 -0.0837,0.0744 -0.001,0.004 -0.008,0.0351 -0.007,0.0279 -0.0124,0.0444 -0.0176,0.0537 -0.0362,0.0434 0,0.0103 0.007,0.0362 0.008,0.0331 0.0114,0.0444 0.0103,0.0537 -0.0103,0.0537 0.003,0.009 0.0103,0.0248 h -0.001 q -0.0248,0.0103 -0.0124,0.0279 l 0.0207,0.0289 0.0331,0.0186 q 0.007,0.0186 0.002,0.03 0.006,0.006 0.0238,0.0207 0.0207,0.0165 0.0279,0.0238 0.0331,0.03 0.0217,0.0506 0.0589,0.0341 0.13229,-0.009 0.0362,0.10542 0.03,0.21601 -0.0289,-0.0124 -0.0475,-0.0248 0.0444,-0.03 0.0289,-0.0641 -0.0114,0.002 -0.0238,-0.0134 -0.0217,-0.0289 -0.0186,-0.0248 -0.009,0.001 -0.03,-0.0124 -0.0258,-0.0186 -0.031,-0.0207 -0.002,0.008 -0.0289,-0.001 -0.0486,-0.0165 -0.0393,-0.0145 0.003,0.008 -0.0258,0.0103 -0.008,0.001 -0.0238,0.001 -0.0155,0.001 -0.0186,0.001 0.009,0.007 -0.0444,0.0269 -0.0475,0.0165 -0.0703,0.0207 0.0145,0.007 0.0424,0.0517 0.0269,0.0455 0.0176,0.0465 0.002,10e-4 0.0145,0.0103 0.0124,0.008 0.0186,0.0134 0.0217,0.0176 0.0134,0.0227 -0.008,-0.003 0.0413,0.009 0.0279,0.006 0.0227,0.0145 0.006,0.001 0.0403,0 0.0258,0 0.032,0.006 0.004,-0.001 0.0145,-0.005 0.0124,-0.004 0.0165,-0.005 0.0207,-0.006 0.0279,0.002 0.0351,-0.0196 0.0196,-0.0661 0.0227,0.0103 0.0517,0.0217 -0.0155,0.25735 -0.23977,0.50023 z m 0.15503,-0.53434 q -0.008,0 -0.0248,-0.005 -0.0465,0.0393 -0.12092,0.0475 -0.002,0.001 -0.003,-0.001 0,-10e-4 0.001,-0.002 0.0124,-0.004 0.0331,-0.0103 0.0258,-0.007 0.0331,-0.0103 0.0207,-0.006 0.0372,-0.0165 0.0134,-0.009 0.003,-0.0124 -0.0103,-0.003 -0.0176,-0.005 -0.0114,-0.003 -0.0186,-0.006 -0.0155,-0.004 -0.0248,0.001 -0.008,0.005 -0.0227,0.009 -0.0527,0.0176 -0.0724,0.0207 -0.002,0 -0.003,-0.001 -0.001,-0.001 10e-4,-0.002 0.0103,-0.004 0.0496,-0.0165 0.031,-0.009 0.0486,-0.0176 -0.0124,-0.004 -0.0393,-0.0124 -0.0227,-0.006 -0.0269,-0.006 0.001,0 -0.007,0.005 0.003,-0.002 -0.0279,0.008 -0.0176,0.005 -0.0331,0.006 -0.002,0 -0.003,-0.001 0,-10e-4 0.001,-0.002 0.0486,-0.0124 0.0631,-0.0207 -0.0796,-0.0238 -0.10955,-0.0331 -0.002,-0.001 -0.002,-0.002 0.001,-0.001 0.003,-0.001 0.0155,0.001 0.11059,0.031 -0.0103,-0.0279 -0.0372,-0.0486 -0.001,-0.001 0,-0.002 0.001,0 0.003,0 0.0124,0.005 0.0258,0.0217 0.008,0.0124 0.0114,0.0165 0.008,0.0155 0.006,0.0145 0.004,0.003 0.0114,0.006 0.009,0.003 0.007,0.003 0.001,0 0.003,0 0.002,0.001 0.002,0.001 0.002,0.001 0.006,0.002 0.004,0.001 0.006,0.001 0.004,0.001 0.0134,0.004 0.009,10e-4 0.0134,0.003 -0.006,-0.0155 -0.0248,-0.0413 -0.0196,-0.0279 -0.0258,-0.0413 l 0.003,-0.001 q 0.0269,0.0269 0.0444,0.0579 0.0165,0.0289 0.0155,0.0289 0.003,0.002 0.008,0.004 0.0103,0.003 0.0269,0.008 l 0.004,0.001 q 0.0103,0.002 0.0155,0.003 0.003,10e-4 0,-0.0114 -0.003,-0.0134 -0.0155,-0.032 -0.004,-0.007 -0.0196,-0.0269 -0.0124,-0.0176 -0.0186,-0.0279 -0.001,-0.001 0.001,-0.002 0.001,-0.001 0.003,10e-4 0.0331,0.03 0.0455,0.0579 0.002,0.004 0.004,0.0145 0.003,0.0103 0.005,0.0155 0.008,0.0196 0.0279,0.0217 0.002,0 0.002,0.002 0,0.001 -0.002,0.001 z m 0.0176,-0.67076 q 0.006,0.0765 0.007,0.0847 0.0258,-0.0207 0.0434,-0.0486 l 0.0279,-0.0589 q 0,-0.004 0.004,-0.003 0.003,0.002 0.003,0.005 0,0.0207 -0.0124,0.0444 l -0.0114,0.0196 q -0.0165,0.0258 -0.0248,0.0351 -0.0269,0.03 -0.0248,0.0248 -0.004,0.0103 -0.004,0.0258 l 0.001,0.0145 q 0.001,0.005 0.002,0.0114 0.001,0.004 0.002,0.0124 0.002,0.008 0.002,0.0114 0.002,0.007 0.005,0.0258 0.004,0.0176 0.006,0.0269 0.0258,-0.0248 0.0651,-0.0816 0.0424,-0.0599 0.0651,-0.0827 0.002,-0.002 0.004,0 0.003,0.002 0.002,0.005 -0.0341,0.0713 -0.0847,0.13022 -0.0475,0.0548 -0.0465,0.0527 -0.003,0.009 -0.003,0.0196 0.004,0.0207 0.007,0.0537 0.001,0.002 0.002,0.007 0.004,0.0186 0.006,0.0289 0.002,0.009 0.0114,0.003 0.003,-0.002 0.008,-0.007 0.005,-0.004 0.007,-0.005 0.0238,-0.0186 0.0527,-0.0558 0.0124,-0.0155 0.0413,-0.0589 0.0258,-0.0382 0.0434,-0.0579 0.002,-0.003 0.005,-0.001 0.003,0.002 0.001,0.005 -0.0351,0.0868 -0.0837,0.13333 -0.006,0.007 -0.0269,0.0217 -0.0207,0.0145 -0.03,0.0238 -0.0331,0.031 -0.0207,0.0661 10e-4,0.004 -0.002,0.006 -0.003,10e-4 -0.005,-0.002 v -0.001 q -0.007,-0.0134 -0.0114,-0.0475 -0.12816,-0.0434 -0.21704,-0.16434 -0.002,-0.003 0,-0.006 0.003,-0.002 0.006,0 0.0207,0.0165 0.0537,0.0476 0.0382,0.0351 0.0527,0.0475 0.0331,0.0289 0.0713,0.0475 0.0165,0.008 0.0196,0.009 0.0114,0.002 0.009,-0.0134 -0.001,-0.004 -0.003,-0.0176 -0.001,-0.0114 -0.002,-0.0186 -0.004,-0.0217 -0.005,-0.0382 -0.005,-0.031 -0.0227,-0.0413 -0.0196,-0.0114 -0.0434,-0.031 -0.0858,-0.0744 -0.11162,-0.10646 -0.003,-0.003 0,-0.006 0.002,-0.002 0.005,0 0.0186,0.0145 0.0816,0.0713 0.0496,0.0455 0.0847,0.0661 -0.0124,-0.0847 -0.0114,-0.0785 -0.006,-0.0455 -0.0114,-0.0517 0.002,0.002 -0.0165,-0.008 -0.009,-0.005 -0.0227,-0.0196 -0.0186,-0.0196 -0.0217,-0.0217 -0.0279,-0.0248 -0.0444,-0.0507 -0.002,-0.003 0,-0.005 0.002,-0.003 0.005,-0.001 0.0713,0.0734 0.10232,0.0889 -0.002,-0.0155 -0.0289,-0.22014 -0.001,-0.003 0.002,-0.004 0.003,-10e-4 0.005,0.003 0.0207,0.0455 0.0269,0.12816 z m 0.1788,0.7121 q 0.007,-0.007 0.0289,-0.0176 0,-0.0796 0.061,-0.15503 0.001,-0.002 0.004,-0.001 0.002,0 0.001,0.002 -0.006,0.0155 -0.0196,0.0403 -0.0145,0.0289 -0.0196,0.0403 -0.0114,0.0238 -0.0155,0.0486 -0.004,0.0217 0.009,0.0155 0.007,-0.004 0.0238,-0.0114 0.0134,-0.008 0.0248,-0.0114 0.0196,-0.0103 0.0217,-0.0227 0.003,-0.0124 0.0114,-0.031 0.03,-0.063 0.0455,-0.0847 0.002,-0.002 0.004,-0.001 0.002,0.001 0.002,0.002 -0.006,0.0134 -0.03,0.061 -0.0186,0.0372 -0.0248,0.061 0.009,-0.004 0.0258,-0.0114 0.0186,-0.009 0.0248,-0.0124 0.03,-0.0145 0.032,-0.0186 -0.001,0.002 0.002,-0.0114 -0.001,0.005 0.0176,-0.0331 0.0103,-0.0217 0.0238,-0.0362 0.002,-0.002 0.004,-10e-4 0.002,10e-4 0.001,0.003 -0.0331,0.0558 -0.0362,0.0754 0.061,-0.0279 0.14263,-0.0672 0.002,-10e-4 0.003,0.001 0.002,0.001 0,0.003 -0.0165,0.0134 -0.1416,0.0703 0.0413,0.0186 0.0899,0.0134 0.002,-0.001 0.002,0.001 0,0.002 -0.002,0.003 -0.0186,0.006 -0.0496,0.002 -0.0207,-0.002 -0.0289,-0.005 -0.0269,-0.007 -0.0227,-0.007 -0.007,0 -0.0186,0.004 -0.008,0.003 -0.009,0.004 -10e-4,0 -0.003,0.001 -0.003,10e-4 -0.004,0.002 -0.006,0.003 -0.0145,0.008 -0.005,0.002 -0.0176,0.008 -0.0103,0.006 -0.0165,0.009 0.0227,0.009 0.0703,0.0165 0.0506,0.009 0.0724,0.0155 0.002,10e-4 0.001,0.003 -0.001,0.002 -0.004,0.002 -0.0558,-0.002 -0.10749,-0.0155 -0.0475,-0.0134 -0.0465,-0.0134 -0.006,10e-4 -0.0145,0.003 -0.0124,0.007 -0.0341,0.0165 l -0.004,0.003 q -0.0238,0.0134 -0.0186,0.0103 -0.006,0.003 0.001,0.006 0.002,0.002 0.006,0.003 0.004,0.002 0.005,0.002 0.0176,0.009 0.0506,0.0165 0.0134,0.003 0.0496,0.008 0.032,0.005 0.0496,0.009 0.002,0.001 0.001,0.003 0,0.002 -0.003,0.002 -0.0672,0.001 -0.10955,-0.0145 -0.006,-0.002 -0.0207,-0.009 -0.0155,-0.008 -0.0238,-0.0103 -0.0289,-0.0114 -0.0496,0.004 -0.002,0.001 -0.004,0 -0.002,-0.001 0,-0.003 z"
         style="font-family:Leafs;-inkscape-font-specification:Leafs;fill:#008000"
         id="path535" />
    </g>
    <g
       aria-label="ympa"
       id="text887-2-2-4"
       style="font-size:4.9389px;line-height:1.25;font-family:made;-inkscape-font-specification:made;letter-spacing:0px;word-spacing:0px;stroke-width:0.264583"
       transform="translate(-42.015934,-34.275858)">
      <path
         d="m 140.88794,244.69847 q 0.0494,-0.0247 0.12841,0.01 0.084,0.0296 0.15805,0.0938 0.0741,0.0642 0.11853,0.14817 0.0444,0.084 0.0198,0.16299 -0.0247,0.0691 -0.0988,0.22225 -0.0692,0.1531 -0.15805,0.35066 -0.0889,0.19261 -0.17286,0.40005 -0.084,0.20743 -0.13335,0.38029 -0.0494,0.17287 -0.0494,0.28646 0,0.10866 0.0889,0.11359 h 0.0593 q 0.16298,-0.0494 0.30621,-0.17286 0.14323,-0.12347 0.26176,-0.28151 0.12348,-0.15805 0.22719,-0.33091 0.10866,-0.17286 0.19756,-0.32103 0.0938,-0.24694 0.18274,-0.51364 0.0889,-0.26671 0.17286,-0.54822 0.0494,-0.0247 0.12841,0.01 0.084,0.0296 0.15805,0.0938 0.0741,0.0642 0.11853,0.14817 0.0444,0.084 0.0198,0.16299 l -0.73096,1.76812 q -0.1136,0.27658 -0.22719,0.51859 -0.10866,0.24694 -0.22719,0.46425 0.20743,0.1136 0.40499,0.24201 0.19756,0.13335 0.39017,0.2667 0.0543,0.0395 0.01,0.084 -0.0395,0.0494 -0.11853,0.084 -0.079,0.0395 -0.16793,0.0593 -0.084,0.0197 -0.11853,0 -0.17286,-0.11853 -0.31609,-0.22225 -0.14323,-0.10372 -0.27658,-0.19262 -0.14323,0.21731 -0.30621,0.38524 -0.16298,0.16792 -0.3556,0.28151 -0.19262,0.11854 -0.41981,0.1778 -0.23212,0.0642 -0.5087,0.0642 -0.15805,0 -0.31115,-0.0346 -0.15311,-0.0296 -0.27164,-0.0988 -0.12348,-0.0691 -0.19756,-0.18274 -0.079,-0.10866 -0.079,-0.27164 0,-0.21731 0.10865,-0.40499 0.10372,-0.18274 0.28152,-0.32103 0.1778,-0.13335 0.40993,-0.21237 0.23213,-0.0741 0.48895,-0.0741 0.16299,0 0.28646,0.01 0.12841,0.0148 0.23706,0.0346 0.10866,0.0247 0.20744,0.0543 0.10372,0.0346 0.21731,0.079 0.11853,-0.22226 0.22719,-0.45932 0.10866,-0.23707 0.20743,-0.48895 l 0.10866,-0.27658 q -0.0988,0.14323 -0.21237,0.27658 -0.1136,0.13335 -0.24695,0.24694 -0.0346,0.0296 -0.0889,0.0692 -0.0543,0.0395 -0.12347,0.0741 -0.0642,0.0296 -0.14323,0.0543 -0.0741,0.0197 -0.16298,0.0197 -0.10372,-0.005 -0.1778,-0.0593 -0.0691,-0.0543 -0.10866,-0.14323 -0.0395,-0.0889 -0.0445,-0.2025 -0.005,-0.11359 0.0198,-0.242 0.0346,-0.1778 0.11359,-0.41981 0.079,-0.24201 0.17286,-0.49389 0.0938,-0.25682 0.1778,-0.49883 0.0889,-0.24694 0.13829,-0.42968 z m -1.31375,4.23263 q 0.19756,0 0.37536,-0.0741 0.17286,-0.0691 0.33091,-0.19755 0.16298,-0.12348 0.30621,-0.30128 0.14323,-0.17286 0.27658,-0.38523 -0.16793,-0.0692 -0.3556,-0.10866 -0.18274,-0.0395 -0.41981,-0.0444 -0.18274,0 -0.38523,0.0395 -0.2025,0.0395 -0.37042,0.11854 -0.16792,0.084 -0.27658,0.21237 -0.10866,0.12841 -0.0988,0.30127 0,0.13335 0.0593,0.21731 0.0593,0.084 0.1531,0.13335 0.0889,0.0494 0.19756,0.0692 0.10866,0.0197 0.20743,0.0197 z"
         style="font-family:Ananda;-inkscape-font-specification:Ananda"
         id="path477" />
      <path
         d="m 146.29109,246.24434 q -0.0691,0.10866 -0.18768,0.27164 -0.11359,0.15805 -0.25682,0.30621 -0.14323,0.14817 -0.30127,0.25683 -0.15311,0.10371 -0.30622,0.10371 -0.084,0 -0.16792,-0.0296 -0.079,-0.0296 -0.13829,-0.0889 -0.0593,-0.0593 -0.0938,-0.15311 -0.0346,-0.0938 -0.0296,-0.22225 0.005,-0.12841 0.0346,-0.25188 0.0296,-0.12841 0.0741,-0.2667 0.0494,-0.14323 0.11853,-0.30621 0.0691,-0.16792 0.15311,-0.37042 0.0543,-0.12841 0.084,-0.23213 0.0296,-0.10865 0.01,-0.15804 -0.0197,-0.0494 -0.10371,-0.0148 -0.079,0.0296 -0.25189,0.1778 -0.19261,0.16792 -0.34078,0.32597 -0.14817,0.1531 -0.2914,0.34078 -0.0395,0.084 -0.0741,0.17286 -0.0346,0.084 -0.0691,0.1778 -0.0691,0.20744 -0.11854,0.42475 -0.0494,0.21237 -0.0642,0.43956 0,0.0346 -0.0543,0.0198 -0.0543,-0.0148 -0.12347,-0.0494 -0.0642,-0.0395 -0.11854,-0.0889 -0.0543,-0.0494 -0.0593,-0.0889 0.0148,-0.3556 0.12347,-0.70133 0.10866,-0.35066 0.25188,-0.70626 0.0741,-0.19262 0.10372,-0.31609 0.0296,-0.12841 -0.0296,-0.14323 -0.0395,-0.005 -0.11854,0.0395 -0.079,0.0395 -0.21237,0.1531 -0.19262,0.17286 -0.34078,0.33091 -0.14817,0.15804 -0.30622,0.35066 -0.12347,0.28646 -0.20743,0.58279 -0.084,0.29139 -0.10866,0.61736 0,0.0346 -0.0543,0.0198 -0.0543,-0.0148 -0.12348,-0.0494 -0.0642,-0.0395 -0.11853,-0.0889 -0.0543,-0.0494 -0.0593,-0.0889 0.0148,-0.2914 0.0889,-0.56798 0.079,-0.28151 0.1778,-0.55809 0.0988,-0.28152 0.20744,-0.5581 0.10865,-0.27658 0.19262,-0.55809 0.0494,-0.0247 0.12841,0.01 0.084,0.0296 0.15804,0.0938 0.0741,0.0642 0.11854,0.14817 0.0444,0.084 0.0197,0.16299 -0.0148,0.0543 -0.0395,0.10371 -0.0247,0.0494 -0.0543,0.10372 0.10372,-0.1136 0.22225,-0.22225 0.11854,-0.10866 0.24201,-0.19262 0.12347,-0.0889 0.25188,-0.14323 0.12841,-0.0543 0.26176,-0.0642 0.0543,0 0.1136,0.0445 0.0642,0.0395 0.10865,0.10371 0.0494,0.0593 0.0741,0.12842 0.0247,0.0691 0.005,0.12347 -0.0247,0.0642 -0.0543,0.12347 -0.0296,0.0593 -0.0593,0.12347 0.10372,-0.11853 0.22225,-0.23212 0.11854,-0.1136 0.24695,-0.2025 0.12841,-0.0889 0.26176,-0.14323 0.13829,-0.0593 0.27658,-0.0691 0.0494,0 0.10865,0.0445 0.0642,0.0395 0.10866,0.10371 0.0494,0.0593 0.0741,0.12842 0.0247,0.0691 0,0.12347 -0.12347,0.33584 -0.22719,0.56797 -0.0988,0.22719 -0.1778,0.40993 -0.079,0.1778 -0.12841,0.34572 -0.0494,0.16299 -0.0642,0.37042 0,0.0148 0.005,0.0346 0.005,0.0198 0.0198,0.0346 0.0198,0.0148 0.0494,0.0148 0.0346,0 0.0889,-0.0247 0.15311,-0.0692 0.35066,-0.24201 0.19756,-0.17286 0.39017,-0.45932 0.0741,-0.10865 0.13336,-0.21237 0.0642,-0.10865 0.11853,-0.20743 0.0197,-0.0247 0.0444,-0.0247 0.0296,-0.005 0.0494,0.01 0.0247,0.0148 0.0346,0.0395 0.01,0.0247 -0.01,0.0593 l -0.26176,0.42968 z"
         style="font-family:Ananda;-inkscape-font-specification:Ananda"
         id="path479" />
      <path
         d="m 147.1949,245.18742 q 0.1136,-0.10372 0.24201,-0.19262 0.12841,-0.0938 0.26176,-0.15804 0.13829,-0.0692 0.27164,-0.10372 0.13829,-0.0346 0.26176,-0.0198 0.19756,0.0247 0.30127,0.12842 0.10372,0.10371 0.14323,0.24694 0.0395,0.13829 0.0247,0.29633 -0.0148,0.15805 -0.0543,0.29634 -0.084,0.27658 -0.23707,0.54328 -0.15311,0.26176 -0.3556,0.46919 -0.19756,0.20744 -0.43956,0.33585 -0.24201,0.12841 -0.49883,0.13335 -0.2667,0.005 -0.39511,-0.0988 -0.12841,-0.10866 -0.16793,-0.2667 -0.01,-0.0247 -0.0148,-0.0494 -0.005,-0.0296 -0.01,-0.0593 -0.11853,0.23707 -0.24695,0.47414 -0.12347,0.23707 -0.22718,0.47413 -0.10372,0.24201 -0.17781,0.49389 -0.079,0.25683 -0.0988,0.5334 0,0.0395 -0.0494,0.0247 -0.0543,-0.0148 -0.11854,-0.0543 -0.0642,-0.0346 -0.11853,-0.0889 -0.0593,-0.0494 -0.0642,-0.0889 0.0148,-0.29633 0.10866,-0.60255 0.0938,-0.30127 0.23213,-0.61242 0.13335,-0.30621 0.28646,-0.61736 0.14816,-0.31115 0.27657,-0.62724 v 0.005 q 0.0593,-0.16793 0.12348,-0.34079 0.0691,-0.1778 0.13335,-0.34572 0.0691,-0.17286 0.12347,-0.33091 0.0543,-0.15804 0.0889,-0.28645 0.0494,-0.0247 0.12841,0.01 0.084,0.0296 0.15805,0.0938 0.0741,0.0642 0.11853,0.14817 0.0445,0.084 0.0197,0.16299 z m -0.45438,1.03717 -0.0296,0.0741 q -0.0148,0.079 -0.0148,0.16298 0.005,0.084 0.0346,0.15805 0.0296,0.0741 0.0889,0.12347 0.0642,0.0494 0.16793,0.0543 0.1531,0.0148 0.34078,-0.11359 0.18768,-0.12842 0.36548,-0.32597 0.1778,-0.19756 0.32103,-0.42969 0.14323,-0.23706 0.21237,-0.43956 0.0692,-0.20743 0.0346,-0.34572 -0.0296,-0.14323 -0.20249,-0.15311 -0.11853,-0.005 -0.25682,0.0346 -0.13335,0.0395 -0.27164,0.11359 -0.13335,0.0741 -0.2667,0.1778 -0.12842,0.10372 -0.23213,0.22719 -0.0741,0.16298 -0.15311,0.35066 -0.079,0.18274 -0.14323,0.3556 z"
         style="font-family:Ananda;-inkscape-font-specification:Ananda"
         id="path481" />
      <path
         d="m 150.87932,245.36522 q 0,0.0346 -0.0247,0.0543 -0.0247,0.0198 -0.0543,0.0247 -0.0247,0 -0.0444,-0.0198 -0.0198,-0.0198 -0.0198,-0.0593 -0.01,-0.0494 -0.0198,-0.12347 -0.005,-0.079 -0.0346,-0.14817 -0.0247,-0.0741 -0.084,-0.12841 -0.0593,-0.0543 -0.17286,-0.0593 -0.13829,-0.005 -0.27164,0.0543 -0.12841,0.0593 -0.24695,0.16298 -0.11853,0.10372 -0.22225,0.24201 -0.10371,0.13335 -0.18768,0.28152 -0.084,0.14322 -0.14816,0.29139 -0.0593,0.14323 -0.0938,0.2667 -0.0247,0.084 -0.0395,0.2025 -0.0148,0.11853 0.01,0.22225 0.0247,0.0988 0.10372,0.1531 0.079,0.0543 0.24695,0.0148 0.079,-0.0198 0.19261,-0.11359 0.1136,-0.0938 0.22719,-0.21732 0.11854,-0.12841 0.22225,-0.2667 0.10372,-0.13829 0.16793,-0.242 0.0543,-0.14323 0.0889,-0.27658 0.0395,-0.13335 0.0494,-0.23213 0.0494,-0.0247 0.13335,0.01 0.084,0.0346 0.15804,0.0988 0.0741,0.0642 0.11853,0.14816 0.0445,0.084 0.0198,0.16299 -0.0296,0.0741 -0.0741,0.1778 -0.0395,0.10371 -0.084,0.21237 -0.0395,0.10866 -0.079,0.21731 -0.0346,0.10372 -0.0494,0.19262 -0.01,0.084 0,0.13829 0.0148,0.0543 0.0691,0.0593 h 0.0593 q 0.16793,-0.0494 0.31116,-0.1778 0.14816,-0.12841 0.27163,-0.29139 0.12842,-0.16298 0.23213,-0.34078 0.10866,-0.17781 0.19756,-0.32597 0.0148,-0.0247 0.0445,-0.0247 0.0296,-0.005 0.0494,0.01 0.0247,0.0148 0.0346,0.0395 0.01,0.0247 -0.01,0.0593 -0.0988,0.1531 -0.19261,0.31115 -0.0938,0.15804 -0.19756,0.30621 -0.10372,0.14817 -0.22225,0.28646 -0.1136,0.13829 -0.25188,0.25188 -0.0346,0.0296 -0.0889,0.0692 -0.0494,0.0395 -0.11854,0.0741 -0.0642,0.0346 -0.14323,0.0593 -0.0741,0.0198 -0.16298,0.0148 -0.13829,-0.01 -0.22719,-0.0691 -0.084,-0.0593 -0.12841,-0.15311 -0.0445,-0.0938 -0.0494,-0.21237 0,-0.11853 0.0346,-0.24201 -0.0988,0.12348 -0.21237,0.24201 -0.10866,0.11853 -0.22719,0.21237 -0.11853,0.0938 -0.24201,0.15311 -0.12347,0.0543 -0.242,0.0445 -0.21237,-0.01 -0.33091,-0.0988 -0.11359,-0.0938 -0.16792,-0.21731 -0.0543,-0.12347 -0.0642,-0.25682 -0.005,-0.13335 0.01,-0.22225 0.0247,-0.17287 0.10866,-0.3803 0.084,-0.20743 0.21731,-0.40993 0.13335,-0.20743 0.30621,-0.39017 0.1778,-0.18768 0.37536,-0.31115 0.20249,-0.12841 0.4198,-0.1778 0.21731,-0.0543 0.4445,0.005 0.0988,0.0296 0.15805,0.0988 0.0642,0.0642 0.0988,0.15805 0.0346,0.0889 0.0445,0.19756 0.01,0.10371 0.005,0.20743 z"
         style="font-family:Ananda;-inkscape-font-specification:Ananda"
         id="path483" />
    </g>
    <g
       aria-label="r"
       id="text979-0-8-9-0-6"
       style="font-style:normal;font-variant:normal;font-weight:normal;font-stretch:normal;font-size:10.5833px;line-height:1.25;font-family:made;-inkscape-font-specification:made;letter-spacing:0px;word-spacing:0px;fill:#000000;fill-opacity:1;stroke:none;stroke-width:0.264583"
       transform="matrix(0.47215449,0,0,0.47215449,30.817147,123.60111)">
      <path
         d="m 176.6345,187.33769 q -0.22225,0.3175 -0.508,0.64558 -0.28574,0.32808 -0.61383,0.59266 -0.32808,0.26458 -0.69849,0.43392 -0.37042,0.15875 -0.762,0.13758 -0.40217,-0.0212 -0.59267,-0.29633 -0.1905,-0.27517 -0.17991,-0.635 0.0106,-0.32808 0.11641,-0.61383 0.10584,-0.28575 0.26459,-0.55033 0.16933,-0.27517 0.35983,-0.53975 0.20108,-0.26458 0.41275,-0.55033 0.13758,-0.1905 0.27516,-0.37042 0.13759,-0.1905 0.23284,-0.32808 0.0952,-0.14817 0.13758,-0.23283 0.0423,-0.0847 0,-0.0741 -0.15875,0.0212 -0.27517,0.0529 -0.10583,0.0212 -0.20108,0.0529 -0.0952,0.0212 -0.20108,0.0318 -0.10584,0.0106 -0.254,0.0106 -0.0529,0 -0.10584,0 -0.0529,0 -0.10583,-0.0106 -0.24341,0.33866 -0.46566,0.67733 -0.22225,0.33866 -0.42334,0.65616 -0.0318,0.0529 -0.0952,0.0635 -0.0529,0 -0.0953,-0.0212 -0.0423,-0.0318 -0.0635,-0.0847 -0.0212,-0.0635 0.0318,-0.13758 0.21166,-0.33867 0.39158,-0.64558 0.1905,-0.3175 0.40216,-0.635 -0.1905,-0.15875 -0.13758,-0.42333 0.0529,-0.27517 0.21167,-0.5715 0.15875,-0.30692 0.33866,-0.58208 0.17992,-0.27517 0.24342,-0.4445 0.127,0.0529 0.254,0.13758 0.13758,0.0741 0.22225,0.1905 0.0847,0.10583 0.10583,0.27516 0.0212,0.15875 -0.0741,0.39159 l -0.4445,0.64558 q -0.0423,0.0635 0.0741,0.0423 0.11642,-0.0212 0.32808,-0.0847 0.21167,-0.0741 0.46567,-0.16934 0.26458,-0.10583 0.508,-0.21166 0.24341,-0.10584 0.42333,-0.20109 0.1905,-0.10583 0.24341,-0.16933 0.0317,0 0.0847,0.0423 0.0635,0.0423 0.127,0.0952 0.0741,0.0529 0.127,0.10584 0.0529,0.0529 0.0635,0.0635 0.10583,0.15875 -0.0106,0.42333 -0.10584,0.254 -0.33867,0.59266 -0.23283,0.33867 -0.55033,0.73025 -0.3175,0.381 -0.62442,0.79375 -0.10583,0.127 -0.23283,0.30691 -0.127,0.16934 -0.24341,0.35984 -0.11642,0.17991 -0.20109,0.35983 -0.0847,0.17991 -0.10583,0.32808 -0.0212,0.14817 0.0423,0.24342 0.0741,0.0847 0.27517,0.0952 0.13758,0.0106 0.32808,-0.0741 0.20108,-0.0952 0.42333,-0.254 0.22225,-0.16933 0.4445,-0.39158 0.22225,-0.22225 0.40217,-0.47625 0.21166,-0.30691 0.381,-0.59266 0.17991,-0.28575 0.29633,-0.49742 0.0423,-0.0529 0.0952,-0.0529 0.0635,-0.0106 0.10583,0.0212 0.0529,0.0317 0.0635,0.0847 0.0212,0.0529 -0.0212,0.127 -0.17991,0.27517 -0.33866,0.56091 -0.15875,0.28575 -0.33867,0.55034 z"
         style="font-style:normal;font-variant:normal;font-weight:normal;font-stretch:normal;font-family:Ananda;-inkscape-font-specification:Ananda;fill:#000000;stroke-width:0.264583"
         id="path1041-3-1-1" />
    </g>
    <g
       aria-label=".f"
       id="text979-8-3-2-5-0"
       style="font-style:normal;font-variant:normal;font-weight:normal;font-stretch:normal;font-size:10.5833px;line-height:1.25;font-family:made;-inkscape-font-specification:made;letter-spacing:0px;word-spacing:0px;fill:#000000;fill-opacity:1;stroke:none;stroke-width:0.264583"
       transform="matrix(0.4643692,0.08538796,-0.08538796,0.4643692,48.013674,110.34846)">
      <path
         d="m 168.63649,187.037 c -0.26458,-0.0212 -0.508,0.17991 -0.52917,0.44449 -0.0212,0.26459 0.17992,0.508 0.4445,0.52917 0.27517,0.0212 0.508,-0.17992 0.52917,-0.4445 0.0212,-0.27516 -0.17992,-0.508 -0.4445,-0.52916 z"
         style="font-style:normal;font-variant:normal;font-weight:normal;font-stretch:normal;font-family:'Best Valentina';-inkscape-font-specification:'Best Valentina';fill:#000000;stroke-width:0.264583"
         id="path1044-0-7-6" />
      <path
         d="m 170.61689,187.73549 c 0.0423,-0.45508 0.0635,-1.49224 0.127,-2.60349 0.77258,-0.96308 1.56633,-2.10607 1.56633,-3.38665 0,-0.46567 -0.16934,-0.97367 -0.73025,-0.97367 -1.16416,0 -1.57691,2.13783 -1.74625,3.77824 -0.17991,1.78858 -0.94191,8.05389 1.2065,8.05389 1.83091,0.0106 0.29633,-3.84174 -0.16933,-4.61432 1.25941,-0.0952 2.14629,-1.19915 2.41659,-2.03686 -0.008,-0.13906 -0.22068,-0.1038 -0.32347,0.0351 -0.34312,0.74905 -0.99671,1.61958 -2.34712,1.74775 z m 1.05833,-6.44523 c 0.29633,0 0.37041,0.20109 0.37041,0.45509 0.0106,1.06891 -0.64558,2.10607 -1.26999,2.92099 0.0317,-0.52917 0.0952,-3.37608 0.89958,-3.37608 z m -0.60325,10.84789 c -0.77258,0.0212 -0.49742,-3.59833 -0.47625,-4.07457 0.381,0.56091 1.79916,4.04282 0.47625,4.07457 z"
         style="font-style:normal;font-variant:normal;font-weight:normal;font-stretch:normal;font-family:'Best Valentina';-inkscape-font-specification:'Best Valentina';fill:#000000;stroke-width:0.264583"
         id="path1046-6-4-3"
         sodipodi:nodetypes="scssccccccsccscccc" />
    </g>
  </g>
</svg>
